<svg xmlns="http://www.w3.org/2000/svg" width="679.146" height="679.26" viewBox="0 0 679.146 679.26">
  <g id="_3026239" data-name="3026239" transform="translate(-7.8 -17.291)">
    <g id="Floor" transform="translate(7.8 300.489)">
      <ellipse id="Floor_6_" cx="339.573" cy="198.031" rx="339.573" ry="198.031" fill="#eaecfd"/>
    </g>
    <g id="Shadows" transform="translate(163.974 514.865)">
      <ellipse id="Shadow_11_" cx="62.438" cy="36.044" rx="62.438" ry="36.044" transform="translate(179.078 21.346)" fill="#afb6e5"/>
      <ellipse id="Shadow_28_" cx="62.438" cy="36.044" rx="62.438" ry="36.044" transform="translate(341.516)" fill="#afb6e5"/>
      <ellipse id="Shadow_29_" cx="62.438" cy="36.044" rx="62.438" ry="36.044" transform="translate(0 75.391)" fill="#afb6e5"/>
    </g>
    <g id="Plants" transform="translate(44.777 427.45)">
      <g id="Plants_1_">
        <g id="XMLID_3168_" transform="translate(11.949)">
          <path id="XMLID_3172_" d="M122.231,492.465s-1.641-38.122-17.607-59.322-35.566-24.265-45.289-18.292c-7.084,4.352-6.129,17.264,6.139,25.7s35.909,29.895,39.6,43.918Z" transform="translate(-54.902 -412.154)" fill="#a200f9"/>
          <g id="XMLID_3169_" transform="translate(18.416 11.811)">
            <path id="XMLID_3170_" d="M111.053,486.467a.976.976,0,0,1-.924-1.028C111.77,450.859,81.418,429.3,73.2,425.41a.992.992,0,1,1,.841-1.8c8.466,4,39.752,26.238,38.059,61.909a1,1,0,0,1-1.039.945Z" transform="translate(-72.631 -423.525)" fill="#fff"/>
          </g>
        </g>
        <g id="XMLID_3162_" transform="translate(0 48.192)">
          <path id="XMLID_3167_" d="M115.083,478.629c-2.223-.322-4.373-.717-5.827-2.327-1.859-2.046-1.7-5.163-2.555-7.8-1.4-4.311-5.661-7.24-10.1-8.164s-9.058-.166-13.462.914c-8.9,2.181-17.451-3.293-26.374-2.649a17.825,17.825,0,0,0-9.037,2.825,9.626,9.626,0,0,0-4.321,8.092,10.305,10.305,0,0,0,3.677,6.866,30.825,30.825,0,0,0,6.752,4.217l7.822,3.989a13.934,13.934,0,0,1,3.636,2.358,10.428,10.428,0,0,1,2.732,8.341c-.6,2.981-3.054,5.318-3.781,8.279-.956,3.885,1.413,8.029,4.82,10.128s7.6,2.493,11.592,2.264,7.946-1.028,11.945-1.1a14.156,14.156,0,0,1,7.791,1.693c2.794,1.735,4.415,4.851,5.474,7.967a20.762,20.762,0,0,0,2.451,5.817,11.284,11.284,0,0,0,5.318,3.7,18.109,18.109,0,0,0,12.465-.021c3.3-1.267,4.913-5,6.139-8.216a28.567,28.567,0,0,0,1.735-10.543,67.588,67.588,0,0,0-6.139-26.768c-1.859-3.864-4.55-7.728-8.632-9.068A26.324,26.324,0,0,0,115.083,478.629Z" transform="translate(-43.398 -458.549)" fill="#bc5efa"/>
          <g id="XMLID_3165_" transform="translate(9.286 6.605)">
            <path id="XMLID_3166_" d="M123.379,519.828a.88.88,0,0,1-.831-.592c-9.307-26.685-53.36-49.922-69.471-52.581a.879.879,0,0,1,.28-1.735c16.412,2.711,61.337,26.446,70.842,53.734a.876.876,0,0,1-.54,1.122A.643.643,0,0,1,123.379,519.828Z" transform="translate(-52.338 -464.908)" fill="#fff"/>
          </g>
          <g id="XMLID_3163_" transform="translate(39.86 37.468)">
            <path id="XMLID_3164_" d="M82.653,504.062a.86.86,0,0,1-.7-.343.871.871,0,0,1,.166-1.236A44.53,44.53,0,0,1,106.6,494.62h.021a.883.883,0,0,1,.021,1.766,43.361,43.361,0,0,0-23.434,7.5A.936.936,0,0,1,82.653,504.062Z" transform="translate(-81.771 -494.62)" fill="#fff"/>
          </g>
        </g>
      </g>
    </g>
    <g id="Window" transform="translate(122.373 17.291)">
      <g id="XMLID_3538_">
        <g id="XMLID_4068_">
          <path id="XMLID_4261_" d="M121.3,557.827a7.291,7.291,0,0,1-3.189-5.775V237.606a7.542,7.542,0,0,1,3.407-5.9L491.453,18.142a7.314,7.314,0,0,1,6.6-.125,7.291,7.291,0,0,1,3.189,5.775V338.239a7.542,7.542,0,0,1-3.407,5.9L127.895,557.7A7.314,7.314,0,0,1,121.3,557.827Z" transform="translate(-118.1 -17.291)" fill="#d9def9"/>
          <path id="XMLID_4259_" d="M127.241,548.274a.409.409,0,0,1-.145.052,1.446,1.446,0,0,1-.332.125,1.749,1.749,0,0,1-.249.083,2.2,2.2,0,0,1-.467.114,1.04,1.04,0,0,1-.312.062c-.156.031-.343.062-.519.083a6.6,6.6,0,0,1-3.916-.675,7.259,7.259,0,0,1-3.189-5.765L118.1,268.2l6.4,3.7V546.02c0,1.537.769,2.441,1.89,2.441a1.732,1.732,0,0,0,.457-.062.125.125,0,0,0,.083-.021A1.37,1.37,0,0,0,127.241,548.274Z" transform="translate(-118.1 -7.572)" fill="#27debf"/>
          <path id="XMLID_2826_" d="M127.241,548.274a.409.409,0,0,1-.145.052,1.446,1.446,0,0,1-.332.125,1.749,1.749,0,0,1-.249.083,2.2,2.2,0,0,1-.467.114,1.04,1.04,0,0,1-.312.062c-.156.031-.343.062-.519.083a6.6,6.6,0,0,1-3.916-.675,7.259,7.259,0,0,1-3.189-5.765L118.1,268.2l6.4,3.7V546.02c0,1.537.769,2.441,1.89,2.441a1.732,1.732,0,0,0,.457-.062.125.125,0,0,0,.083-.021A1.37,1.37,0,0,0,127.241,548.274Z" transform="translate(-118.1 -7.572)" fill="#afb4e2"/>
          <path id="XMLID_2360_" d="M124.5,271.888l-6.4-3.687v60.88l6.4,3.729Z" transform="translate(-118.1 -7.572)" fill="#27debf"/>
          <path id="XMLID_2359_" d="M124.5,271.888l-6.4-3.687v60.88l6.4,3.729Z" transform="translate(-118.1 -7.572)" fill="#afb4e2"/>
          <path id="XMLID_4258_" d="M125.485,229.848a6.9,6.9,0,0,0-.987,3.345v40.324l-6.4-3.7v-40.3a2.581,2.581,0,0,1,.021-.405,8.6,8.6,0,0,1,.145-.852,8.319,8.319,0,0,1,.852-2.109Z" transform="translate(-118.1 -9.201)" fill="#afb6e5"/>
          <path id="XMLID_4257_" d="M500.989,23.641V41.829L229.816,198.377c-1.87,1.08-3.4.208-3.4-1.963v-6.887c0-2.171-1.527-3.054-3.407-1.963l-82.58,47.678a7.5,7.5,0,0,0-3.407,5.9v6.887a7.559,7.559,0,0,1-3.4,5.9l-9.369,5.412V241.152a7.559,7.559,0,0,1,3.4-5.9L497.592,21.667C499.462,20.587,500.989,21.47,500.989,23.641Z" transform="translate(-117.861 -17.139)" fill="#afb6e5"/>
          <path id="XMLID_4256_" d="M501,337.318a7.542,7.542,0,0,1-3.407,5.9L127.647,556.782c-1.87,1.08-3.4.208-3.4-1.963V258.551l9.369-5.412c1.87-1.08,4.924-17.6,6.8-18.676l81.208-46.878c1.891-1.08,6.316,11.1,8.185,10.013L500.989,41.06V63.2Z" transform="translate(-117.862 -16.37)" fill="#27debf"/>
          <path id="XMLID_2824_" d="M501,337.318a7.542,7.542,0,0,1-3.407,5.9L127.647,556.782c-1.87,1.08-3.4.208-3.4-1.963V258.551l9.369-5.412c1.87-1.08,4.924-17.6,6.8-18.676l81.208-46.878c1.891-1.08,6.316,11.1,8.185,10.013L500.989,41.06V63.2Z" transform="translate(-117.862 -16.37)" fill="#fff" opacity="0.9"/>
          <path id="XMLID_3171_" d="M501,337.318a7.542,7.542,0,0,1-3.407,5.9L127.647,556.782c-1.87,1.08-3.4.208-3.4-1.963V258.551l9.369-5.412c1.87-1.08,4.924-17.6,6.8-18.676l81.208-46.878c1.891-1.08,6.316,11.1,8.185,10.013L500.989,41.06V63.2Z" transform="translate(-117.862 -16.37)" fill="#fafaff"/>
          <path id="XMLID_2357_" d="M124.26,279.861v60.922L500.989,123.3V62.36Z" transform="translate(-117.861 -15.545)" fill="#bf00ff"/>
          <path id="XMLID_4249_" d="M500.989,41.06V63.2L124.26,280.686V258.551l7-4.051c1.87-1.08,2.5-2.732,3.4-5.9l2.368-8.237c.748-2.857,1.527-4.809,3.407-5.9l81.2-46.878c1.89-1.08,3.355-1.2,4.789,1.163l2.908,5.287c1.07,1.849,1.6,2.929,3.469,1.849Z" transform="translate(-117.861 -16.37)" fill="#f0f0f0"/>
          <g id="XMLID_4245_" transform="translate(332.042 17.324)">
            <path id="XMLID_4248_" d="M471.73,34.552c2.368-1.361,4.28-.26,4.28,2.472a9.472,9.472,0,0,1-4.28,7.417c-2.368,1.361-4.28.26-4.28-2.472A9.472,9.472,0,0,1,471.73,34.552Z" transform="translate(-436.61 -33.969)" fill="#afb4e2"/>
            <path id="XMLID_4247_" d="M456.89,43.1c2.368-1.361,4.28-.26,4.28,2.472a9.472,9.472,0,0,1-4.28,7.417c-2.368,1.361-4.28.26-4.28-2.472A9.476,9.476,0,0,1,456.89,43.1Z" transform="translate(-437.185 -33.638)" fill="#afb4e2"/>
            <path id="XMLID_4246_" d="M442.04,51.662c2.368-1.361,4.28-.26,4.28,2.472a9.472,9.472,0,0,1-4.28,7.417c-2.368,1.361-4.28.26-4.28-2.472A9.5,9.5,0,0,1,442.04,51.662Z" transform="translate(-437.76 -33.306)" fill="#afb4e2"/>
          </g>
          <path id="XMLID_4244_" d="M139.548,252.05l-5.339,3.085,2.036-3.916a.984.984,0,0,0,.042-.956c-.156-.187-.426-.052-.6.291l-2.9,5.578c0,.01,0,.01-.01.021a1.225,1.225,0,0,0-.073.208.15.15,0,0,0-.021.073,1.4,1.4,0,0,0-.042.291.629.629,0,0,0,.042.249c.01.021.021.021.021.042a.31.31,0,0,0,.073.114.01.01,0,0,0,.01.01l2.9,2.233a.234.234,0,0,0,.28,0,.92.92,0,0,0,.322-.415.861.861,0,0,0-.042-.914l-2.036-1.569,5.339-3.085a1.12,1.12,0,0,0,.426-.914C139.973,252.1,139.776,251.915,139.548,252.05Z" transform="translate(-117.537 -8.27)" fill="#455a64" opacity="0.5"/>
          <path id="XMLID_4223_" d="M143.6,249.725l5.339-3.085-2.036-1.569c-.177-.135-.2-.54-.042-.914s.426-.551.6-.415l2.9,2.233a.01.01,0,0,0,.01.01.429.429,0,0,1,.073.114.054.054,0,0,1,.021.042.831.831,0,0,1,.042.249.939.939,0,0,1-.042.291.15.15,0,0,0-.021.073,1.223,1.223,0,0,1-.073.208c0,.01,0,.01-.01.021l-2.9,5.578a.8.8,0,0,1-.28.322.23.23,0,0,1-.322-.042.984.984,0,0,1,.042-.956l2.036-3.916-5.339,3.085c-.239.135-.426-.052-.426-.415A1.12,1.12,0,0,1,143.6,249.725Z" transform="translate(-117.129 -8.521)" fill="#455a64" opacity="0.5"/>
          <path id="XMLID_4222_" d="M160.682,234.7c-.031-.322-.312-.28-.457.073l-.727,1.787c-1.246-.135-2.763,1.08-3.781,3.241-1.319,2.8-1.319,6.118,0,7.385a1.9,1.9,0,0,0,2.4.145,6.563,6.563,0,0,0,2.4-2.908.92.92,0,0,0,0-.935c-.166-.166-.436,0-.613.353-.987,2.088-2.6,3.023-3.584,2.067s-.987-3.428,0-5.516c.706-1.485,1.714-2.368,2.6-2.42l-.551,1.35c-.145.353-.01.675.208.53l2.181-1.423a.677.677,0,0,0,.239-.6Z" transform="translate(-116.681 -8.878)" fill="#455a64" opacity="0.5"/>
          <path id="XMLID_4221_" d="M215.88,192.055l1.953-4.124a1.272,1.272,0,0,0,0-1.288c-.229-.218-.6-.01-.831.478l-1.942,4.124-1.942-1.87c-.229-.218-.6-.01-.831.478a1.272,1.272,0,0,0,0,1.288l1.953,1.87-1.953,4.124a1.272,1.272,0,0,0,0,1.288.315.315,0,0,0,.415.021,1.06,1.06,0,0,0,.415-.509l1.942-4.124L217,195.68a.315.315,0,0,0,.415.021,1.06,1.06,0,0,0,.415-.509,1.272,1.272,0,0,0,0-1.288Z" transform="translate(-114.458 -10.734)" fill="#455a64" opacity="0.5"/>
          <path id="XMLID_4220_" d="M167.28,246.65v-6.887a7.542,7.542,0,0,1,3.407-5.9L476.761,57.247c1.88-1.08,3.407-.208,3.407,1.963V66.1a7.542,7.542,0,0,1-3.407,5.9L170.687,248.614C168.807,249.694,167.28,248.821,167.28,246.65Z" transform="translate(-116.195 -15.761)" fill="#fff"/>
          <g id="XMLID_4216_" transform="translate(353.928 44.528)">
            <path id="XMLID_4217_" d="M460.835,72.241a.627.627,0,0,1-.249-.052.79.79,0,0,1-.426-.883l.343-2.857c0-.01,0-.021.01-.021l-1.381-1a.771.771,0,0,1-.3-.644,1.381,1.381,0,0,1,.509-1.08l1.994-1.537a.453.453,0,0,0,.135-.229l.893-2.929a1.115,1.115,0,0,1,.883-.852.647.647,0,0,1,.644.395h0l.81,1.714,1.807-.7a.664.664,0,0,1,.748.166,1.089,1.089,0,0,1,.021,1.215l-1.444,2.711a.452.452,0,0,0-.062.249l.343,2.451a1.432,1.432,0,0,1-.384,1.111.816.816,0,0,1-.675.27l-1.787-.218-1.735,2.327A.876.876,0,0,1,460.835,72.241Zm-1.111-5.474,1.382,1a.834.834,0,0,1,.291.81l-.28,2.358,1.5-1.9a.859.859,0,0,1,.769-.374l1.787.218c-.031-.031.083-.239.062-.364l-.343-2.462a1.353,1.353,0,0,1,.156-.789l1.444-2.711-1.652.634a.661.661,0,0,1-.862-.343l-.748-1.579a.036.036,0,0,1-.01.021l-.893,2.929a1.36,1.36,0,0,1-.447.675l-1.994,1.537A.6.6,0,0,0,459.723,66.766Z" transform="translate(-458.83 -60.158)" fill="#e0e0e0"/>
          </g>
          <g id="XMLID_4071_" transform="translate(366.808 32.76)" opacity="0.5">
            <g id="XMLID_4207_" transform="translate(0)">
              <path id="XMLID_4214_" d="M472.4,56.714a1.164,1.164,0,0,1-1.018-.592,1.176,1.176,0,0,1,.436-1.61l9.577-5.526a1.18,1.18,0,1,1,1.174,2.046L473,56.558A1.2,1.2,0,0,1,472.4,56.714Z" transform="translate(-471.229 -48.829)" fill="#455a64"/>
            </g>
            <g id="XMLID_4201_" transform="translate(0 5.521)">
              <path id="XMLID_4203_" d="M472.4,62.034a1.164,1.164,0,0,1-1.018-.592,1.176,1.176,0,0,1,.436-1.61l9.577-5.526a1.18,1.18,0,1,1,1.174,2.046L473,61.878A1.2,1.2,0,0,1,472.4,62.034Z" transform="translate(-471.229 -54.144)" fill="#455a64"/>
            </g>
            <g id="XMLID_4072_" transform="translate(0 11.058)">
              <path id="XMLID_4073_" d="M472.4,67.364a1.164,1.164,0,0,1-1.018-.592,1.176,1.176,0,0,1,.436-1.61l9.577-5.526a1.18,1.18,0,1,1,1.174,2.046L473,67.208A1.2,1.2,0,0,1,472.4,67.364Z" transform="translate(-471.229 -59.474)" fill="#455a64"/>
            </g>
          </g>
          <path id="XMLID_4070_" d="M124.5,250.577v22.135l-6.4-3.687V246.9Z" transform="translate(-118.1 -8.397)" fill="#e0e0e0"/>
        </g>
        <g id="XMLID_3803_" transform="translate(264.223 82.373)">
          <g id="XMLID_8_">
            <path id="Path_2922" data-name="Path 2922" d="M372.969,172.358a.257.257,0,0,1-.343-.042.583.583,0,0,1-.156-.447,3.39,3.39,0,0,1,.021-.343l5.6-26.768a2.871,2.871,0,0,1,.3-.883,1.593,1.593,0,0,1,.634-.675l3.521-2.036c.27-.156.478-.177.634-.052a.9.9,0,0,1,.3.54l5.568,20.318a.824.824,0,0,1,.052.3,1.451,1.451,0,0,1-.156.623,1,1,0,0,1-.374.457l-2.929,1.693q-.358.2-.53.031a.738.738,0,0,1-.228-.364l-.925-3.2-6.357,3.667-.9,4.259a2.816,2.816,0,0,1-.218.623,1.327,1.327,0,0,1-.571.6Zm5.6-13.015,4.425-2.555-2.233-8.383Z" transform="translate(-372.47 -94.87)" fill="#fafaff"/>
            <path id="Path_2923" data-name="Path 2923" d="M397.6,158.379a3.392,3.392,0,0,1-2.223.592,2.453,2.453,0,0,1-1.465-.914v1.174a1.729,1.729,0,0,1-.177.758,1.136,1.136,0,0,1-.416.5l-2.69,1.558a.325.325,0,0,1-.426-.01.74.74,0,0,1-.166-.561V137.282a1.72,1.72,0,0,1,.166-.758,1.177,1.177,0,0,1,.426-.509l2.908-1.672a.325.325,0,0,1,.426.01.74.74,0,0,1,.166.561v7.842a11.432,11.432,0,0,1,1.444-2.389,7.039,7.039,0,0,1,2.036-1.776,3.7,3.7,0,0,1,2.109-.613,2.22,2.22,0,0,1,1.558.841,5.473,5.473,0,0,1,1,2.14,14.744,14.744,0,0,1,.405,3.324c.01.457.021.873.021,1.246s-.01.821-.021,1.319a21.516,21.516,0,0,1-.415,3.885,17.006,17.006,0,0,1-1.008,3.293,10.406,10.406,0,0,1-1.548,2.576A7.839,7.839,0,0,1,397.6,158.379Zm-1.288-4.176a3.473,3.473,0,0,0,1.267-1.246,5.824,5.824,0,0,0,.654-1.776,13.349,13.349,0,0,0,.249-2.088q.047-1.169,0-2.275a8.614,8.614,0,0,0-.249-1.8,1.541,1.541,0,0,0-.654-1.018c-.3-.166-.727-.093-1.267.218a3.515,3.515,0,0,0-1.215,1.195,5.857,5.857,0,0,0-.717,1.693,8.106,8.106,0,0,0-.26,1.859c-.01.478-.021.935-.021,1.371s.01.9.021,1.382a6.577,6.577,0,0,0,.239,1.693,1.553,1.553,0,0,0,.7.976C395.369,154.577,395.795,154.5,396.314,154.2Z" transform="translate(-371.789 -95.132)" fill="#fafaff"/>
            <path id="Path_2924" data-name="Path 2924" d="M410.375,150.854a5.441,5.441,0,0,1-3.365.956,2.754,2.754,0,0,1-2.1-1.631,9.608,9.608,0,0,1-.821-3.947c-.021-.478-.021-1.028-.021-1.652s.01-1.174.021-1.641a17.333,17.333,0,0,1,.862-4.934,13.7,13.7,0,0,1,2.129-4.051,11.4,11.4,0,0,1,3.293-2.9,5.36,5.36,0,0,1,3.324-.924,2.85,2.85,0,0,1,2.129,1.589,9.144,9.144,0,0,1,.862,3.937c.01.457.021,1,.021,1.62s-.01,1.184-.021,1.683a18.4,18.4,0,0,1-.821,4.892,12.941,12.941,0,0,1-2.1,4.051A11.508,11.508,0,0,1,410.375,150.854Zm0-4.477a3.544,3.544,0,0,0,1.558-1.891,10.59,10.59,0,0,0,.561-3.293c.01-.374.021-.873.021-1.485s-.01-1.091-.021-1.454a5.509,5.509,0,0,0-.561-2.628c-.322-.488-.841-.519-1.558-.1a3.613,3.613,0,0,0-1.548,1.9,9.83,9.83,0,0,0-.551,3.272c-.021.374-.021.873-.021,1.475s.01,1.1.021,1.454a5.123,5.123,0,0,0,.551,2.649C409.16,146.751,409.669,146.782,410.375,146.377Z" transform="translate(-371.246 -95.294)" fill="#fafaff"/>
            <path id="Path_2925" data-name="Path 2925" d="M423.034,143.615a2.99,2.99,0,0,1-2.42.447,2.836,2.836,0,0,1-1.652-1.849,11.822,11.822,0,0,1-.592-4.186V127.8a1.72,1.72,0,0,1,.166-.758,1.112,1.112,0,0,1,.426-.509l2.981-1.714a.326.326,0,0,1,.426.01.739.739,0,0,1,.166.561V135.4q0,3.6,2.1,2.379a3.844,3.844,0,0,0,1.558-1.839,7.216,7.216,0,0,0,.582-2.992V122.934a1.72,1.72,0,0,1,.166-.758,1.111,1.111,0,0,1,.426-.509l2.981-1.714a.326.326,0,0,1,.426.01.74.74,0,0,1,.166.561v17.233a1.72,1.72,0,0,1-.166.758,1.112,1.112,0,0,1-.426.509l-2.763,1.6a.326.326,0,0,1-.415-.021.738.738,0,0,1-.177-.561V138.65a10.445,10.445,0,0,1-1.61,2.929A8.124,8.124,0,0,1,423.034,143.615Z" transform="translate(-370.692 -95.69)" fill="#fafaff"/>
            <path id="Path_2926" data-name="Path 2926" d="M439.546,133.839a4.585,4.585,0,0,1-2.628.769,2.108,2.108,0,0,1-1.7-1.361,9.241,9.241,0,0,1-.592-3.781v-7.043l-1.859,1.07a.342.342,0,0,1-.436,0,.7.7,0,0,1-.177-.561v-2.971a1.729,1.729,0,0,1,.177-.758,1.128,1.128,0,0,1,.436-.509l1.859-1.07v-6.045a1.73,1.73,0,0,1,.177-.758,1.136,1.136,0,0,1,.415-.5l2.763-1.6a.325.325,0,0,1,.426.01.74.74,0,0,1,.166.561v6.045l2.981-1.714a.325.325,0,0,1,.426.01.784.784,0,0,1,.166.561v2.971a1.72,1.72,0,0,1-.166.758,1.111,1.111,0,0,1-.426.509l-2.981,1.714v6.523a3.834,3.834,0,0,0,.312,1.8c.208.374.561.415,1.049.125l1.839-1.059a.326.326,0,0,1,.426.01.739.739,0,0,1,.166.561v3.189a1.72,1.72,0,0,1-.166.758,1.111,1.111,0,0,1-.426.509Z" transform="translate(-370.158 -96.125)" fill="#fafaff"/>
            <path id="Path_2927" data-name="Path 2927" d="M453.314,126.135a2.99,2.99,0,0,1-2.42.447,2.836,2.836,0,0,1-1.652-1.849,11.822,11.822,0,0,1-.592-4.186V110.315a1.72,1.72,0,0,1,.166-.758,1.112,1.112,0,0,1,.426-.509l2.981-1.714a.326.326,0,0,1,.426.01.739.739,0,0,1,.166.561v10.013q0,3.6,2.1,2.379a3.843,3.843,0,0,0,1.558-1.839,7.054,7.054,0,0,0,.582-2.992V105.454a1.72,1.72,0,0,1,.166-.758,1.112,1.112,0,0,1,.426-.509l2.981-1.714a.326.326,0,0,1,.426.01.74.74,0,0,1,.166.561v17.233a1.72,1.72,0,0,1-.166.758,1.112,1.112,0,0,1-.426.509l-2.763,1.6a.326.326,0,0,1-.416-.021.739.739,0,0,1-.177-.561V121.17a10.444,10.444,0,0,1-1.61,2.929A8.286,8.286,0,0,1,453.314,126.135Z" transform="translate(-369.519 -96.367)" fill="#fafaff"/>
            <path id="Path_2928" data-name="Path 2928" d="M468.575,117.23a6.762,6.762,0,0,1-2.628.987,3.085,3.085,0,0,1-1.766-.28,2.415,2.415,0,0,1-1.008-1.008,2.785,2.785,0,0,1-.353-1.2,1.625,1.625,0,0,1,.166-.779,1.119,1.119,0,0,1,.405-.509l2.711-1.568c.052-.031.083-.042.114-.031a1.192,1.192,0,0,1,.145.062,2.066,2.066,0,0,1,.623.28,1.806,1.806,0,0,0,.717.27,1.571,1.571,0,0,0,.976-.27,3.377,3.377,0,0,0,1.122-1.049,2.579,2.579,0,0,0,.457-1.475,1.33,1.33,0,0,0-.218-.852,1.072,1.072,0,0,0-.873-.249,8.344,8.344,0,0,0-1.963.405,5.227,5.227,0,0,1-2.171.093A2.039,2.039,0,0,1,463.6,109a5.121,5.121,0,0,1-.5-2.514,9.576,9.576,0,0,1,.613-3.179,12.188,12.188,0,0,1,1.807-3.262,9.934,9.934,0,0,1,2.929-2.555,5.964,5.964,0,0,1,2.389-.883,3.09,3.09,0,0,1,1.714.27,2.525,2.525,0,0,1,1.06.966A2.681,2.681,0,0,1,474,99.093a1.429,1.429,0,0,1-.145.727,1.053,1.053,0,0,1-.384.5l-2.472,1.433a.321.321,0,0,1-.187.052.4.4,0,0,1-.166-.031,1.556,1.556,0,0,1-.571-.26,1.579,1.579,0,0,0-.665-.27,1.449,1.449,0,0,0-.956.26,2.609,2.609,0,0,0-1,1.018,2.752,2.752,0,0,0-.353,1.34,1.2,1.2,0,0,0,.208.758c.135.2.415.28.831.249a10.013,10.013,0,0,0,1.963-.405,4.166,4.166,0,0,1,2.618-.208,2.207,2.207,0,0,1,1.382,1.288,5.82,5.82,0,0,1,.405,2.275,9.751,9.751,0,0,1-.675,3.511,11.072,11.072,0,0,1-2.015,3.272A12.7,12.7,0,0,1,468.575,117.23Z" transform="translate(-368.97 -96.592)" fill="#fafaff"/>
          </g>
        </g>
        <g id="XMLID_3542_" transform="translate(22.437 170.754)">
          <path id="XMLID_3210_" d="M140,346.463,244.2,286.31V456.164L139.7,516.151Z" transform="translate(-139.7 -177.624)" fill="#555a75" opacity="0.1"/>
          <g id="XMLID_3281_" transform="translate(122.872)">
            <path id="XMLID_3211_" d="M262.58,279.29l125.7-72.566c2.524-1.454,4.57-.353,4.57,2.472a10.041,10.041,0,0,1-4.56,7.78L262.57,290.363c-2.524,1.475-4.56.3-4.56-2.618v-.53A10.053,10.053,0,0,1,262.58,279.29Z" transform="translate(-257.989 -180.732)" fill="#555a75" opacity="0.15"/>
            <path id="XMLID_3279_" d="M261.272,302.225,469.259,182.148c1.807-1.039,3.262-.3,3.262,1.652a7,7,0,0,1-3.272,5.422L261.262,309.3c-1.807,1.039-3.272.3-3.272-1.652A7.008,7.008,0,0,1,261.272,302.225Z" transform="translate(-257.99 -181.677)" fill="#555a75" opacity="0.1"/>
            <path id="XMLID_3283_" d="M261.272,315.905,469.259,195.828c1.807-1.039,3.262-.3,3.262,1.652a7,7,0,0,1-3.272,5.422L261.262,322.979c-1.807,1.039-3.272.3-3.272-1.652A7.008,7.008,0,0,1,261.272,315.905Z" transform="translate(-257.99 -181.147)" fill="#555a75" opacity="0.1"/>
            <path id="XMLID_3291_" d="M261.272,329.575,469.258,209.5c1.807-1.039,3.262-.3,3.262,1.652a7,7,0,0,1-3.272,5.422L261.272,336.66c-1.807,1.039-3.272.3-3.272-1.652A7.031,7.031,0,0,1,261.272,329.575Z" transform="translate(-257.99 -180.617)" fill="#555a75" opacity="0.1"/>
            <path id="XMLID_3292_" d="M261.272,343.255,469.259,223.178c1.807-1.039,3.262-.3,3.262,1.652a7,7,0,0,1-3.272,5.422L261.262,350.329c-1.807,1.039-3.272.3-3.272-1.652A7.024,7.024,0,0,1,261.272,343.255Z" transform="translate(-257.99 -180.088)" fill="#555a75" opacity="0.1"/>
            <path id="XMLID_3293_" d="M261.272,355.607l145.111-84.449c1.807-1.039,3.262-.3,3.262,1.652a7,7,0,0,1-3.272,5.422L261.262,362.681c-1.807,1.039-3.272.3-3.272-1.652A7.024,7.024,0,0,1,261.272,355.607Z" transform="translate(-257.99 -178.229)" fill="#555a75" opacity="0.1"/>
            <path id="XMLID_3543_" d="M261.272,384.3,469.259,264.218c1.807-1.039,3.262-.3,3.262,1.652a7,7,0,0,1-3.272,5.422L261.262,391.369c-1.807,1.039-3.272.3-3.272-1.652A7.008,7.008,0,0,1,261.272,384.3Z" transform="translate(-257.99 -178.498)" fill="#555a75" opacity="0.1"/>
            <path id="XMLID_3544_" d="M261.272,397.975,469.259,277.9c1.807-1.039,3.262-.3,3.262,1.652a7,7,0,0,1-3.272,5.422L261.262,405.049c-1.807,1.039-3.272.3-3.272-1.652A7.008,7.008,0,0,1,261.272,397.975Z" transform="translate(-257.99 -177.968)" fill="#555a75" opacity="0.1"/>
            <path id="XMLID_3553_" d="M261.272,411.655,469.259,291.578c1.807-1.039,3.262-.3,3.262,1.652a7,7,0,0,1-3.272,5.422L261.262,418.729c-1.807,1.039-3.272.3-3.272-1.652A7.035,7.035,0,0,1,261.272,411.655Z" transform="translate(-257.99 -177.438)" fill="#555a75" opacity="0.1"/>
            <path id="XMLID_3554_" d="M261.272,422.521l76.409-44.6c1.807-1.039,3.262-.3,3.262,1.652a7,7,0,0,1-3.272,5.422l-76.409,44.6c-1.807,1.039-3.272.3-3.272-1.652A7.035,7.035,0,0,1,261.272,422.521Z" transform="translate(-257.99 -174.094)" fill="#555a75" opacity="0.1"/>
          </g>
        </g>
      </g>
    </g>
    <g id="Character_3" transform="translate(507.178 202.174)">
      <g id="XMLID_3461_">
        <g id="XMLID_3988_" transform="translate(0 85.47)">
          <path id="XMLID_3991_" d="M530.265,344.813c11.052-35.888,21.813-59.52,10.855-66.843h0c-10.211,1.891-14.781,6.939-16.952,20.4-2.275,14.116-7.011,33.78-9.775,45.143a133.688,133.688,0,0,1-10.19,27.4,5.775,5.775,0,0,1-3.012,2.649c-3.407,1.33-5.048,3.075-7.822,5.059-2.181,1.558-3.781,1.724-3.677,2.379.125.841,1.111,2.348,3.417,2.1a21.156,21.156,0,0,0,4.757-1.527,23.688,23.688,0,0,1-5.952,8.694c-5.339,4.467-4.55,8.944,4.061,9.463,3.085.187,10.221-2.628,16.838-13.9a110.638,110.638,0,0,0,5.9-12.995C523.327,361.318,528.053,351.99,530.265,344.813Z" transform="translate(-488.555 -277.546)" fill="#ffa8a7"/>
          <path id="XMLID_3990_" d="M541.966,277.57s-8.507-.447-13.659,5.246-11.177,39.669-11.177,39.669,5.651,7.759,20.536,4.581Z" transform="translate(-487.449 -277.562)" fill="#bc5efc"/>
          <path id="XMLID_3989_" d="M541.966,277.57s-8.507-.447-13.659,5.246-11.177,39.669-11.177,39.669,5.651,7.759,20.536,4.581Z" transform="translate(-487.449 -277.562)" fill="#bc5efb" opacity="0.3"/>
        </g>
        <g id="XMLID_3945_" transform="translate(16.005 150.046)">
          <rect id="XMLID_3987_" width="11.426" height="20.37" transform="translate(66.901 176.492)" fill="#ffa8a7"/>
          <path id="XMLID_3986_" d="M541.677,509.394l-11.416.416-.571-21.564,11.987-.405Z" transform="translate(-502.967 -333.993)" fill="#ffa8a7"/>
          <path id="XMLID_3985_" d="M583.159,339.855c0,11.364-1.672,102.8-1.672,102.8.27,3.272,3.21,9.3,2.576,21.855-.862,17.056-2.015,61.888-2.015,61.888a14.5,14.5,0,0,1-12.725.26s-10.8-62.085-12.849-79c-1.786-14.75-4.82-64.433-4.82-64.433L545.463,441a70.172,70.172,0,0,1,1.413,18.915c-.53,7.822-4.207,48.54-4.207,48.54s-5.381,3.8-13.192,1.049c0,0-6.5-61.327-6.627-68.5-.145-8.175,3.8-101.266,3.8-101.266Z" transform="translate(-503.232 -339.73)"/>
          <path id="XMLID_3984_" d="M569.044,523.654v-1.7c-1.091.5-3.636,10.585-8.165,14.9-3.6,3.428-8.518,7.375-9.774,11.2-1.3,3.968,6.845,6.16,10.211,5.536,3.916-.717,10.689-3.594,12.392-6.253s2.5-6.586,3.885-8.528,4.57-4.124,5.318-6.378c.416-1.236-.073-3.958-.654-6.243-.53-2.109-1.1-4.415-1.8-4.217v1.3c-.831.956-3.127,1.911-5.713,2.015C573.085,525.336,569.023,524.983,569.044,523.654Z" transform="translate(-502.143 -332.672)" fill="#263238"/>
          <path id="XMLID_3983_" d="M531.133,505.479c-.592.021-1.08.893-2.389,2.368a24.847,24.847,0,0,1-6.721,5.038c-4.28,2.233-12.6,5.661-16.36,7.427-2.348,1.1-2.244,4.061.187,5.744s8.3,2.9,15.342,1.257c3.843-.893,8.84-4.591,12-4.383s9.079.156,11.416-1.527,1.4-5.256.738-8.331c-.717-3.355-1.62-8.59-2.69-8.362v1.153c-1.371,2.171-8.466,3.043-11.478,1.454Z" transform="translate(-503.963 -333.34)" fill="#263238"/>
          <path id="XMLID_3980_" d="M551.173,381.974a41.848,41.848,0,0,1-15.914-9.5s3.075,5.983,12.195,11.561L545.5,435.615Z" transform="translate(-502.751 -338.462)" fill="#263238"/>
        </g>
        <g id="XMLID_3920_" transform="translate(37.981 85.125)">
          <path id="XMLID_3931_" d="M577.129,280.294s8.944.821,8.31,17.846l-1.974,27.132.052,40.718c-8.4,9.515-45.642,8.819-58.4-.758,0,0,1.444-48.187,2.306-66.728.613-13.182,3.646-19.819,16.6-21.273l15.934.7Z" transform="translate(-525.12 -277.23)" fill="#bf00ff"/>
          <path id="XMLID_3921_" d="M551,288.78l-2.046,14.3L544.18,303l5.391.841Z" transform="translate(-524.382 -276.783)" opacity="0.3"/>
        </g>
        <g id="XMLID_3860_" transform="translate(39.878 26.332)">
          <path id="XMLID_3880_" d="M563.49,243.89c0,9.785-7.614,17.71-17,17.71s-16.589-7.936-17-17.71c-.748-17.295,7.614-17.71,17-17.71S563.49,234.106,563.49,243.89Z" transform="translate(-526.85 -220.414)" fill="#263238"/>
          <g id="XMLID_3871_">
            <path id="XMLID_3879_" d="M571.816,251.69s-2.607,12.766-3.656,14.864a5.564,5.564,0,0,1-3.21,2.69l.187-8.985Z" transform="translate(-525.475 -219.426)" fill="#263238"/>
            <path id="XMLID_3878_" d="M568.461,234.081s1.87-.467,3.854,2.638c1.7,2.659,2.088,8.642-.582,15.654l-4.913.592Z" transform="translate(-525.402 -220.109)" fill="#263238"/>
            <path id="XMLID_3877_" d="M566.717,253.258c.987.613,2.389-1.361,3.6-2.68s5.183-3.137,7.157,1.2c2.015,4.425-1.745,10.273-4.872,11.291-5.381,1.755-6.191-1.839-6.191-1.839L566,281.459c-7.147,11.052-23.33,10.657-17.513-.53l.01-6.149s-4.872.769-7.25.384c-3.958-.634-6.451-3.885-7.645-8.351-1.932-7.167-2.659-12.953-1.028-27.049,1.8-15.446,19.05-15.612,28.368-9.5S566.717,253.258,566.717,253.258Z" transform="translate(-526.764 -220.401)" fill="#ffa8a7"/>
            <path id="XMLID_3876_" d="M565.4,275.188a25.932,25.932,0,0,1-7,8.767,19.767,19.767,0,0,1-8.466,3.594s4.2,2.773,5.973,6.71,14.355-6.887,14.241-14.563c0,0-1.974-7.707-4.674-8.206Z" transform="translate(-526.056 -218.659)" fill="#263238"/>
            <path id="XMLID_3875_" d="M550.248,287.492s-3.874-1.922-2.14-8.372l.01-6.149-1.7.229a14.869,14.869,0,0,0-4.082,7.074c-.384,1.766-1.34,10.689.353,12.465C544.255,294.358,546.779,287.969,550.248,287.492Z" transform="translate(-526.375 -218.602)" fill="#263238"/>
            <path id="XMLID_3874_" d="M560.283,236.637a2.607,2.607,0,0,1,1.33.083c1.465.665,1.776,5.214,2.036,6.523.862,4.425,1.579,11.925,3.251,11.956.5.01,2.379-3.251,3.6-4.4,1.7-1.61-.488-16.194-.488-16.194a7.129,7.129,0,0,0-1.641-7.375c-3.054-3.511-7.863-4.28-12.257-4.519-5.173-.28-10.429.1-15.529-1.028a41.325,41.325,0,0,0-4.861-1.039.6.6,0,0,0-.447.073c-.166.135-.145.395-.1.6a15.592,15.592,0,0,0,1.61,4.373,39.757,39.757,0,0,1-8.943-1.755.863.863,0,0,0-.509-.052c-.343.1-.405.561-.384.914.208,3.667,1.942,9.172,4.913,11.333a17.143,17.143,0,0,0,8.829,2.784C548.7,239.109,553.666,237.426,560.283,236.637Z" transform="translate(-526.947 -220.629)" fill="#263238"/>
            <path id="XMLID_3873_" d="M568.4,235.017l5.962-3.334a3.23,3.23,0,0,0-4.508-1.558A3.8,3.8,0,0,0,568.4,235.017Z" transform="translate(-525.355 -220.277)" fill="#263238"/>
            <path id="XMLID_3872_" d="M547.89,273.267s8.84-1.849,11.925-3.563a10.361,10.361,0,0,0,4.269-4.4,14.83,14.83,0,0,1-2.431,5.194c-2.254,3.012-13.763,5.225-13.763,5.225Z" transform="translate(-526.135 -218.899)" fill="#f28f8f"/>
          </g>
          <g id="XMLID_3861_" transform="translate(7.208 20.835)">
            <path id="XMLID_3870_" d="M549.93,250.112a1.772,1.772,0,1,0,1.766-1.922A1.84,1.84,0,0,0,549.93,250.112Z" transform="translate(-533.265 -240.396)" fill="#263238"/>
            <path id="XMLID_3869_" d="M552.67,242.736l3.791,2.181a2.4,2.4,0,0,0-.883-3.137A2.07,2.07,0,0,0,552.67,242.736Z" transform="translate(-533.159 -240.655)" fill="#263238"/>
            <path id="XMLID_3868_" d="M548.811,262.31l-4.041,1.579a2.1,2.1,0,0,0,2.742,1.392A2.391,2.391,0,0,0,548.811,262.31Z" transform="translate(-533.465 -239.85)" fill="#f28f8f"/>
            <path id="XMLID_3864_" d="M534.306,244.4l3.459-2.773a2.038,2.038,0,0,0-3-.478A2.448,2.448,0,0,0,534.306,244.4Z" transform="translate(-533.886 -240.687)" fill="#263238"/>
            <path id="XMLID_3863_" d="M535.75,249.612a1.772,1.772,0,1,0,1.766-1.922A1.84,1.84,0,0,0,535.75,249.612Z" transform="translate(-533.814 -240.416)" fill="#263238"/>
            <path id="XMLID_3862_" d="M545.114,248.11l-.2,11.187-6.347-1.454Z" transform="translate(-533.705 -240.4)" fill="#f28f8f"/>
          </g>
        </g>
        <g id="XMLID_3463_" transform="translate(86.719)">
          <path id="XMLID_3856_" d="M591.98,258.961c2.545-3.376,7.707,4.124,10.1,9.3s2.42,8.1.467,10.159-5.651.81-9.359-4.093S590.525,261.465,591.98,258.961Z" transform="translate(-571.32 -192.845)" fill="#27debf"/>
          <path id="XMLID_3854_" d="M591.98,258.961c2.545-3.376,7.707,4.124,10.1,9.3s2.42,8.1.467,10.159-5.651.81-9.359-4.093S590.525,261.465,591.98,258.961Z" transform="translate(-571.32 -192.845)" opacity="0.5"/>
          <g id="XMLID_3852_" transform="translate(1.435)">
            <path id="XMLID_3853_" d="M610.6,262.4c-9,21.18-21.647,33.021-27.308,46.618-7.417-.509-13.192-18.4-7.676-26.062,0,0,21.7-23.5,23.662-32.731,1.745-8.2,4.093-21.72,3.885-28.638a4.792,4.792,0,0,0-1.33-3.075c-2.275-2.451-2.275-4.415-3.739-7.126-1.143-2.109-2.389-2.9-2.036-3.376a2.727,2.727,0,0,1,3.7-.27,14.027,14.027,0,0,1,2.8,2.69,15.583,15.583,0,0,0-1.278-7.936c-2.524-5.7-1.911-8.6,5.775-6.575,4.82,1.267,7.842,5.287,8.57,16.869a114.74,114.74,0,0,1,.083,14.47c-.831,8.912-1.371,18.209-2.472,25.594A39.334,39.334,0,0,1,610.6,262.4Z" transform="translate(-573.422 -195.279)" fill="#ffa8a7"/>
          </g>
          <path id="XMLID_3683_" d="M573.473,280.756l19.144-21.876s-2.275,5.339,2.711,13.1,7.946,6.419,7.946,6.419-11.3,16.5-14.324,22.011-6.17,10.18-6.17,10.18a3.62,3.62,0,0,1-3.573,1.953C576.382,312.531,568.934,300.066,573.473,280.756Z" transform="translate(-572.041 -192.816)" fill="#bc5efb"/>
          <path id="XMLID_3464_" d="M573.473,280.756l19.144-21.876s-2.275,5.339,2.711,13.1,7.946,6.419,7.946,6.419-11.3,16.5-14.324,22.011-6.17,10.18-6.17,10.18a3.62,3.62,0,0,1-3.573,1.953C576.382,312.531,568.934,300.066,573.473,280.756Z" transform="translate(-572.041 -192.816)" fill="#bc5efb" opacity="0.3"/>
        </g>
      </g>
    </g>
    <g id="Character_2" transform="translate(339.835 253.436)">
      <g id="XMLID_3992_" transform="translate(0)">
        <g id="XMLID_4622_" transform="translate(70.735 58.575)">
          <g id="XMLID_4625_" transform="translate(16.35 27.277)">
            <path id="XMLID_4626_" d="M424.43,327.28l9.016,12-9.681,11.1L411.29,335.787Z" transform="translate(-411.29 -327.28)" fill="#f28f8f"/>
          </g>
          <g id="XMLID_4623_">
            <path id="XMLID_4624_" d="M395.55,301.02c7.863.364,11.6,1.579,15.726,6.43,4.02,4.737,24.7,34.611,24.7,34.611s-3.636,10.2-11.6,9.328l-14.48-14.927Z" transform="translate(-395.55 -301.02)" fill="#bc5efa"/>
          </g>
        </g>
        <g id="XMLID_4609_" transform="translate(28.722 129.063)">
          <g id="XMLID_4617_" transform="translate(0.827 133.145)">
            <path id="XMLID_4619_" d="M358.5,540.88a57.648,57.648,0,0,0-.9,9.463c-.114,5.744-1.163,7.78-1.309,12.5-.156,5.391.769,7.406,2.96,10.429s7.926,5.775,10.346.654c2.451-5.183,2.109-8.476,1.34-13.753-.8-5.464-.9-8.486-1.371-12.652-.405-3.677-.9-6.461-.9-6.461Z" transform="translate(-355.885 -495.363)" fill="#263238"/>
            <path id="XMLID_4618_" d="M374.826,497.4,355.9,497.06c.28,12.631,2.285,33.666,2.618,45.517.062,2.233-.052,17.336.789,21.928,1.267,6.9,9.453,5.962,9.889,1.839s-.53-21.761-.5-23.59c-.073-7.6,3.49-27.443,5.36-41.093C374.14,501,374.743,498.057,374.826,497.4Z" transform="translate(-355.9 -497.06)" fill="#ffbda7"/>
          </g>
          <g id="XMLID_4612_" transform="translate(43.82 133.145)">
            <path id="XMLID_4614_" d="M400.995,531.42s-.976.052-1.132.852c-.187.945-.229,2.451-.623,4.01a22.466,22.466,0,0,0-.675,7.489c.332,1.766,4.352,4.394,7.1,4.851s6.638,3.189,8.8,5.214a21.09,21.09,0,0,0,12.236,4.809c4.6-.031,7.8-1.527,9.317-3.989,1.579-2.566-1.382-2.763-6.638-6.17-1.195-.779-2.555-1.652-4.082-2.649-8.32-5.443-11.374-8.351-13.722-13.794Z" transform="translate(-397.245 -495.729)" fill="#263238"/>
            <path id="XMLID_4613_" d="M411.7,529.791c-.135-3.916,1.87-32.731,1.87-32.731l-16.277,1.828c3.854,22.977,4.165,30.8,3.719,34.143h0a3.344,3.344,0,0,0-.1.966c.021,4.467,5.048,6.866,8.985,9.847,1.548,1.174,5.536,4.8,10.221,6.388,3.023,1.028,8.622,1.423,9.338-.416-4.778-3.656-11.291-8.424-15.093-12.589C412.528,535.234,411.843,533.707,411.7,529.791Z" transform="translate(-397.29 -497.06)" fill="#ffbda7"/>
          </g>
          <path id="XMLID_4611_" d="M360.325,371.705c-8.881,19.393.322,87.732.322,87.732-.27,3.147-3.864,9.338-5.2,23.195-1.589,16.37,2.929,60.195,2.929,60.195s4.321,3.231,10.6.229c0,0,11.457-64.391,13.514-80.668,1.787-14.2,5.235-45.434,5.235-45.434l9.775,45.362a83.842,83.842,0,0,0-3.1,14.023c-.924,9.577,8.393,57.619,8.393,57.619s4.363,2.306,10.564-.208c0,0,4.134-62.075,5-73.6,1.454-19.372-3.687-79.806-7.24-91.263Z" transform="translate(-355.104 -368.88)" fill="#27debf"/>
          <path id="XMLID_3191_" d="M360.325,371.705c-8.881,19.393.322,87.732.322,87.732-.27,3.147-3.864,9.338-5.2,23.195-1.589,16.37,2.929,60.195,2.929,60.195s4.321,3.231,10.6.229c0,0,11.457-64.391,13.514-80.668,1.787-14.2,5.235-45.434,5.235-45.434l9.775,45.362a83.842,83.842,0,0,0-3.1,14.023c-.924,9.577,8.393,57.619,8.393,57.619s4.363,2.306,10.564-.208c0,0,4.134-62.075,5-73.6,1.454-19.372-3.687-79.806-7.24-91.263Z" transform="translate(-355.104 -368.88)" fill="#4e0070"/>
          <path id="XMLID_4610_" d="M386.49,416.12l2.888-18.022s12.195-2.524,17.731-7.728c0,0-5.807,7.219-14.428,9.588l-3.241,13.867,5.661,42Z" transform="translate(-353.888 -368.048)" opacity="0.2"/>
        </g>
        <g id="XMLID_4360_" transform="translate(31.128)">
          <g id="XMLID_4362_">
            <path id="XMLID_4377_" d="M364.51,314.441l12.081,3.147V292.046h0c-6.679-1.735-12.081,2.109-12.081,8.6Z" transform="translate(-357.145 -242.809)" fill="#27debf"/>
            <path id="XMLID_6_" d="M364.51,314.441l12.081,3.147V292.046h0c-6.679-1.735-12.081,2.109-12.081,8.6Z" transform="translate(-357.145 -242.809)" opacity="0.6"/>
            <path id="XMLID_4608_" d="M388.554,297.5l-4.332-.1c-13.213-.3-23.683-11.707-23.392-25.47h0c-.073-15,11.613-27.215,26.01-27.3h0c14.4-.083,26.135,12.018,26.207,27.018l-.042,1.548C412.674,286.938,401.746,297.8,388.554,297.5Z" transform="translate(-357.288 -244.63)" fill="#27debf"/>
            <path id="XMLID_5_" d="M388.554,297.5l-4.332-.1c-13.213-.3-23.683-11.707-23.392-25.47h0c-.073-15,11.613-27.215,26.01-27.3h0c14.4-.083,26.135,12.018,26.207,27.018l-.042,1.548C412.674,286.938,401.746,297.8,388.554,297.5Z" transform="translate(-357.288 -244.63)" opacity="0.6"/>
            <path id="XMLID_2865_" d="M368.355,250.784a3.265,3.265,0,0,0-4.186-2.348l1.153,4.456a3.4,3.4,0,0,0-.873-.758,3.216,3.216,0,0,0-4.539,1.454l5.89,3.469a3.83,3.83,0,0,0,.395-1.932A3.72,3.72,0,0,0,368.355,250.784Z" transform="translate(-357.324 -244.488)" fill="#27debf"/>
            <path id="XMLID_1_" d="M368.355,250.784a3.265,3.265,0,0,0-4.186-2.348l1.153,4.456a3.4,3.4,0,0,0-.873-.758,3.216,3.216,0,0,0-4.539,1.454l5.89,3.469a3.83,3.83,0,0,0,.395-1.932A3.72,3.72,0,0,0,368.355,250.784Z" transform="translate(-357.324 -244.488)" opacity="0.6"/>
            <g id="XMLID_4372_" transform="translate(0 58.097)">
              <path id="XMLID_4374_" d="M375.588,302.077s-8.736,1.236-12.081,2.327c4.674,11.478-2.659,29.2-2.659,29.2l6.918,21.315c-4.778,9.8-8.725,14.657-10.346,22.613,4.4,8.6,35.5,16.817,55.749,1.132,0,0-.654-21.782-3.23-34.465,6.627-12.932,5.547-16.734,4.2-21.242-3.147-10.491-9.515-14.522-17.108-21.917l-4.581-.478Z" transform="translate(-357.42 -300.56)" fill="#bf00ff"/>
            </g>
            <path id="XMLID_1928_" d="M368.576,363.041c3.75-3.854,11.717-4.955,11.717-4.955l-7.3-4.165-8.2-19.767a45.14,45.14,0,0,0,4.924-21.751l-4.7-1.132c.571,10.45-4.165,21.907-4.165,21.907l6.918,21.315c-4.778,9.8-8.725,14.657-10.346,22.613,3.012,5.89,18.541,11.592,34.528,9.577C370.529,385.249,364.95,366.749,368.576,363.041Z" transform="translate(-357.42 -242.048)" fill="#263238"/>
            <g id="XMLID_3196_" transform="translate(32.793 144.727)">
              <path id="XMLID_3198_" d="M388.99,384.053l.873-.094A6.449,6.449,0,0,0,388.99,384.053Z" transform="translate(-388.99 -383.96)" fill="#e6e6e6"/>
            </g>
            <g id="XMLID_4363_" transform="translate(10.354 13.4)">
              <path id="XMLID_4371_" d="M403.06,257.53c2.6,2.389,5.848,7.562,5.588,22.686-.218,12.818-4.2,16.007-6.191,16.931s-5.869.395-9.619-.239l-.042,5.308s4.955,5.495,4.643,9.027-7.053,5-11.925,1.579a45.948,45.948,0,0,1-9.027-9.131l-.052-16.132s-2.2,2.244-5.962-1.143c-3.106-2.8-4.176-7.541-1.776-10.107a5.286,5.286,0,0,1,8.59,1.735,48.879,48.879,0,0,0,16.474-4.851C400.765,269.527,403.569,262.911,403.06,257.53Z" transform="translate(-367.388 -257.53)" fill="#ffbda7"/>
              <path id="XMLID_4370_" d="M392,276.609a1.55,1.55,0,1,1-1.631-1.589A1.611,1.611,0,0,1,392,276.609Z" transform="translate(-366.554 -256.853)" fill="#263238"/>
              <path id="XMLID_4369_" d="M392.443,286.89l4.03,1.309a2.062,2.062,0,0,1-2.607,1.517A2.3,2.3,0,0,1,392.443,286.89Z" transform="translate(-366.42 -256.393)" fill="#f79776"/>
              <path id="XMLID_4368_" d="M405.976,271.078l-3.656-1.246a1.785,1.785,0,0,1,2.327-1.288A2.119,2.119,0,0,1,405.976,271.078Z" transform="translate(-366.034 -257.107)" fill="#263238"/>
              <path id="XMLID_4367_" d="M376.932,275.81l-.042,5.422a2.555,2.555,0,0,0,2.649-2.586A2.806,2.806,0,0,0,376.932,275.81Z" transform="translate(-367.019 -256.822)" fill="#27debf"/>
              <path id="XMLID_7_" d="M376.932,275.81l-.042,5.422a2.555,2.555,0,0,0,2.649-2.586A2.806,2.806,0,0,0,376.932,275.81Z" transform="translate(-367.019 -256.822)" opacity="0.6"/>
              <path id="XMLID_4366_" d="M404.745,276.1a1.55,1.55,0,1,1-1.631-1.589A1.611,1.611,0,0,1,404.745,276.1Z" transform="translate(-366.06 -256.872)" fill="#263238"/>
              <path id="XMLID_4365_" d="M396.352,273.92l-.042,10.512,4.9-1.61Z" transform="translate(-366.267 -256.895)" fill="#f79776"/>
              <path id="XMLID_4364_" d="M392.38,295.673c-3.958-.519-12.112-2.908-13.4-6.253a8.717,8.717,0,0,0,2.877,4.259c2.441,2.161,10.5,4.581,10.5,4.581Z" transform="translate(-366.939 -256.295)" fill="#f79776"/>
            </g>
          </g>
        </g>
        <g id="XMLID_4067_" transform="translate(0 61.442)">
          <path id="XMLID_4359_" d="M345.941,353.69s9.681,13.753,11.353,15.55,2.794,1.2,4.6.395a52.612,52.612,0,0,1,6.731-2.2c2.96-.737,3.594,1.994.665,3.947-2.119,1.413-4.55,2.026-3.532,3.179a22.729,22.729,0,0,0,7.063,4.332c7.147,2.815,6.6,4.228,5.277,6.544-1.143,2.015-4.487,6.367-17.264,1.226-5.277-2.119-12.7-8.133-16.2-12.018-5.059-5.6-12.943-15.633-12.943-15.633Z" transform="translate(-327.289 -301.847)" fill="#ffbda7"/>
          <path id="XMLID_4358_" d="M366.527,303.78c-3.511.239-10.1,1.08-18.365,14.812-7.25,12.039-18.49,28.378-20.577,34.226-.841,2.358,2.451,7.271,6.679,12.288,5.786-.249,11.052-4.248,13.784-7.448a27.649,27.649,0,0,0-2.67-4.851l16.963-19.341s6.44-5.9,7.791-13.628C371.586,311.56,371.139,305.006,366.527,303.78Z" transform="translate(-327.453 -303.78)" fill="#bc5efa"/>
        </g>
        <g id="XMLID_3993_" transform="translate(80.707 86.853)">
          <g id="XMLID_4063_" transform="translate(0 0.629)">
            <path id="XMLID_4065_" d="M458.479,328.85l-41.819,11.011L405.15,387.175l39.752-11.54Z" transform="translate(-405.15 -328.85)" fill="#858fd6"/>
            <path id="XMLID_4064_" d="M458.479,328.85l-41.819,11.011L405.15,387.175l39.752-11.54Z" transform="translate(-405.15 -328.85)" fill="#858fd6" opacity="0.25"/>
          </g>
          <g id="XMLID_4061_" transform="translate(34.434 34.139)" opacity="0.1">
            <path id="XMLID_4062_" d="M438.3,361.11a8.287,8.287,0,0,0,7.822,4.674l.3-1.049Z" transform="translate(-438.3 -361.11)"/>
          </g>
          <g id="XMLID_4055_" transform="translate(22.915 5.865)" opacity="0.1">
            <path id="XMLID_4056_" d="M445.024,336.175s.156-.717.343-1.6-2.264-.914-5.485-.083l-6.16,1.6c-3.22.831-5.983,2.223-6.17,3.106l-.343,1.6Z" transform="translate(-427.21 -333.891)"/>
          </g>
          <g id="XMLID_4000_" transform="translate(22.167)">
            <path id="XMLID_4001_" d="M448.262,330.39c.125-.551-.873-.7-2.223-.322l-2.441.675s.727-3.449-4.685-2.244-6.6,5.121-6.6,5.121-1.163.332-2.607.738-2.742,1.184-2.908,1.735l-.312,1,21.543-5.671S448.148,330.941,448.262,330.39Z" transform="translate(-426.49 -328.244)" fill="#37474f"/>
          </g>
          <g id="XMLID_3998_" transform="translate(26.675 3.205)">
            <path id="XMLID_3999_" d="M445.133,331.974c-1.974.478-2.794.738-3.085,2.1-.332,1.548-.478,2.69-.478,2.69l-9.536,2.524s.457-1.963.613-2.732-.177-1.226-1.693-.821l-.125-.6,14.937-3.8Z" transform="translate(-430.83 -331.33)" fill="#37474f"/>
          </g>
          <g id="XMLID_3996_" transform="translate(23.486 6.011)">
            <path id="XMLID_3997_" d="M445.574,336.315s.156-.717.343-1.6-2.264-.914-5.485-.083l-6.16,1.6c-3.22.831-5.983,2.223-6.17,3.106l-.343,1.6Z" transform="translate(-427.76 -334.031)" fill="#37474f"/>
          </g>
          <g id="XMLID_3994_" transform="translate(33.555 14.888)">
            <path id="XMLID_3995_" d="M452.823,343.5s-1.569,5.349-1.922,6.627-5.038,3.563-8.113,4.415-6.44,1.849-4.986,6.139c1.34,3.968,6.4,4.872,8.975,4.757s6.1-2.576,7.489-6.544c1.776-5.059.821-10.47,1.517-13.42S454.361,341.749,452.823,343.5Z" transform="translate(-437.454 -342.577)" fill="#ffbda7"/>
          </g>
        </g>
      </g>
    </g>
    <g id="Character_1_1_" transform="translate(165.898 304.452)">
      <g id="XMLID_4627_">
        <g id="XMLID_4729_" transform="translate(62.228 49.577)">
          <path id="XMLID_4731_" d="M302.863,344.8c-5.734-5.775-7.78-3.532-8.507,2.8a28.517,28.517,0,0,1-1.911,7.749,14.3,14.3,0,0,0-1.08-3.823,2.788,2.788,0,0,0-3.407-1.672c-.561.239.135,1.579.042,4.03-.114,3.147-1.132,4.882-.395,8.216a5.34,5.34,0,0,1-.561,3.677c-3.1,5.723-12.963,16.329-19.923,23.953-6.149-5.557-19.9-17.991-26.488-23.922-9.037-8.144-11.987-11.81-20.723-11.218a23.446,23.446,0,0,1,7.437,4.456c4.051,3.428,3.085,23.029,3.085,23.029s30.061,21.554,33.146,23.611c.457.3.914.571,1.382.821a7.4,7.4,0,0,0,9.006-1.724c6.419-7.333,15.768-21.772,21.18-29.272a92.715,92.715,0,0,0,6.534-11.374C307.039,353.54,306.457,348.43,302.863,344.8Z" transform="translate(-219.91 -341.472)" fill="#914f4e"/>
          <path id="XMLID_4730_" d="M220.76,353.62a15.057,15.057,0,0,1,12.091,2.96c5.163,3.916,27.1,24.1,27.1,24.1s.592,10.689-10.554,17.066l-26.976-19.019Z" transform="translate(-219.877 -341.012)" fill="#bc5efa"/>
          <path id="XMLID_2372_" d="M220.76,353.62a15.057,15.057,0,0,1,12.091,2.96c5.163,3.916,27.1,24.1,27.1,24.1s.592,10.689-10.554,17.066l-26.976-19.019Z" transform="translate(-219.877 -341.012)" fill="#bc5efb" opacity="0.3"/>
        </g>
        <g id="XMLID_4680_" transform="translate(23.072 127.096)">
          <rect id="XMLID_4728_" width="11.426" height="20.37" transform="translate(2.603 176.492)" fill="#914f4e"/>
          <path id="XMLID_4727_" d="M222.85,585.764l11.416.405.582-21.554-12-.405Z" transform="translate(-180.64 -410.363)" fill="#914f4e"/>
          <path id="XMLID_4726_" d="M183.207,416.225c0,11.364,1.672,102.8,1.672,102.8-.27,3.272-3.21,9.3-2.576,21.855.862,17.056,2.015,61.888,2.015,61.888a14.5,14.5,0,0,0,12.725.26s10.8-62.085,12.849-79c1.787-14.75,4.82-64.433,4.82-64.433l6.191,57.764a70.172,70.172,0,0,0-1.413,18.915c.53,7.822,4.207,48.54,4.207,48.54s5.381,3.8,13.192,1.049c0,0,6.5-61.327,6.627-68.5.156-8.175-3.8-101.266-3.8-101.266Z" transform="translate(-182.214 -416.1)"/>
          <path id="XMLID_4725_" d="M196.243,600.024v-1.7c1.091.5,3.636,10.585,8.164,14.9,3.6,3.428,8.518,7.375,9.775,11.2,1.3,3.968-6.845,6.16-10.211,5.536-3.916-.717-10.689-3.594-12.392-6.253s-2.5-6.586-3.885-8.528-4.57-4.124-5.318-6.378c-.415-1.236.073-3.958.654-6.243.53-2.109,1.1-4.415,1.8-4.217v1.3c.831.956,3.127,1.911,5.713,2.015C192.2,601.7,196.253,601.353,196.243,600.024Z" transform="translate(-182.214 -409.042)" fill="#263238"/>
          <path id="XMLID_4682_" d="M234.518,581.849c.592.021,1.08.893,2.389,2.368a24.847,24.847,0,0,0,6.721,5.038c4.28,2.233,12.6,5.661,16.36,7.427,2.348,1.1,2.244,4.061-.187,5.744s-8.3,2.9-15.342,1.257c-3.843-.893-8.84-4.591-12-4.383s-9.079.156-11.416-1.527-1.4-5.256-.738-8.331c.717-3.355,1.62-8.59,2.69-8.362v1.153c1.371,2.171,8.466,3.044,11.478,1.454Z" transform="translate(-180.768 -409.71)" fill="#263238"/>
          <path id="XMLID_4681_" d="M213.51,458.344a41.848,41.848,0,0,0,15.913-9.5s-3.075,5.983-12.195,11.561l1.953,51.584Z" transform="translate(-181.002 -414.832)" fill="#263238"/>
        </g>
        <g id="XMLID_4677_" transform="translate(21.664 62.175)">
          <path id="XMLID_4679_" d="M189.2,356.664s-8.944.821-8.31,17.845l1.974,27.132-.187,40.718c8.4,9.515,45.642,8.819,58.4-.758,0,0-1.309-48.187-2.171-66.728-.613-13.182-3.646-19.819-16.6-21.273l-15.934.7Z" transform="translate(-180.859 -353.6)" fill="#bf00ff"/>
          <path id="XMLID_4678_" d="M213.33,365.15l2.057,14.3,4.778-.094-5.391.852Z" transform="translate(-179.601 -353.153)" opacity="0.3"/>
        </g>
        <g id="XMLID_4674_" transform="translate(0 65.145)">
          <path id="XMLID_4676_" d="M161.651,415.012c4.633-37.259,15.3-55.79,28.3-57.972l-.924,23.849s-8.725,19.9-12.371,39.451c-1.7,9.172-3.688,25.127-3.179,32.959a5.8,5.8,0,0,0,1.662,3.656c2.566,2.618,3.334,4.872,5.059,7.822,1.35,2.306,2.742,3.127,2.379,3.677a2.866,2.866,0,0,1-3.978.519,20.884,20.884,0,0,1-3.708-3.345,23.719,23.719,0,0,0,1.87,10.377c3.043,6.264,2.535,9.577-5.89,7.728-5.277-1.153-9.079-6.721-10.491-19.715a113.732,113.732,0,0,1-.26-14.563C160.623,437.033,160.727,422.47,161.651,415.012Z" transform="translate(-160.003 -356.437)" fill="#914f4e"/>
          <path id="XMLID_4675_" d="M190.592,356.46c-6.752-.021-12.911,1.163-17.8,10.6-4.7,9.047-8.31,28.2-10.128,34.455,0,0,9.858,5.827,18.915,5.682l6.388-22.156C187.953,385.036,192.264,374.69,190.592,356.46Z" transform="translate(-159.9 -356.46)" fill="#bc5efa"/>
          <path id="XMLID_2361_" d="M190.592,356.46c-6.752-.021-12.911,1.163-17.8,10.6-4.7,9.047-8.31,28.2-10.128,34.455,0,0,9.858,5.827,18.915,5.682l6.388-22.156C187.953,385.036,192.264,374.69,190.592,356.46Z" transform="translate(-159.9 -356.46)" fill="#bc5efa" opacity="0.3"/>
        </g>
        <g id="XMLID_4646_" transform="translate(28.847)">
          <path id="XMLID_4673_" d="M202.95,320.18c0,9.785,7.614,17.71,17,17.71s17-7.936,17-17.71-7.614-17.71-17-17.71S202.95,310.406,202.95,320.18Z" transform="translate(-187.186 -293.406)" fill="#263238"/>
          <g id="XMLID_4654_">
            <path id="XMLID_4672_" d="M192.53,328.06s2.607,12.766,3.656,14.864a5.563,5.563,0,0,0,3.21,2.69l-.187-8.985Z" transform="translate(-187.589 -292.414)" fill="#263238"/>
            <path id="XMLID_4671_" d="M195.874,310.451s-1.87-.467-3.854,2.638c-1.7,2.659-2.088,8.642.582,15.654l4.913.592Z" transform="translate(-187.661 -293.097)" fill="#263238"/>
            <path id="XMLID_4670_" d="M199.1,329.627c-.987.613-2.389-1.361-3.6-2.68s-5.183-3.137-7.157,1.2c-2.015,4.425,1.745,10.273,4.872,11.291,5.381,1.755,6.191-1.839,6.191-1.839l.415,20.224c7.146,11.052,23.33,10.657,17.513-.53l-.01-6.149s4.872.769,7.25.384c3.958-.634,6.451-3.885,7.645-8.351,1.932-7.167,2.659-12.953,1.028-27.049-1.8-15.446-19.05-15.612-28.368-9.5S199.1,329.627,199.1,329.627Z" transform="translate(-187.774 -293.39)" fill="#914f4e"/>
            <path id="XMLID_4659_" d="M199.447,351.558a25.932,25.932,0,0,0,7,8.767,19.768,19.768,0,0,0,8.466,3.594s-4.2,2.773-5.973,6.71-14.355-6.887-14.241-14.563c0,0,1.974-7.707,4.674-8.206Z" transform="translate(-187.505 -291.648)" fill="#263238"/>
            <path id="XMLID_4658_" d="M214.15,363.862s3.874-1.922,2.14-8.372l-.01-6.149,1.7.229a14.87,14.87,0,0,1,4.082,7.074c.384,1.766,1.34,10.689-.353,12.465C220.154,370.717,217.63,364.339,214.15,363.862Z" transform="translate(-186.752 -291.59)" fill="#263238"/>
            <path id="XMLID_4657_" d="M198.839,331.706c-.5.01-2.379-3.251-3.6-4.4-1.7-1.61.488-16.194.488-16.194a7.129,7.129,0,0,1,1.641-7.375c2.327-2.67,6.222-2.96,12.86-4.051a71.831,71.831,0,0,0,7.874-1.423c2.7-.769,5.36-2.555,7.874-3.833a3.888,3.888,0,0,1,2.67-.613,2.61,2.61,0,0,1,1.693,1.932,7.681,7.681,0,0,1,.052,2.67c1.537-1.7,4.55-1.454,6.118.218a6.261,6.261,0,0,1,.956,6.451,11.448,11.448,0,0,1-4.456,5.1c-8.351,5.64-18.209,4.072-27.547,2.96a2.608,2.608,0,0,0-1.33.083c-1.465.665-1.776,5.214-2.036,6.523C201.217,324.175,200.5,331.675,198.839,331.706Z" transform="translate(-187.51 -293.744)" fill="#263238"/>
            <path id="XMLID_4656_" d="M195.912,311.387l-5.962-3.334a3.23,3.23,0,0,1,4.508-1.558A3.8,3.8,0,0,1,195.912,311.387Z" transform="translate(-187.689 -293.265)" fill="#263238"/>
            <path id="XMLID_4655_" d="M216.8,349.637s-8.84-1.849-11.925-3.563a10.361,10.361,0,0,1-4.269-4.4,14.831,14.831,0,0,0,2.431,5.194c2.254,3.012,13.763,5.225,13.763,5.225Z" transform="translate(-187.276 -291.887)" fill="#783736"/>
          </g>
          <g id="XMLID_4647_" transform="translate(19.249 24.513)">
            <path id="XMLID_4653_" d="M213.252,325.982a1.772,1.772,0,1,1-1.766-1.922A1.84,1.84,0,0,1,213.252,325.982Z" transform="translate(-206.172 -317.082)" fill="#263238"/>
            <path id="XMLID_4652_" d="M210.351,318.576l-3.791,2.181a2.4,2.4,0,0,1,.883-3.137A2.065,2.065,0,0,1,210.351,318.576Z" transform="translate(-206.304 -317.342)" fill="#263238"/>
            <path id="XMLID_4651_" d="M215.435,338.68l4.041,1.579a2.1,2.1,0,0,1-2.742,1.392A2.372,2.372,0,0,1,215.435,338.68Z" transform="translate(-205.956 -316.516)" fill="#783736"/>
            <path id="XMLID_4650_" d="M230.3,320.683l-3.978-1.942a2.045,2.045,0,0,1,2.825-1.132A2.467,2.467,0,0,1,230.3,320.683Z" transform="translate(-205.529 -317.34)" fill="#263238"/>
            <path id="XMLID_4649_" d="M227.752,325.982a1.772,1.772,0,1,1-1.766-1.922A1.84,1.84,0,0,1,227.752,325.982Z" transform="translate(-205.61 -317.082)" fill="#263238"/>
            <path id="XMLID_4648_" d="M217.97,324.59l.2,11.177,6.347-1.454Z" transform="translate(-205.853 -317.062)" fill="#783736"/>
          </g>
        </g>
        <g id="XMLID_4628_" transform="translate(38.7 27.886)">
          <g id="XMLID_4638_" transform="translate(8.518)">
            <path id="XMLID_4642_" d="M210.674,321.494a4.426,4.426,0,0,0,0,8.85h.81a4.426,4.426,0,0,0,0-8.85Zm-5.214,4.415a5.276,5.276,0,0,1,5.225-5.318h.81a5.319,5.319,0,0,1,0,10.637h-.81A5.269,5.269,0,0,1,205.46,325.908Z" transform="translate(-205.46 -320.59)" fill="#263238"/>
          </g>
          <g id="XMLID_4634_" transform="translate(24.431)">
            <path id="XMLID_4635_" d="M226,321.494a4.426,4.426,0,0,0,0,8.85h.81a4.426,4.426,0,0,0,0-8.85Zm-5.225,4.415A5.276,5.276,0,0,1,226,320.59h.81a5.319,5.319,0,0,1,0,10.637H226A5.276,5.276,0,0,1,220.78,325.908Z" transform="translate(-220.78 -320.59)" fill="#263238"/>
          </g>
          <path id="XMLID_4633_" d="M216.248,324.787a3.437,3.437,0,0,1,2.763-1.433,2.8,2.8,0,0,1,2.41.924l.706-.54a3.576,3.576,0,0,0-3.158-1.278,4.261,4.261,0,0,0-3.469,1.859Z" transform="translate(-196.553 -320.518)" fill="#263238"/>
          <rect id="XMLID_4632_" width="8.995" height="0.893" transform="translate(0 4.228)" fill="#263238"/>
        </g>
      </g>
    </g>
  </g>
</svg>
