<svg xmlns="http://www.w3.org/2000/svg" width="679.15" height="679.12" viewBox="0 0 679.15 679.12">
  <g id="Character_1_" transform="translate(-22.315 -32.418)">
    <g id="Group_1435" data-name="Group 1435" transform="translate(22.315 32.418)">
      <g id="XMLID_18225_" transform="translate(0 231.636)">
        <path id="XMLID_18226_" d="M121.784,539.472c132.61,77.326,347.614,77.342,480.224,0s132.61-202.726,0-280.052c-132.61-77.342-347.614-77.342-480.224,0C-10.841,336.745-10.841,462.129,121.784,539.472Z" transform="translate(-22.315 -149.988)" fill="#eaecfd"/>
      </g>
      <ellipse id="XMLID_18364_" cx="73.418" cy="35.125" rx="73.418" ry="35.125" transform="translate(160.313 561.24)" fill="#afb6e5"/>
      <g id="XMLID_18078_" transform="translate(67.369 278.698)">
        <g id="XMLID_18076_" transform="translate(19.332)">
          <path id="XMLID_18073_" d="M102.955,288.81l7.634-1.938a187.1,187.1,0,0,0,4.753-30.769c1.971-24.89-7.684-43.6-19.707-51.337-14.275-9.191-21.76-.795-20.9,5.813.911,6.972,8.446,16.825,12.039,23.632C91.992,244.064,99.875,259,102.955,288.81Z" transform="translate(-74.67 -200.711)" fill="#27debf"/>
          <path id="XMLID_2_" d="M102.955,288.81l7.634-1.938a187.1,187.1,0,0,0,4.753-30.769c1.971-24.89-7.684-43.6-19.707-51.337-14.275-9.191-21.76-.795-20.9,5.813.911,6.972,8.446,16.825,12.039,23.632C91.992,244.064,99.875,259,102.955,288.81Z" transform="translate(-74.67 -200.711)" fill="#a200f9"/>
          <g id="XMLID_18077_" transform="translate(9.888 3.974)">
            <path id="Path_2929" data-name="Path 2929" d="M102.731,286.872a.282.282,0,0,1-.116-.017.563.563,0,0,1-.431-.662c9.141-44.2-9.655-75.714-21.247-82.023a.563.563,0,0,1,.53-.994c12.221,6.657,31.183,37.906,21.81,83.248A.564.564,0,0,1,102.731,286.872Z" transform="translate(-80.64 -203.11)" fill="#fff"/>
          </g>
        </g>
        <g id="XMLID_17746_" transform="translate(0 35.022)">
          <path id="XMLID_17124_" d="M110.613,274.936a63.786,63.786,0,0,0-3.163-24.476c-4.339-12.155-11.145-23.449-24.774-27.623-13.613-4.157-24.36,5.713-17.6,14.8,6.757,9.075,31.829,14.722,36.714,43.173Z" transform="translate(-62.996 -221.859)" fill="#bc5efa"/>
          <g id="XMLID_17921_" transform="translate(8.958 4.858)">
            <path id="Path_2930" data-name="Path 2930" d="M103.173,276.175h-.05a.56.56,0,0,1-.513-.613c2.037-22.919-13.414-45.657-33.75-49.648a.588.588,0,0,1-.447-.662.566.566,0,0,1,.662-.447c20.882,4.107,36.747,27.391,34.661,50.857A.56.56,0,0,1,103.173,276.175Z" transform="translate(-68.405 -224.793)" fill="#fff"/>
          </g>
        </g>
      </g>
      <g id="XMLID_1001_" transform="translate(610.917 496.589)">
        <g id="Group_1421" data-name="Group 1421">
          <path id="XMLID_1000_" d="M391.22,387.455s2.6-24.575,17.918-41.086c15.335-16.511,31.68-16.345,38.055-10.433,6.376,5.929-.182,15.153-14.407,24.145-12.188,7.7-28.3,25.172-33.253,36.963Z" transform="translate(-391.22 -332.285)" fill="#27debf"/>
          <path id="XMLID_1_" d="M391.22,387.455s2.6-24.575,17.918-41.086c15.335-16.511,31.68-16.345,38.055-10.433,6.376,5.929-.182,15.153-14.407,24.145-12.188,7.7-28.3,25.172-33.253,36.963Z" transform="translate(-391.22 -332.285)" fill="#a200f9"/>
        </g>
        <g id="XMLID_16616_" transform="translate(2.951 5.029)">
          <path id="Path_2931" data-name="Path 2931" d="M393.578,390.1a.458.458,0,0,1-.149-.017.6.6,0,0,1-.414-.7c6.508-25.072,28.384-50.327,46.783-54.053a.578.578,0,0,1,.679.447.57.57,0,0,1-.447.679c-18.034,3.643-39.5,28.517-45.9,53.208A.563.563,0,0,1,393.578,390.1Z" transform="translate(-393.002 -335.322)" fill="#fff"/>
        </g>
      </g>
      <g id="XMLID_993_" transform="translate(612.043 537.368)">
        <path id="XMLID_992_" d="M393.424,428.9s11.327,3.213,19.475-2.4c6.972-4.8,5.233-9.92,6.045-13.861s4.223-6.061,9.92-6.806c7.038-.927,13.6-2.02,14.821-9.439,1.093-6.541-9.721-10.085-6.508-16.461,2.434-4.819,7.9-8.048,12.4-11.658,4.488-3.594,1.822-11.344-8.943-11.36-13.348-.017-16.13,4.9-22.075,5.746-5.962.845-9.274-2.65-15.782-1.788-7.2.944-10.714,7.833-10.88,16.444Z" transform="translate(-391.9 -356.91)" fill="#bc5efa"/>
        <g id="XMLID_994_" transform="translate(0.201 4.227)">
          <path id="Path_2932" data-name="Path 2932" d="M392.6,402.7a.836.836,0,0,1-.2-.033.573.573,0,0,1-.348-.729c5.945-16.742,37.956-40.076,51.453-42.461a.572.572,0,0,1,.2,1.126c-13.265,2.352-44.729,25.271-50.575,41.732A.559.559,0,0,1,392.6,402.7Z" transform="translate(-392.021 -359.463)" fill="#fff"/>
        </g>
        <g id="XMLID_995_" transform="translate(10.304 30.535)">
          <path id="Path_2933" data-name="Path 2933" d="M432.415,382.439a.525.525,0,0,1-.265-.066c-8.346-4.289-22.472-7.419-33.336-5.084a.578.578,0,0,1-.679-.447.57.57,0,0,1,.447-.679c11.129-2.385,25.569.812,34.081,5.2a.57.57,0,0,1-.248,1.076Z" transform="translate(-398.122 -375.349)" fill="#fff"/>
        </g>
        <g id="XMLID_999_" transform="translate(12.731 10.242)">
          <path id="Path_2934" data-name="Path 2934" d="M403.649,379.515h0a.552.552,0,0,1-.563-.58c.017-10.019-3.362-14.888-3.395-14.937a.579.579,0,0,1,.132-.795.561.561,0,0,1,.795.133c.149.215,3.643,5.183,3.61,15.6A.576.576,0,0,1,403.649,379.515Z" transform="translate(-399.587 -363.095)" fill="#fff"/>
        </g>
      </g>
      <g id="XMLID_18116_" transform="translate(207.31)">
        <path id="XMLID_17389_" d="M150.365,33.68l.994-.58a6.349,6.349,0,0,1,5.73,0l162.44,93.781a6.327,6.327,0,0,1,2.865,4.968v226.4a6.372,6.372,0,0,1-2.865,4.968l-.994.58a6.349,6.349,0,0,1-5.73,0l-162.44-93.781a6.327,6.327,0,0,1-2.865-4.968V38.648A6.327,6.327,0,0,1,150.365,33.68Z" transform="translate(-147.5 -32.417)" fill="#fafafa"/>
        <path id="XMLID_18140_" d="M257.112,206.788V93.582a5.819,5.819,0,0,0-.845-2.832L247.01,96.1V325.227l.5.3a6.349,6.349,0,0,0,5.73,0l.994-.58a6.327,6.327,0,0,0,2.865-4.968Z" transform="translate(-82.219 5.85)" fill="#e0e0e0"/>
        <path id="XMLID_17351_" d="M150.365,35.334,312.8,129.115a6.327,6.327,0,0,1,2.865,4.968v226.4c0,1.822-1.292,2.567-2.865,1.656l-162.44-93.781a6.327,6.327,0,0,1-2.865-4.968V36.99C147.5,35.168,148.775,34.423,150.365,35.334Z" transform="translate(-147.5 -30.759)" fill="#f5f5f5"/>
        <path id="XMLID_17394_" d="M162.545,51.758l122.066,70.48a6.327,6.327,0,0,1,2.865,4.968v8.909c0,1.822-1.292,2.567-2.865,1.656L162.545,67.292a6.327,6.327,0,0,1-2.865-4.968V53.414C159.68,51.576,160.972,50.831,162.545,51.758Z" transform="translate(-139.51 -19.991)" fill="#afb6e5"/>
        <ellipse id="XMLID_17631_" cx="13.728" cy="23.781" rx="13.728" ry="23.781" transform="matrix(0.866, -0.5, 0.5, 0.866, 13.21, 76.566)" fill="#afb6e5"/>
        <g id="XMLID_18110_" transform="translate(25.635 76.315)">
          <path id="XMLID_18092_" d="M172.255,79.311c-3.262-1.888-5.9-.364-5.9,3.411a13.058,13.058,0,0,0,5.9,10.218c3.262,1.888,5.9.364,5.9-3.411A13.013,13.013,0,0,0,172.255,79.311Z" transform="translate(-160.763 -78.501)" fill="#bc5df9"/>
          <path id="XMLID_18113_" d="M176.013,90.183l-3.345-1.938c-5.349-3.1-9.688-.58-9.688,5.6v.845a33.913,33.913,0,0,0,11.36,11.692c4.388,2.534,8.379,2.882,11.36,1.424v-.845C185.7,100.781,181.362,93.279,176.013,90.183Z" transform="translate(-162.98 -72.978)" fill="#bc5df9"/>
        </g>
        <path id="XMLID_18091_" d="M163.274,103.655l26.463,15.285a7.661,7.661,0,0,1,3.577,5.962c0,2.153-1.606,2.964-3.594,1.822l-26.463-15.285a7.661,7.661,0,0,1-3.577-5.962C159.68,103.324,161.286,102.512,163.274,103.655Z" transform="translate(-139.51 13.977)" fill="#e0e0e0"/>
        <path id="XMLID_18112_" d="M163.274,113.035l26.463,15.285a7.661,7.661,0,0,1,3.577,5.962c0,2.153-1.606,2.964-3.594,1.822l-26.463-15.285a7.661,7.661,0,0,1-3.577-5.962C159.68,112.7,161.286,111.892,163.274,113.035Z" transform="translate(-139.51 20.13)" fill="#e0e0e0"/>
        <path id="XMLID_18114_" d="M163.274,122.405l26.463,15.285a7.661,7.661,0,0,1,3.577,5.962c0,2.153-1.606,2.964-3.594,1.822l-26.463-15.285a7.661,7.661,0,0,1-3.577-5.962C159.68,122.074,161.286,121.262,163.274,122.405Z" transform="translate(-139.51 26.277)" fill="#e0e0e0"/>
        <path id="XMLID_18115_" d="M163.274,131.785l26.463,15.285a7.661,7.661,0,0,1,3.577,5.962c0,2.153-1.606,2.964-3.594,1.822l-26.463-15.285a7.661,7.661,0,0,1-3.577-5.962C159.68,131.454,161.286,130.642,163.274,131.785Z" transform="translate(-139.51 32.431)" fill="#e0e0e0"/>
        <path id="XMLID_18111_" d="M163.274,145.855l26.463,15.285a7.916,7.916,0,0,1,3.594,6.21v15.02c0,2.285-1.606,3.213-3.594,2.07l-26.463-15.285a7.916,7.916,0,0,1-3.594-6.21v-15.02C159.68,145.623,161.286,144.712,163.274,145.855Z" transform="translate(-139.51 41.678)" fill="#bc5df9"/>
        <g id="XMLID_18134_" transform="translate(73.991 86.03)">
          <path id="XMLID_18146_" d="M195.757,84.885l66.821,38.585a7.679,7.679,0,0,1,3.594,5.962c0,2.153-1.606,2.964-3.594,1.822L195.757,92.668a7.661,7.661,0,0,1-3.577-5.962C192.18,84.554,193.786,83.742,195.757,84.885Z" transform="translate(-192.18 -84.367)" fill="#bc5df9"/>
          <path id="XMLID_18145_" d="M195.757,94.265l66.821,38.585a7.679,7.679,0,0,1,3.594,5.962c0,2.153-1.606,2.964-3.594,1.822l-66.821-38.585a7.661,7.661,0,0,1-3.577-5.962C192.18,93.934,193.786,93.122,195.757,94.265Z" transform="translate(-192.18 -78.214)" fill="#bc5df9"/>
          <path id="XMLID_18144_" d="M195.757,103.645l66.821,38.585a7.679,7.679,0,0,1,3.594,5.962c0,2.153-1.606,2.964-3.594,1.822l-66.821-38.585a7.661,7.661,0,0,1-3.577-5.962C192.18,103.314,193.786,102.5,195.757,103.645Z" transform="translate(-192.18 -72.06)" fill="#bc5df9"/>
        </g>
      </g>
      <g id="XMLID_8_" transform="translate(509.998 140.058)">
        <path id="XMLID_15_" d="M333.874,121.476l6.276-3.627a7.928,7.928,0,0,1,7.171,0L488.149,199.16a7.916,7.916,0,0,1,3.594,6.21V383.509a7.916,7.916,0,0,1-3.594,6.21l-6.276,3.627a7.928,7.928,0,0,1-7.171,0L333.857,312.035a7.854,7.854,0,0,1-3.577-6.21l.017-178.139A7.942,7.942,0,0,1,333.874,121.476Z" transform="translate(-330.28 -116.992)" fill="#455a64"/>
        <path id="XMLID_14_" d="M435.77,260.825V171.747a7.285,7.285,0,0,0-1.043-3.527L415.6,179.266V357.918l3.146,1.822a7.928,7.928,0,0,0,7.171,0l6.276-3.627a7.916,7.916,0,0,0,3.594-6.21V260.825Z" transform="translate(-274.308 -83.386)" fill="#263238"/>
        <path id="XMLID_13_" d="M333.874,122.394,474.7,203.7a7.916,7.916,0,0,1,3.594,6.21V388.054c0,2.285-1.606,3.213-3.594,2.07L333.857,308.813a7.854,7.854,0,0,1-3.577-6.21l.017-178.139C330.3,122.179,331.9,121.251,333.874,122.394Z" transform="translate(-330.28 -113.77)" fill="#37474f"/>
        <path id="XMLID_12_" d="M460.605,202.556,339.964,132.9c-1.987-1.143-3.594-.215-3.594,2.07V270.387a7.916,7.916,0,0,0,3.594,6.21L460.605,346.25c1.987,1.143,3.577.215,3.577-2.07V208.766A7.855,7.855,0,0,0,460.605,202.556Z" transform="translate(-326.285 -106.875)" fill="#fff"/>
        <path id="XMLID_10_" d="M357.839,151.606c6.409,3.71,11.609,12.718,11.609,20.121s-5.2,10.416-11.609,6.707-11.609-12.718-11.609-20.121S351.43,147.913,357.839,151.606Z" transform="translate(-319.816 -95.322)" fill="#bf00ff"/>
        <path id="XMLID_9_" d="M394.473,218.874l-21.611-32.557c-3.494-5.266-9.539-5.548-13.5-.613L336.38,214.32v29.444a7.916,7.916,0,0,0,3.594,6.21l120.625,69.6c1.987,1.143,3.594.215,3.594-2.07V241.148l-29.974-63.442c-2.7-5.713-7.75-6.111-11.294-.878Z" transform="translate(-326.278 -80.153)" fill="#bf00ff"/>
      </g>
      <g id="XMLID_17923_" transform="translate(254.391 117.988)">
        <path id="XMLID_17741_" d="M465.635,532.071l39.48-22.787a15.858,15.858,0,0,0,7.171-12.42V272.638a15.858,15.858,0,0,0-7.171-12.42L236.921,105.379a15.857,15.857,0,0,0-14.341,0L183.1,128.166a15.858,15.858,0,0,0-7.171,12.42V364.812a15.858,15.858,0,0,0,7.171,12.42L451.294,532.071A15.857,15.857,0,0,0,465.635,532.071Z" transform="translate(-175.93 -103.665)" fill="#455a64"/>
        <path id="XMLID_17947_" d="M403.014,208.491a14.58,14.58,0,0,0-2.1-7.071L342.47,235.153V468.14a15.915,15.915,0,0,0,13.894-.2l39.48-22.8a15.854,15.854,0,0,0,7.171-12.4Z" transform="translate(-66.675 -39.535)" fill="#37474f"/>
        <path id="XMLID_17738_" d="M451.294,278.676,183.1,123.838c-3.958-2.285-7.171-.431-7.171,4.14V352.2a15.858,15.858,0,0,0,7.171,12.42L451.294,519.462c3.958,2.285,7.171.431,7.171-4.14V291.1A15.858,15.858,0,0,0,451.294,278.676Z" transform="translate(-175.93 -91.073)" fill="#37474f"/>
        <path id="XMLID_17740_" d="M465.5,273.27a15.858,15.858,0,0,1,7.171,12.42V518.2L479.4,514.3V281.8a15.858,15.858,0,0,0-7.171-12.42L196.863,110.4l-6.723,3.892Z" transform="translate(-166.608 -99.247)" fill="#263238"/>
        <path id="XMLID_18171_" d="M472.136,269.28,197.219,110.55l-6.939,3.759L465.412,273.155a14.493,14.493,0,0,1,5.067,5.349l6.723-3.892h0A14.7,14.7,0,0,0,472.136,269.28Z" transform="translate(-166.516 -99.148)" fill="#37474f"/>
        <g id="XMLID_17745_" transform="translate(230.817 126.93)">
          <path id="XMLID_17912_" d="M348.431,186.252l-4.736-2.732a7.928,7.928,0,0,0-7.171,0l-18.183,10.5-3.031-.927v3.892h0a2.535,2.535,0,0,0,1.49,2.07l6.276,3.627a7.928,7.928,0,0,0,7.171,0l19.74-11.393a2.535,2.535,0,0,0,1.49-2.07h0v-3.892Z" transform="translate(-315.31 -178.771)" fill="#263238"/>
          <path id="XMLID_17748_" d="M349.987,184.8l-6.276-3.627a7.928,7.928,0,0,0-7.171,0L316.8,192.563c-1.987,1.143-1.987,3,0,4.14l6.276,3.627a7.928,7.928,0,0,0,7.171,0l19.74-11.393C351.958,187.794,351.958,185.939,349.987,184.8Z" transform="translate(-315.31 -180.313)" fill="#455a64"/>
        </g>
        <g id="XMLID_17749_" transform="translate(69.371 33.746)">
          <path id="XMLID_17920_" d="M250.941,129.972l-4.736-2.732a7.928,7.928,0,0,0-7.171,0l-18.183,10.5-3.03-.927V140.7h0a2.535,2.535,0,0,0,1.49,2.07l6.276,3.627a7.928,7.928,0,0,0,7.171,0l19.74-11.393a2.535,2.535,0,0,0,1.49-2.07h0v-3.875Z" transform="translate(-217.82 -122.507)" fill="#263238"/>
          <path id="XMLID_17751_" d="M252.5,128.526l-6.276-3.627a7.928,7.928,0,0,0-7.171,0l-19.74,11.393c-1.987,1.143-1.987,3,0,4.14l6.276,3.627a7.928,7.928,0,0,0,7.171,0l19.74-11.393C254.468,131.507,254.468,129.669,252.5,128.526Z" transform="translate(-217.82 -124.042)" fill="#455a64"/>
        </g>
        <path id="XMLID_996_" d="M274.687,130.566v23.3l-13.447,7.767V126.111c0-1.838,1.275-2.567,2.865-1.656Z" transform="translate(-119.964 -90.283)" fill="#263238"/>
        <path id="XMLID_998_" d="M347.887,162.3V205.6l-9.986,5.78-6.723-3.892V171.968A6.372,6.372,0,0,0,328.313,167l-50.956-29.411-10.582-6.111c-1.59-.911-2.865-.182-2.865,1.656v35.522l-6.74-3.892V121.476a3.235,3.235,0,0,1,.05-.563,6.373,6.373,0,0,1,2.832-4.405l4.256-2.467a6.349,6.349,0,0,1,5.73,0l74.985,43.289A6.352,6.352,0,0,1,347.887,162.3Z" transform="translate(-122.634 -97.306)" fill="#455a64"/>
        <path id="XMLID_997_" d="M337.9,165.671v43.305l-6.723-3.892V169.563a6.372,6.372,0,0,0-2.865-4.968l-50.956-29.411-10.582-6.111c-1.59-.911-2.865-.182-2.865,1.656v35.522l-6.74-3.892V119.071a3.235,3.235,0,0,1,.05-.563c.248-1.408,1.424-1.9,2.832-1.093L335.036,160.7A6.4,6.4,0,0,1,337.9,165.671Z" transform="translate(-122.634 -94.901)" fill="#37474f"/>
      </g>
      <g id="XMLID_17961_" transform="translate(329.066 289.178)">
        <g id="Group_1422" data-name="Group 1422" transform="translate(32.95)">
          <path id="XMLID_17948_" d="M449.463,542.154l6.723-3.892-6.723-193.937a7.916,7.916,0,0,0-3.594-6.21L318.5,264.587a12.911,12.911,0,0,1-4.935-5.978l-4.024-11.592a12.6,12.6,0,0,0-4.968-5.929L244.53,207.5c-1.987-1.11-3.61-.166-3.61,2.12v208a7.943,7.943,0,0,0,3.577,6.21Z" transform="translate(-240.92 -207.039)" fill="#bf00ff"/>
          <path id="XMLID_3_" d="M449.463,542.154l6.723-3.892-6.723-193.937a7.916,7.916,0,0,0-3.594-6.21L318.5,264.587a12.911,12.911,0,0,1-4.935-5.978l-4.024-11.592a12.6,12.6,0,0,0-4.968-5.929L244.53,207.5c-1.987-1.11-3.61-.166-3.61,2.12v208a7.943,7.943,0,0,0,3.577,6.21Z" transform="translate(-240.92 -207.039)" opacity="0.2"/>
        </g>
        <g id="XMLID_17962_" transform="translate(139.764 5.465)">
          <path id="XMLID_18067_" d="M308.785,211.214l142.253,82.139a6.327,6.327,0,0,1,2.865,4.968V532.483c0,1.822-1.292,2.567-2.865,1.656L308.785,452a6.327,6.327,0,0,1-2.865-4.968V212.87C305.92,211.048,307.2,210.3,308.785,211.214Z" transform="translate(-305.092 -210.021)" fill="#fff"/>
          <g id="XMLID_991_" opacity="0.5">
            <path id="Path_2935" data-name="Path 2935" d="M452.657,535.683a3.458,3.458,0,0,1-1.706-.5L308.7,453.048a7.156,7.156,0,0,1-3.279-5.68V213.205a2.813,2.813,0,0,1,1.259-2.567,2.86,2.86,0,0,1,2.865.2L451.8,292.976a7.156,7.156,0,0,1,3.279,5.68V532.818a2.779,2.779,0,0,1-1.259,2.567A2.324,2.324,0,0,1,452.657,535.683ZM307.838,211.98a.652.652,0,0,0-.331.083,1.3,1.3,0,0,0-.431,1.143V447.367a5.548,5.548,0,0,0,2.451,4.256L451.78,533.762a.965.965,0,0,0,1.639-.944V298.656a5.548,5.548,0,0,0-2.451-4.256L308.715,212.278A1.627,1.627,0,0,0,307.838,211.98Z" transform="translate(-305.42 -210.339)" fill="#e0e0e0"/>
          </g>
          <g id="XMLID_17963_" transform="translate(14.275 32.157)">
            <path id="XMLID_18066_" d="M317.621,230.275l66.821,38.585a7.679,7.679,0,0,1,3.594,5.962c0,2.153-1.606,2.964-3.577,1.822l-66.821-38.585a7.66,7.66,0,0,1-3.577-5.962C314.027,229.944,315.633,229.132,317.621,230.275Z" transform="translate(-314.027 -229.757)" fill="#37474f"/>
            <path id="XMLID_18065_" d="M317.627,244.355l113.918,65.761a7.679,7.679,0,0,1,3.594,5.962c0,2.153-1.606,2.964-3.577,1.822L317.644,252.138a7.679,7.679,0,0,1-3.594-5.962C314.034,244.024,315.64,243.212,317.627,244.355Z" transform="translate(-314.034 -220.521)" fill="#e0e0e0"/>
            <path id="XMLID_18064_" d="M317.627,258.425l113.918,65.761a7.679,7.679,0,0,1,3.594,5.962c0,2.153-1.606,2.964-3.577,1.822L317.644,266.208a7.679,7.679,0,0,1-3.594-5.962C314.034,258.094,315.64,257.282,317.627,258.425Z" transform="translate(-314.034 -211.29)" fill="#e0e0e0"/>
            <path id="XMLID_18063_" d="M317.634,272.5l113.9,65.761a7.679,7.679,0,0,1,3.594,5.962c0,2.153-1.606,2.964-3.577,1.822L317.634,280.278a7.679,7.679,0,0,1-3.594-5.962C314.04,272.164,315.646,271.352,317.634,272.5Z" transform="translate(-314.04 -202.06)" fill="#e0e0e0"/>
            <path id="XMLID_18062_" d="M317.627,286.565l113.918,65.761a7.679,7.679,0,0,1,3.594,5.962c0,2.153-1.606,2.964-3.577,1.822L317.644,294.348a7.679,7.679,0,0,1-3.594-5.962C314.034,286.234,315.64,285.422,317.627,286.565Z" transform="translate(-314.034 -192.83)" fill="#e0e0e0"/>
            <path id="XMLID_18061_" d="M317.627,300.635,431.545,366.4a7.679,7.679,0,0,1,3.594,5.962c0,2.153-1.606,2.964-3.577,1.822L317.644,308.418a7.679,7.679,0,0,1-3.594-5.962C314.034,300.3,315.64,299.492,317.627,300.635Z" transform="translate(-314.034 -183.599)" fill="#e0e0e0"/>
            <path id="XMLID_18060_" d="M317.627,314.715l113.918,65.761a7.679,7.679,0,0,1,3.594,5.962c0,2.153-1.606,2.964-3.577,1.822L317.644,322.5a7.679,7.679,0,0,1-3.594-5.962C314.034,314.384,315.64,313.572,317.627,314.715Z" transform="translate(-314.034 -174.363)" fill="#e0e0e0"/>
            <path id="XMLID_18059_" d="M317.627,328.785l113.918,65.761a7.679,7.679,0,0,1,3.594,5.962c0,2.153-1.606,2.964-3.577,1.822L317.644,336.568a7.679,7.679,0,0,1-3.594-5.962C314.034,328.454,315.64,327.642,317.627,328.785Z" transform="translate(-314.034 -165.132)" fill="#e0e0e0"/>
          </g>
        </g>
        <g id="XMLID_17960_" transform="translate(119.577 17.107)">
          <g id="XMLID_17950_">
            <path id="Path_2936" data-name="Path 2936" d="M296.595,218.244l142.253,82.139a6.327,6.327,0,0,1,2.865,4.968V539.513c0,1.822-1.292,2.567-2.865,1.656L296.595,459.03a6.327,6.327,0,0,1-2.865-4.968V219.9C293.73,218.078,295.022,217.333,296.595,218.244Z" transform="translate(-292.902 -217.051)" fill="#fff"/>
            <path id="Path_2937" data-name="Path 2937" d="M440.467,542.7a3.457,3.457,0,0,1-1.706-.5L296.509,460.078a7.155,7.155,0,0,1-3.279-5.68V220.235a2.813,2.813,0,0,1,1.259-2.567,2.86,2.86,0,0,1,2.865.2l142.253,82.139a7.156,7.156,0,0,1,3.279,5.68V539.848a2.813,2.813,0,0,1-1.259,2.567A2.5,2.5,0,0,1,440.467,542.7Zm-144.82-323.7a.652.652,0,0,0-.331.083,1.3,1.3,0,0,0-.431,1.143V454.381a5.547,5.547,0,0,0,2.451,4.256L439.59,540.759c.5.281.927.364,1.192.2a1.278,1.278,0,0,0,.431-1.143V305.653a5.548,5.548,0,0,0-2.451-4.256L296.509,219.275A1.806,1.806,0,0,0,295.648,218.993Z" transform="translate(-293.23 -217.369)" fill="#e0e0e0"/>
          </g>
          <g id="XMLID_17952_" transform="translate(14.291 32.157)">
            <path id="XMLID_17951_" d="M305.43,237.305l66.821,38.585a7.679,7.679,0,0,1,3.594,5.962c0,2.153-1.606,2.964-3.577,1.822l-66.821-38.585a7.66,7.66,0,0,1-3.577-5.962C301.853,236.974,303.443,236.162,305.43,237.305Z" transform="translate(-301.853 -236.787)" fill="#e0e0e0"/>
            <path id="XMLID_17953_" d="M305.437,251.375l113.918,65.761a7.679,7.679,0,0,1,3.594,5.962c0,2.153-1.606,2.964-3.577,1.822L305.454,259.158a7.679,7.679,0,0,1-3.594-5.962C301.86,251.044,303.45,250.232,305.437,251.375Z" transform="translate(-301.86 -227.557)" fill="#e0e0e0"/>
            <path id="XMLID_17954_" d="M305.437,265.455l113.918,65.761a7.679,7.679,0,0,1,3.594,5.962c0,2.153-1.606,2.964-3.577,1.822L305.454,273.238a7.679,7.679,0,0,1-3.594-5.962C301.86,265.124,303.45,264.312,305.437,265.455Z" transform="translate(-301.86 -218.32)" fill="#e0e0e0"/>
            <path id="XMLID_17955_" d="M305.437,279.525l113.918,65.761a7.679,7.679,0,0,1,3.594,5.962c0,2.153-1.606,2.964-3.577,1.822L305.454,287.308a7.679,7.679,0,0,1-3.594-5.962C301.86,279.194,303.45,278.382,305.437,279.525Z" transform="translate(-301.86 -209.09)" fill="#e0e0e0"/>
            <path id="XMLID_17956_" d="M305.437,293.6l113.918,65.761a7.679,7.679,0,0,1,3.594,5.962c0,2.153-1.606,2.964-3.577,1.822L305.454,301.378a7.679,7.679,0,0,1-3.594-5.962C301.86,293.264,303.45,292.452,305.437,293.6Z" transform="translate(-301.86 -199.86)" fill="#e0e0e0"/>
            <path id="XMLID_17957_" d="M305.437,307.665l113.918,65.761a7.679,7.679,0,0,1,3.594,5.962c0,2.153-1.606,2.964-3.577,1.822L305.454,315.448a7.679,7.679,0,0,1-3.594-5.962C301.86,307.334,303.45,306.522,305.437,307.665Z" transform="translate(-301.86 -190.629)" fill="#e0e0e0"/>
            <path id="XMLID_17958_" d="M305.437,321.735,419.355,387.5a7.679,7.679,0,0,1,3.594,5.962c0,2.153-1.606,2.964-3.577,1.822L305.454,329.518a7.679,7.679,0,0,1-3.594-5.962C301.86,321.4,303.45,320.592,305.437,321.735Z" transform="translate(-301.86 -181.399)" fill="#e0e0e0"/>
            <path id="XMLID_17959_" d="M305.437,335.815l113.918,65.761a7.679,7.679,0,0,1,3.594,5.962c0,2.153-1.606,2.964-3.577,1.822L305.454,343.6a7.679,7.679,0,0,1-3.594-5.962C301.86,335.484,303.45,334.672,305.437,335.815Z" transform="translate(-301.86 -172.162)" fill="#e0e0e0"/>
          </g>
        </g>
        <path id="XMLID_17949_" d="M462.517,528.783l-32.889-178.47a10.271,10.271,0,0,0-4.339-6.144L223.933,227.916c-1.971-1.143-3.246-.232-2.832,2l32.127,174.4a10.271,10.271,0,0,0,4.339,6.144Z" transform="translate(-221.023 -193.668)" fill="#bc5efb"/>
      </g>
      <g id="XMLID_18072_" transform="translate(321.658 400.217)">
        <path id="XMLID_18069_" d="M216.55,280.929v116a7.916,7.916,0,0,0,3.594,6.21L300.428,449.5a6.734,6.734,0,0,0,10.317-5.945v-116a7.916,7.916,0,0,0-3.594-6.21l-80.284-46.352a6.734,6.734,0,0,0-10.317,5.945Z" transform="translate(-216.55 -274.09)" fill="#455a64"/>
        <path id="XMLID_18139_" d="M277.828,365.761V307.767a7.285,7.285,0,0,0-1.043-3.527L266.7,310.069V429.253l.828.48a7.709,7.709,0,0,0,6.939.132h0a7.694,7.694,0,0,0,3.362-6.078Z" transform="translate(-183.65 -254.311)" fill="#263238"/>
        <path id="XMLID_18068_" d="M220.144,277.164l80.284,46.352a7.915,7.915,0,0,1,3.594,6.21v116c0,2.285-1.606,3.213-3.594,2.07l-80.284-46.352a7.916,7.916,0,0,1-3.594-6.21v-116C216.55,276.948,218.156,276.021,220.144,277.164Z" transform="translate(-216.55 -272.395)" fill="#37474f"/>
        <path id="XMLID_18070_" d="M224.2,284.2l66.821,38.585a7.916,7.916,0,0,1,3.594,6.21v84.938c0,2.285-1.606,3.213-3.594,2.07L224.2,377.422a7.915,7.915,0,0,1-3.594-6.21V286.274C220.61,283.988,222.216,283.061,224.2,284.2Z" transform="translate(-213.887 -267.777)" fill="#fff"/>
        <path id="XMLID_18071_" d="M233.529,296.41a17.564,17.564,0,0,1,7.949,13.762c0,5.067-3.56,7.121-7.949,4.587A17.564,17.564,0,0,1,225.58,301C225.58,295.93,229.14,293.876,233.529,296.41Z" transform="translate(-210.626 -260.16)" fill="#e9eaf1"/>
        <g id="Group_1423" data-name="Group 1423" transform="translate(6.74 64.309)">
          <path id="XMLID_18075_" d="M270.715,315.054,254.254,339.4l-12.5-18.846c-2.02-3.047-5.515-3.213-7.816-.348L220.62,336.781v15.285a7.943,7.943,0,0,0,3.577,6.21l66.821,38.585c1.987,1.143,3.577.215,3.577-2.07V352.3L277.24,315.567C275.7,312.255,272.768,312.023,270.715,315.054Z" transform="translate(-220.62 -312.924)" fill="#e9eaf1"/>
        </g>
      </g>
      <g id="XMLID_988_" transform="translate(66.911 174.267)">
        <g id="XMLID_30_">
          <path id="Path_2938" data-name="Path 2938" d="M64.385,348.79A174.88,174.88,0,0,0,148.975,199V140.18c0-1.822,1.292-2.567,2.865-1.656l148.976,86.014a6.372,6.372,0,0,1,2.865,4.968v58.822a174.892,174.892,0,0,1-83.944,149.39,6.884,6.884,0,0,1-7.022.033L64.385,352.118C62.812,351.224,62.828,349.734,64.385,348.79Z" transform="translate(-62.397 -137.331)" fill="#fff"/>
          <path id="Path_2939" data-name="Path 2939" d="M216.548,439.859a7.705,7.705,0,0,1-3.908-1.06L64.31,353.166a2.576,2.576,0,0,1-.017-4.753h0a174.983,174.983,0,0,0,84.192-149.076V140.515a2.559,2.559,0,0,1,4.107-2.368l148.976,86.014a7.155,7.155,0,0,1,3.279,5.68v58.822a176.779,176.779,0,0,1-84.341,150.1A7.712,7.712,0,0,1,216.548,439.859ZM65.138,349.82c-.5.3-.778.646-.762.977,0,.315.282.662.762.944l148.33,85.633a6.03,6.03,0,0,0,6.177-.033,175.082,175.082,0,0,0,83.547-148.678V229.841a5.548,5.548,0,0,0-2.451-4.256L151.765,139.571a1.294,1.294,0,0,0-1.192-.2,1.32,1.32,0,0,0-.431,1.143v58.822a176.746,176.746,0,0,1-85,150.483Z" transform="translate(-62.72 -137.649)" fill="#e0e0e0"/>
        </g>
        <g id="XMLID_981_" transform="translate(69.608 67.132)">
          <path id="XMLID_983_" d="M171.394,183.385l39.91,23.052A7.679,7.679,0,0,1,214.9,212.4c0,2.153-1.606,2.964-3.594,1.822l-39.91-23.052a7.679,7.679,0,0,1-3.594-5.962C167.817,183.054,169.423,182.242,171.394,183.385Z" transform="translate(-63.392 -175.117)" fill="#e0e0e0"/>
          <path id="XMLID_17635_" d="M174.277,207.686c0,2.153-1.606,2.964-3.594,1.822l-39.91-23.035a7.676,7.676,0,0,1-3.594-5.945c0-2.153,1.606-2.964,3.594-1.822l39.91,23.035A7.625,7.625,0,0,1,174.277,207.686Z" transform="translate(-90.04 -178.187)" fill="#e0e0e0"/>
          <path id="XMLID_17393_" d="M240.375,264.493c-.3,1.971-2.186,2.633-4.173,1.49L129.041,204.114a6.1,6.1,0,0,1-3.014-5.647c.3-1.971,2.1-2.65,4.074-1.507L237.3,258.846A6.182,6.182,0,0,1,240.375,264.493Z" transform="translate(-90.824 -166.236)" fill="#e0e0e0"/>
          <path id="XMLID_18074_" d="M237.731,276.96c-.513,1.855-2.583,2.4-4.554,1.259L126.015,216.332c-1.987-1.143-3.13-3.56-2.617-5.4.513-1.855,2.5-2.434,4.471-1.292l107.178,61.886C237.019,272.671,238.244,275.1,237.731,276.96Z" transform="translate(-92.601 -157.937)" fill="#e0e0e0"/>
          <path id="XMLID_18081_" d="M233.744,288.626c-.712,1.739-2.915,2.2-4.9,1.06L121.664,227.817c-1.987-1.143-2.964-3.461-2.252-5.2s2.848-2.236,4.819-1.093l107.178,61.886C233.4,284.552,234.456,286.9,233.744,288.626Z" transform="translate(-95.288 -150.161)" fill="#e0e0e0"/>
          <path id="XMLID_18085_" d="M228.52,299.59c-.894,1.623-3.279,1.987-5.25.845L116.109,238.582c-1.987-1.143-2.832-3.362-1.938-5,.894-1.623,3.2-2.037,5.183-.894l107.178,61.869C228.52,295.7,229.43,297.967,228.52,299.59Z" transform="translate(-98.808 -142.859)" fill="#e0e0e0"/>
          <path id="XMLID_17308_" d="M172.579,285.935c-1.143,1.49-3.71,1.739-5.68.6l-60.1-34.694c-1.987-1.143-2.633-3.262-1.474-4.736,1.143-1.49,3.66-1.789,5.631-.646l60.1,34.71C173.043,282.309,173.738,284.462,172.579,285.935Z" transform="translate(-104.753 -133.858)" fill="#e0e0e0"/>
        </g>
        <g id="XMLID_987_" transform="translate(46.204 231.22)">
          <path id="XMLID_982_" d="M159.908,289.41s-31.514,20.783-69.288,22.224c7.7,4.438,25.072,6.293,38.486,4.438,0,0-1.871,7.8-15.4,17.786,0,0,22.009,5.929,61.588-35.555Z" transform="translate(-90.62 -269.31)" fill="#bf00ff"/>
          <g id="XMLID_985_" transform="translate(64.758)">
            <g id="Group_1424" data-name="Group 1424" transform="translate(0 2.07)">
              <path id="XMLID_17634_" d="M167.541,304.352c-6.74,6.856-20.336,7.436-29.626,2.07s-10.748-14.623-4.008-21.479,19.094-8.644,28.384-3.3C171.581,287.014,174.281,297.5,167.541,304.352Z" transform="translate(-129.725 -278.523)" fill="#8600b2"/>
              <path id="XMLID_5_" d="M167.541,304.352c-6.74,6.856-20.336,7.436-29.626,2.07s-10.748-14.623-4.008-21.479,19.094-8.644,28.384-3.3C171.581,287.014,174.281,297.5,167.541,304.352Z" transform="translate(-129.725 -278.523)" opacity="0.2"/>
            </g>
            <path id="XMLID_984_" d="M167.541,303.1c-6.74,6.856-20.336,7.436-29.626,2.07s-10.748-14.623-4.008-21.479,19.094-8.644,28.384-3.3C171.581,285.764,174.281,296.246,167.541,303.1Z" transform="translate(-129.725 -277.273)" fill="#bf00ff"/>
            <g id="Group_1425" data-name="Group 1425" transform="translate(4.967 4.98)">
              <path id="XMLID_986_" d="M149.957,301.825a23.415,23.415,0,0,1-11.526-2.931c-3.3-1.9-5.3-4.388-5.647-7.005-.4-2.865,1.259-5.216,2.7-6.674a18.236,18.236,0,0,1,12.851-4.935,19.04,19.04,0,0,1,9.506,2.467c3.594,2.07,6.011,5.25,6.442,8.479a7.459,7.459,0,0,1-2.252,6.442C159.429,300.3,155.024,301.825,149.957,301.825Z" transform="translate(-132.724 -280.28)" fill="#bf00ff"/>
              <path id="XMLID_6_" d="M149.957,301.825a23.415,23.415,0,0,1-11.526-2.931c-3.3-1.9-5.3-4.388-5.647-7.005-.4-2.865,1.259-5.216,2.7-6.674a18.236,18.236,0,0,1,12.851-4.935,19.04,19.04,0,0,1,9.506,2.467c3.594,2.07,6.011,5.25,6.442,8.479a7.459,7.459,0,0,1-2.252,6.442C159.429,300.3,155.024,301.825,149.957,301.825Z" transform="translate(-132.724 -280.28)" opacity="0.3"/>
            </g>
            <g id="Group_1426" data-name="Group 1426" transform="translate(5.076 7.05)">
              <path id="XMLID_15612_" d="M157.8,284a19.084,19.084,0,0,0-9.506-2.467,18.207,18.207,0,0,0-12.851,4.935,9.215,9.215,0,0,0-2.65,4.769c.414,2.55,2.4,4.968,5.614,6.823a23.414,23.414,0,0,0,11.526,2.931c5.067,0,9.456-1.524,12.072-4.19a7.634,7.634,0,0,0,2.236-4.388C163.791,289.214,161.373,286.067,157.8,284Z" transform="translate(-132.79 -281.53)" fill="#bc5efa"/>
              <path id="XMLID_4_" d="M157.8,284a19.084,19.084,0,0,0-9.506-2.467,18.207,18.207,0,0,0-12.851,4.935,9.215,9.215,0,0,0-2.65,4.769c.414,2.55,2.4,4.968,5.614,6.823a23.414,23.414,0,0,0,11.526,2.931c5.067,0,9.456-1.524,12.072-4.19a7.634,7.634,0,0,0,2.236-4.388C163.791,289.214,161.373,286.067,157.8,284Z" transform="translate(-132.79 -281.53)" fill="#bc5efa" opacity="0.2"/>
            </g>
          </g>
        </g>
      </g>
      <g id="Group_1434" data-name="Group 1434" transform="translate(178.943 260.579)">
        <g id="XMLID_18328_" transform="translate(0)">
          <circle id="XMLID_18367_" cx="17.348" cy="17.348" r="17.348" transform="translate(33.97 34.056) rotate(-75.736)" fill="#263238"/>
          <g id="XMLID_18338_">
            <g id="XMLID_18339_">
              <g id="XMLID_18340_">
                <rect id="XMLID_18363_" width="12.21" height="20.919" transform="translate(84.361 314.971)" fill="#ffa8a7"/>
                <path id="XMLID_18362_" d="M189.552,399.78l-12.21.415-.622-22.14,12.832-.415Z" transform="translate(-135.325 -85.915)" fill="#ffa8a7"/>
                <path id="XMLID_18361_" d="M234.952,309.94c0,11.657,1.5,95.816,1.5,95.816.276,3.364,3.433,9.538,2.742,22.439-.922,17.509-2.926,71.419-2.926,71.419a16.1,16.1,0,0,1-13.593.276s-10.782-71.649-12.971-89c-1.912-15.136-5.161-56.282-5.161-56.282l-6.612,49.44a69.354,69.354,0,0,1,1.521,19.421c-.576,8.017-5.276,57.734-5.276,57.734s-5.76,3.893-14.1,1.083c0,0-6.174-70.866-6.312-78.215-.161-8.386,4.055-94.111,4.055-94.111h57.135Z" transform="translate(-139.187 -174.184)"/>
                <path id="XMLID_18360_" d="M228.335,287.52s4.539,2.765,4.539,13.846V325.3l.346,45.2c-17.532,9.238-39.672,9.768-58.379-3.87,0,0,.9-58.079.9-67.594s5.3-21.886,19.905-22.739l18.845,4.377Z" transform="translate(-137.776 -218.044)" fill="#fff"/>
                <g id="XMLID_18192_" transform="translate(0 57.894)">
                  <path id="XMLID_18191_" d="M196.807,333.255c5.667-23.8,7.534-47.6,8.5-53.725L189.619,304.6s-3.479,19.467-5.253,29.788c-1.567,9.054-6.773,25.365-9.768,32.484-.53,1.267-3.156,2.972-4.377,3.571-3.318,1.59-4.792,3.433-7.4,5.6-2.05,1.7-3.64,2-3.479,2.626a3.026,3.026,0,0,0,3.686,1.8,19.737,19.737,0,0,0,4.654-1.889,27.934,27.934,0,0,1-5.368,7.211c-4.953,4.815-5.506,8.063,3.248,9.146,5.483.668,10.252-2.212,15.758-13.846a99.748,99.748,0,0,0,5.414-13.132C190.172,356.247,195.1,340.443,196.807,333.255Z" transform="translate(-158.752 -271.727)" fill="#ffa8a7"/>
                  <path id="XMLID_18193_" d="M200.17,276.5c-5.276-.852-8.916-.392-12.533,3.5-2.281,2.442-4.631,6.5-8.593,30.871-3.433,21.2-13.224,56.19-13.224,56.19s5.16,6.266,13.339,4.815l17.233-63.4Z" transform="translate(-149.536 -276.143)" fill="#bc5efa"/>
                </g>
                <path id="XMLID_18151_" d="M197.72,277.325s-6.612,5.253-8.386,12.994-2.073,94.318-2.073,94.318-9.192-1.7-13.5-5.068V300.455C173.76,289.121,176.294,271.888,197.72,277.325Z" transform="translate(-139.184 -218.056)" fill="#bf00ff"/>
                <path id="XMLID_18153_" d="M198.624,278.64s-10.229,10.621-10.459,36.539c-.207,25.918-.645,71.372-.645,71.372s18.016,3.663,30.848-4.009c0,0-1.451-64.922-1.7-74.667-.276-11.151,2.972-20.619-3.294-23.752A94.052,94.052,0,0,0,198.624,278.64Z" transform="translate(-121.243 -214.993)" fill="#bf00ff"/>
                <g id="XMLID_18343_" transform="translate(38.578)">
                  <g id="XMLID_18353_">
                    <path id="XMLID_18359_" d="M199.845,265.72s-2.811,13.2-3.94,15.367a6.008,6.008,0,0,1-3.456,2.788l.207-9.284Z" transform="translate(-153.394 -231.839)" fill="#263238"/>
                    <path id="XMLID_18358_" d="M195.134,257.538a6.486,6.486,0,0,1,5.391,1.889c2.3,2.373,1.014,9.768-1.866,17.025l-5.3.6Z" transform="translate(-152.207 -242.571)" fill="#263238"/>
                    <path id="XMLID_18357_" d="M214.013,281.63c1.06.645,2.58-1.405,3.893-2.765s5.575-3.248,7.718,1.244c2.166,4.585-1.889,10.621-5.253,11.68-5.806,1.82-6.658-1.889-6.658-1.889l-.438,20.919-20.089,13.247s-1.29-7.28,1.221-13.8l.023-6.359s-5.253.806-7.81.392c-4.262-.668-6.934-4.032-8.248-8.639-2.073-7.418-2.857-13.408-1.106-27.968,1.935-15.989,20.527-16.15,30.549-9.837S214.013,281.63,214.013,281.63Z" transform="translate(-174.45 -247.15)" fill="#ffa8a7"/>
                    <path id="XMLID_18150_" d="M183.62,295.16l20.158-16.4.046-2.626s4.677.922,5.276,7.487l-12.233,18.638-5.184-9.722Z" transform="translate(-164.906 -218.266)" fill="#f0f0f0"/>
                    <path id="XMLID_18152_" d="M190.757,275.64s-4.354.576-6.266,3.755-5.391,16.4-5.391,16.4l6.52-5.022,3.893,5.022a41.348,41.348,0,0,1,1.221-13.8Z" transform="translate(-170.8 -218.905)" fill="#f0f0f0"/>
                    <path id="XMLID_18356_" d="M215.06,287.291c.53,0,2.557-3.364,3.893-4.562,1.82-1.659-.53-16.749-.53-16.749s1.751-3.755-1.774-7.626c-2.511-2.765-6.7-3.064-13.846-4.193-3.755-.6-9.446-1.636-13.2-2.327-4.469-.829-8.179-1.7-11.335,1.037a7.917,7.917,0,0,0-2.189,8.893,6.969,6.969,0,0,0,1.267,1.889,7.259,7.259,0,0,0,3.225,2.212s1.958,1.728,8.755,2.557,17.371-.161,18.822-.346c1.958-.276,2.4,1.636,3.456,6.842C212.5,279.481,213.263,287.245,215.06,287.291Z" transform="translate(-175.497 -251.013)" fill="#263238"/>
                    <path id="XMLID_18355_" d="M194.342,261.124l6.428-3.456a3.547,3.547,0,0,0-4.861-1.613A3.863,3.863,0,0,0,194.342,261.124Z" transform="translate(-151.439 -244.982)" fill="#263238"/>
                    <path id="XMLID_18354_" d="M184.16,280.308s9.515-1.912,12.855-3.686a10.879,10.879,0,0,0,4.608-4.562,14.961,14.961,0,0,1-2.6,5.368c-2.442,3.11-14.837,5.391-14.837,5.391Z" transform="translate(-164.202 -223.573)" fill="#f28f8f"/>
                  </g>
                  <g id="XMLID_18346_" transform="translate(4.786 22.657)">
                    <path id="XMLID_18352_" d="M185.15,266.071a1.913,1.913,0,1,0,1.912-1.981A1.938,1.938,0,0,0,185.15,266.071Z" transform="translate(-167.698 -256.621)" fill="#263238"/>
                    <path id="XMLID_18351_" d="M186.03,262.538l4.078,2.258a2.443,2.443,0,0,0-.945-3.248A2.291,2.291,0,0,0,186.03,262.538Z" transform="translate(-166.55 -260.299)" fill="#263238"/>
                    <path id="XMLID_18350_" d="M186.994,270.67l-4.354,1.636a2.3,2.3,0,0,0,2.949,1.451A2.435,2.435,0,0,0,186.994,270.67Z" transform="translate(-170.97 -248.042)" fill="#f28f8f"/>
                    <path id="XMLID_18349_" d="M178.025,264.677l3.709-2.857a2.259,2.259,0,0,0-3.225-.507A2.484,2.484,0,0,0,178.025,264.677Z" transform="translate(-177.575 -260.848)" fill="#263238"/>
                    <path id="XMLID_18348_" d="M178.27,265.831a1.913,1.913,0,1,0,1.912-1.981A1.953,1.953,0,0,0,178.27,265.831Z" transform="translate(-176.668 -256.934)" fill="#263238"/>
                    <path id="XMLID_18347_" d="M186.232,263.93l-.645,11.473-5.967-2.05Z" transform="translate(-174.908 -256.83)" fill="#f28f8f"/>
                  </g>
                </g>
                <path id="XMLID_18342_" d="M206.3,395.181V393.43c-1.175.507-3.893,10.874-8.731,15.3-3.847,3.525-9.1,7.58-10.436,11.5-1.382,4.078,7.326,6.336,10.92,5.69,4.193-.737,11.427-3.686,13.247-6.4s2.672-6.75,4.147-8.755,4.884-4.239,5.69-6.543c.438-1.267-.092-4.055-.691-6.4-.576-2.166-1.175-4.539-1.912-4.331v1.336c-.9.991-3.341,1.958-6.105,2.073C210.609,396.886,206.278,396.54,206.3,395.181Z" transform="translate(-121.94 -65.328)" fill="#263238"/>
                <path id="XMLID_18341_" d="M193.369,386.25c-.645.023-1.152.922-2.557,2.442a26.421,26.421,0,0,1-7.188,5.161c-4.585,2.281-13.477,5.806-17.486,7.626-2.511,1.129-2.4,4.17.207,5.9s8.87,2.972,16.4,1.29c4.1-.921,9.446-4.7,12.832-4.515,3.387.207,9.7.161,12.21-1.566,2.488-1.728,1.5-5.391.783-8.547-.76-3.456-1.728-8.824-2.88-8.593v1.2c-1.474,2.235-9.054,3.133-12.279,1.5Z" transform="translate(-151.49 -75.749)" fill="#263238"/>
              </g>
            </g>
          </g>
          <path id="XMLID_18334_" d="M196.752,334.835s-9.768-2.742-17-9.745c0,0,3.271,6.151,13.04,11.865l-2.1,43.1Z" transform="translate(-131.374 -154.431)" fill="#263238"/>
        </g>
        <path id="XMLID_18157_" d="M191.163,284.955c-.691-1.659-3.087-2.419-5.345-2.465a3.4,3.4,0,0,0-3.456,3.548,14.477,14.477,0,0,0,1.175,5.506,8.359,8.359,0,0,1,5.091.461A16.1,16.1,0,0,0,191.163,284.955Z" transform="translate(-127.973 -209.974)" fill="#263238"/>
        <path id="XMLID_18160_" d="M185.205,286.764s-4.239,34.857-4.124,36.907,4.446,14.122,6.658,14.122c2.442,0,6.543-10.851,6.658-12.556s-4.1-38.013-4.1-38.013A4.366,4.366,0,0,0,185.205,286.764Z" transform="translate(-129.641 -205.194)" fill="#263238"/>
        <path id="XMLID_18187_" d="M201.2,423.242l-8.939-5.161a3.611,3.611,0,0,1-1.636-2.811V364.426a3.575,3.575,0,0,1,1.636-2.811l60.8-35.11a3.518,3.518,0,0,1,3.248,0l8.939,5.161a3.611,3.611,0,0,1,1.636,2.811v50.845a3.575,3.575,0,0,1-1.636,2.811l-60.8,35.11A3.661,3.661,0,0,1,201.2,423.242Z" transform="translate(-117.189 -153.104)" fill="#bf00ff"/>
        <path id="XMLID_18186_" d="M190.643,343.653a3.343,3.343,0,0,1,.484-1.613l13.247,7.649v52.827a3.613,3.613,0,0,1-3.156-.046l-8.962-5.161a3.674,3.674,0,0,1-1.636-2.811Z" transform="translate(-117.202 -132.331)" fill="#f28f8f"/>
        <g id="Group_1427" data-name="Group 1427" transform="translate(73.418 209.709)">
          <path id="XMLID_18094_" d="M190.643,343.653a3.343,3.343,0,0,1,.484-1.613l13.247,7.649v52.827a3.613,3.613,0,0,1-3.156-.046l-8.962-5.161a3.674,3.674,0,0,1-1.636-2.811Z" transform="translate(-190.62 -342.04)" fill="#bc5efa"/>
          <path id="XMLID_7_" d="M190.643,343.653a3.343,3.343,0,0,1,.484-1.613l13.247,7.649v52.827a3.613,3.613,0,0,1-3.156-.046l-8.962-5.161a3.674,3.674,0,0,1-1.636-2.811Z" transform="translate(-190.62 -342.04)" opacity="0.2"/>
        </g>
        <path id="XMLID_18185_" d="M197.556,364.562l60.8-35.11c.9-.507,1.636-.092,1.636.945v50.845a3.575,3.575,0,0,1-1.636,2.811l-60.8,35.11c-.9.53-1.636.092-1.636-.945V367.373A3.611,3.611,0,0,1,197.556,364.562Z" transform="translate(-110.291 -149.025)" fill="#bc5efb"/>
        <g id="Group_1428" data-name="Group 1428" transform="translate(78.763 175.543)">
          <path id="XMLID_18184_" d="M196.1,364.117a3.611,3.611,0,0,0-1.636,2.811v52.711l-1.52-.875V366.052a3.575,3.575,0,0,1,1.636-2.811l62.434-36.032,1.521.875Z" transform="translate(-192.94 -327.21)" fill="#8600b2"/>
          <path id="XMLID_11_" d="M196.1,364.117a3.611,3.611,0,0,0-1.636,2.811v52.711l-1.52-.875V366.052a3.575,3.575,0,0,1,1.636-2.811l62.434-36.032,1.521.875Z" transform="translate(-192.94 -327.21)" opacity="0.3"/>
        </g>
        <g id="Group_1429" data-name="Group 1429" transform="translate(79.247 175.589)">
          <path id="XMLID_18183_" d="M194.3,363.216,256.62,327.23l1.567.852-62.364,36.009a3.468,3.468,0,0,0-1.152,1.221l-1.521-.876h0A3.469,3.469,0,0,1,194.3,363.216Z" transform="translate(-193.15 -327.23)" fill="#8600b2"/>
          <path id="XMLID_16_" d="M194.3,363.216,256.62,327.23l1.567.852-62.364,36.009a3.468,3.468,0,0,0-1.152,1.221l-1.521-.876h0A3.469,3.469,0,0,1,194.3,363.216Z" transform="translate(-193.15 -327.23)" opacity="0.2"/>
        </g>
        <g id="XMLID_18180_" transform="translate(89.153 201.778)">
          <g id="Group_1430" data-name="Group 1430" transform="translate(0 0.898)">
            <path id="XMLID_18182_" d="M198.141,339.8l1.083-.622a1.854,1.854,0,0,1,1.636,0l4.124,2.373.691-.207v.875h0a.554.554,0,0,1-.346.461l-1.428.829a1.855,1.855,0,0,1-1.636,0l-4.469-2.58c-.23-.138-.346-.3-.346-.461h0v-.876Z" transform="translate(-197.45 -338.987)" fill="#6b008f"/>
            <path id="XMLID_19_" d="M198.141,339.8l1.083-.622a1.854,1.854,0,0,1,1.636,0l4.124,2.373.691-.207v.875h0a.554.554,0,0,1-.346.461l-1.428.829a1.855,1.855,0,0,1-1.636,0l-4.469-2.58c-.23-.138-.346-.3-.346-.461h0v-.876Z" transform="translate(-197.45 -338.987)" opacity="0.2"/>
          </g>
          <path id="XMLID_18181_" d="M197.786,339.617l1.428-.829a1.855,1.855,0,0,1,1.636,0l4.469,2.58c.438.253.438.668,0,.945l-1.428.829a1.855,1.855,0,0,1-1.636,0l-4.469-2.58A.5.5,0,0,1,197.786,339.617Z" transform="translate(-197.44 -338.597)" fill="#bc5efb"/>
        </g>
        <g id="XMLID_20_" transform="translate(123.711 183.348)">
          <g id="Group_1431" data-name="Group 1431" transform="translate(0 0.898)">
            <path id="XMLID_23_" d="M213.141,331.8l1.083-.622a1.854,1.854,0,0,1,1.636,0l4.124,2.373.691-.207v.875h0a.554.554,0,0,1-.346.461l-1.428.829a1.854,1.854,0,0,1-1.636,0l-4.469-2.58c-.23-.138-.346-.3-.346-.461h0v-.875Z" transform="translate(-212.45 -330.987)" fill="#6b008f"/>
            <path id="XMLID_22_" d="M213.141,331.8l1.083-.622a1.854,1.854,0,0,1,1.636,0l4.124,2.373.691-.207v.875h0a.554.554,0,0,1-.346.461l-1.428.829a1.854,1.854,0,0,1-1.636,0l-4.469-2.58c-.23-.138-.346-.3-.346-.461h0v-.875Z" transform="translate(-212.45 -330.987)" opacity="0.2"/>
          </g>
          <path id="XMLID_21_" d="M212.786,331.617l1.428-.829a1.855,1.855,0,0,1,1.636,0l4.469,2.58c.438.253.438.668,0,.945l-1.428.829a1.854,1.854,0,0,1-1.636,0l-4.469-2.58A.5.5,0,0,1,212.786,331.617Z" transform="translate(-212.44 -330.598)" fill="#bc5efb"/>
        </g>
        <g id="Group_1432" data-name="Group 1432" transform="translate(114.611 180.637)">
          <path id="XMLID_18167_" d="M208.5,330.916v5.276l3.041,1.751V329.88c0-.415-.3-.576-.645-.369Z" transform="translate(-208.5 -329.421)" fill="#6b008f"/>
          <path id="XMLID_18_" d="M208.5,330.916v5.276l3.041,1.751V329.88c0-.415-.3-.576-.645-.369Z" transform="translate(-208.5 -329.421)" opacity="0.3"/>
        </g>
        <path id="XMLID_18166_" d="M201.56,338.778v9.814l2.258,1.313,1.521-.875v-8.063a1.474,1.474,0,0,1,.645-1.129l11.542-6.658,2.4-1.382c.369-.207.645-.046.645.369v8.063l1.521-.875V329.4a1.415,1.415,0,0,0-.645-.991l-.968-.553a1.415,1.415,0,0,0-1.29,0l-17,9.814A1.434,1.434,0,0,0,201.56,338.778Z" transform="translate(-102.938 -151.025)" fill="#bc5efb"/>
        <g id="Group_1433" data-name="Group 1433" transform="translate(100.88 178.012)">
          <path id="XMLID_18163_" d="M202.54,339.313v9.814l1.521-.875v-8.063a1.474,1.474,0,0,1,.645-1.129l11.542-6.658,2.4-1.382c.369-.207.645-.046.645.369v8.063l1.521-.875v-9.952c-.046-.323-.323-.438-.645-.253l-17,9.814A1.56,1.56,0,0,0,202.54,339.313Z" transform="translate(-202.54 -328.282)" fill="#bc5efa"/>
          <path id="XMLID_17_" d="M202.54,339.313v9.814l1.521-.875v-8.063a1.474,1.474,0,0,1,.645-1.129l11.542-6.658,2.4-1.382c.369-.207.645-.046.645.369v8.063l1.521-.875v-9.952c-.046-.323-.323-.438-.645-.253l-17,9.814A1.56,1.56,0,0,0,202.54,339.313Z" transform="translate(-202.54 -328.282)" opacity="0.2"/>
        </g>
        <path id="XMLID_18080_" d="M216.237,323.009s-.069,3.041,0,4.331c.069,1.313,1.8,8.155,1.774,12.1.3,1.428-1.659,4.262-4.953,5.806-1.405.645-3.824,2.926-4.953,3.041-.76.069-2.857-1.175-2.857-1.175l1.382-.806s1.912-2.788-.184-4.262l-4.147,2.4a10.194,10.194,0,0,1,0-3.778c.392-2.074.438-4.746.76-6.911a14.16,14.16,0,0,1,2.166-4.792l-.691-6.842Z" transform="translate(-102.202 -158.316)" fill="#ffa8a7"/>
        <path id="XMLID_18079_" d="M199.179,280.27s7.119,2.58,10.3,5.115c2.557,2.05,17.486,44.809,18.062,48.657S225.9,378.39,225.9,378.39s-5.575,4.285-13.546.875l-2.4-40.593-12.832-33.428S192.314,291.259,199.179,280.27Z" transform="translate(-110.855 -212.868)" fill="#bc5efa"/>
      </g>
    </g>
  </g>
</svg>
