<svg xmlns="http://www.w3.org/2000/svg" width="65.451" height="90" viewBox="0 0 65.451 90">
  <g id="Clients_Recommending" data-name="Clients Recommending" transform="translate(-20 2)">
    <path id="Union_12" data-name="Union 12" d="M43.4,89.8c-.626-.316-15.376-7.822-19.246-15.562-2.413-4.834-.894-11.67,3.392-15.245,2.087-1.743,7.785-4.992,16.685,1.1,8.9-6.088,14.6-2.841,16.685-1.1C65.2,62.571,66.719,69.41,64.3,74.241,60.432,81.98,45.681,89.487,45.056,89.8a1.841,1.841,0,0,1-1.658,0Zm8.2-21.916A3.686,3.686,0,1,0,55.285,64.2,3.687,3.687,0,0,0,51.6,67.887ZM3.686,82.63A3.687,3.687,0,0,1,0,78.944V49.459A11.069,11.069,0,0,1,11.057,38.4H40.542A11.068,11.068,0,0,1,51.6,49.459v3.594a21.348,21.348,0,0,0-7.371,2.69,19.762,19.762,0,0,0-9.8-2.874,14.432,14.432,0,0,0-9.248,3.3c-5.621,4.685-7.517,13.348-4.33,19.724A24.821,24.821,0,0,0,26.26,82.63Zm3.685-64.2A18.428,18.428,0,1,1,25.8,36.856,18.428,18.428,0,0,1,7.372,18.428Z" transform="translate(20 -2)" fill="#bf00ff"/>
  </g>
</svg>
