<svg id="Countries" xmlns="http://www.w3.org/2000/svg" width="90" height="90" viewBox="0 0 90 90">
  <path id="Path_1522" data-name="Path 1522" d="M83.966,22.412A44.811,44.811,0,0,0,67.589,6.035,44.018,44.018,0,0,0,45,0,44.02,44.02,0,0,0,22.413,6.035,44.8,44.8,0,0,0,6.036,22.412,44.016,44.016,0,0,0,0,45,44.027,44.027,0,0,0,6.035,67.588,44.822,44.822,0,0,0,22.412,83.965,44.022,44.022,0,0,0,45,90a44.022,44.022,0,0,0,22.589-6.035A44.8,44.8,0,0,0,83.965,67.588,44.028,44.028,0,0,0,90,45,44.03,44.03,0,0,0,83.966,22.412ZM50.629,68.676c-.393-.468-.528-.859-.41-1.173a.86.86,0,0,1-.41.527,5.588,5.588,0,0,0-1.055-.878,5.529,5.529,0,0,1-1.055-.881c-.079-.117-.185-.282-.322-.5s-.312-.5-.527-.85a5.9,5.9,0,0,1-.468-.909c-.1-.254-.106-.4-.03-.438q-1.113.47-3.222-.645A5.766,5.766,0,0,1,41.9,61.7a1.907,1.907,0,0,0-1.7-.879q-.292.059-.791.205a3.064,3.064,0,0,1-.849.146,2.674,2.674,0,0,1-.938-.235,7.555,7.555,0,0,1-1.259-.673,8.4,8.4,0,0,0-1.084-.614l-.762-.41-.937-.468a2.878,2.878,0,0,1-.733-.556,1.857,1.857,0,0,1-.5-.792,11.281,11.281,0,0,1-.293-1.407,4.377,4.377,0,0,0-.469-1.523,5.282,5.282,0,0,0-1-1.171,1.847,1.847,0,0,0-1.171-.587c.313,0,.313-.262,0-.791A5.936,5.936,0,0,0,28.6,50.8c-.078-.079-.313-.332-.7-.763s-.723-.8-1-1.114a4.683,4.683,0,0,1-.7-1.084,1.243,1.243,0,0,1-.117-1.026c.039-.039,0-.1-.117-.175a3.036,3.036,0,0,0-.439-.235c-.175-.077-.342-.146-.5-.205a1.153,1.153,0,0,0-.352-.087,4.477,4.477,0,0,1,.264.85,3.373,3.373,0,0,0,.322.909q.118.234,1,1.7,1.524,2.461,1.407,3.634c-.235.077-.391.039-.469-.117a2.133,2.133,0,0,1-.176-.645,3.684,3.684,0,0,0-.117-.586,2.2,2.2,0,0,0-.909-.763,1.99,1.99,0,0,1-.908-.82.273.273,0,0,0,.147-.059.283.283,0,0,1,.147-.057,2.013,2.013,0,0,0-.615-1.349q-.674-.819-.557-1.171a2.87,2.87,0,0,1-.821-1.376,5.167,5.167,0,0,0-.586-1.319,2.506,2.506,0,0,0-.586-.615q-.352-.263-.879-.586t-.7-.439a2.256,2.256,0,0,1-.469-.526q-1.933-2.345-1.171-2.52-.762.175-1.26-1.143a3.649,3.649,0,0,1-.322-2.022l-.117-.058a8.688,8.688,0,0,0,.059-1.377,13.55,13.55,0,0,1,.147-2.08q.147-.937.557-.938-.41.058-.615-.732a1.568,1.568,0,0,1-.03-1.084c.039-.117.215-.038.527.235a3,3,0,0,1,.527.527q.762-.411.586-1.055A8.043,8.043,0,0,0,17.818,29.3a21.811,21.811,0,0,0-2.578-1.582.822.822,0,0,0-.176-1.113q-.586.352-.674.176a2.269,2.269,0,0,1-.147-.644c-.039-.312-.137-.488-.292-.527a1.548,1.548,0,0,1-.7-.469A36.978,36.978,0,0,1,27.017,12.132a9.377,9.377,0,0,1,1.289-.058,2.342,2.342,0,0,1,.879.293,4.623,4.623,0,0,1,.849.644q.44.409.674.586a1.434,1.434,0,0,0-.293-1.055q.116-.352,1.289-.7a3.318,3.318,0,0,1,1.758.059,15.414,15.414,0,0,0-1.171-1.465L32,10.724q-.469-.41-2.461.41c-.078.039-.273.147-.586.322a6.85,6.85,0,0,1-.762.381,1.444,1.444,0,0,1-.7.059,33.193,33.193,0,0,1,5.508-2.4,5.786,5.786,0,0,1,.586.5q.41.381.644.557c-.117-.078-.2-.039-.235.117a1.511,1.511,0,0,0,0,1.171,1.089,1.089,0,0,0,.791.469,4.363,4.363,0,0,0,1.2-.059,7.3,7.3,0,0,1,.938-.117l.586.059q1.874.176,1.465-.352a3.761,3.761,0,0,1,.41.967,2.6,2.6,0,0,0,.527,1.026q.293-.236.117-.821a.962.962,0,0,1,0-.821.667.667,0,0,1,.352-.235q.293-.116.674-.263t.5-.205q.351-.235-.469-.821a4,4,0,0,0-.5-.176c-.254-.077-.479-.156-.674-.234a3.723,3.723,0,0,1-.615-.322A.5.5,0,0,1,39,9.463a1.585,1.585,0,0,1,.322-.674,1.6,1.6,0,0,1,1.143-.234,2.9,2.9,0,0,1,1.2.292q1.583.879.469,1.582a4.2,4.2,0,0,1,1.407.468q.819.411.644.88.469-.879.938-.88c.195.04.381.3.557.792a4.81,4.81,0,0,0,.321.791c.313.429.624.527.938.292a4.943,4.943,0,0,0,.966-1.025q.5-.673.556-.615c-.391-.156-.431-.312-.117-.469a1.875,1.875,0,0,1,1.582-.292,2.22,2.22,0,0,1,.468.526q.526,1.056-.175,1a1.278,1.278,0,0,1,.44,1.172c-.059.469-.363.684-.91.644a2.079,2.079,0,0,1-.851-.293,2.633,2.633,0,0,0-.85-.322,1.413,1.413,0,0,0-.82.322,7.415,7.415,0,0,0-.615,1,4.485,4.485,0,0,1-.674,1,3.457,3.457,0,0,1-2.93.644c.117,0,.107.117-.03.352a6.758,6.758,0,0,1-.557.791q-.352.439-.41.5a2.989,2.989,0,0,0-.7,1.348q0,.117-.059.791a2.947,2.947,0,0,1-.235,1.026q.7-.176,1.113.7.352.821,0,.879a6.917,6.917,0,0,1,3.4.235q2.109.762,2.4,1.523.35-.528,1.7-.059c.352.195.663.782.938,1.758a3.786,3.786,0,0,0,.791,1.523.961.961,0,0,0,1.2.352l.175-.117c.157-.078.283-.146.38-.2a2.478,2.478,0,0,0,.322-.235.556.556,0,0,0,.205-.263.248.248,0,0,0-.087-.235,2.116,2.116,0,0,1-.615-.966,1.232,1.232,0,0,1,.089-1.085,3.917,3.917,0,0,1,.937-.7,2.118,2.118,0,0,0,.937-.938,1.033,1.033,0,0,0-.585-1.26q-.82-.5-.821-.908a1.148,1.148,0,0,1,.38-.7.923.923,0,0,0,.322-.762A2.847,2.847,0,0,0,54,18.661a4.032,4.032,0,0,1-.234-.821.871.871,0,0,1,.263-.615,3.625,3.625,0,0,1,1.933.029,6.542,6.542,0,0,1,1.993.557,5.2,5.2,0,0,0,.762.352,7.056,7.056,0,0,1,1.026.5c.291.175.458.341.5.5h-.292a1.406,1.406,0,0,1,.5.821.61.61,0,0,1-.438.7,1.845,1.845,0,0,1,.937.175q.938.351.059.644a3.759,3.759,0,0,1,.5-.117,1.349,1.349,0,0,0,.5-.175A1.647,1.647,0,0,0,62.286,21a.965.965,0,0,1,.264-.175,1.871,1.871,0,0,1,.264-.059.478.478,0,0,1,.35.088c.041,0,.128-.1.264-.293s.284-.39.439-.585.292-.292.41-.292a.444.444,0,0,1,.321.146,1.23,1.23,0,0,1,.235.322c.059.117.116.244.175.38s.107.245.146.322a1.558,1.558,0,0,0,.556.615,1.571,1.571,0,0,1,.556.615c.039.117.116.41.234.88a1.929,1.929,0,0,0,.469.966,2.289,2.289,0,0,0,.878.439.922.922,0,0,0,.527-.058,1.4,1.4,0,0,1,.674-.059c.177.039.264.195.264.469q.351-.352.351-.469a2.472,2.472,0,0,0,.382,1.231,1.04,1.04,0,0,0,1.025.41l-.118,1.289a1.307,1.307,0,0,1-.879.439,3.2,3.2,0,0,0-.879.264,4.044,4.044,0,0,0-.85.7c-.449.43-.634.684-.556.762A2.853,2.853,0,0,0,64.8,28.71a14.741,14.741,0,0,0-3.047.7,4.262,4.262,0,0,0-1.289.879,1.843,1.843,0,0,0-.2.41q-.147.351-.292.644c-.1.195-.185.293-.263.293a1.5,1.5,0,0,0,.791-.556,3.391,3.391,0,0,1,.556-.557,3.152,3.152,0,0,1,2.523-.7q1.289.352.409.938c-.077.078-.283.107-.614.088a2.112,2.112,0,0,0-.674.03,3.1,3.1,0,0,1,.881.321.38.38,0,0,1,.175.557q.937.528.352,1.172a2.118,2.118,0,0,1-1.816.644q.177,0,0,.234l-1,.644q-.116.058-.761.293a1.99,1.99,0,0,0-.879.527,1.172,1.172,0,0,0-.175.7,3.112,3.112,0,0,1-.059.7c-.039.157-.2.195-.468.117q-.177.351-1.084.556a1.973,1.973,0,0,0-1.2.615.676.676,0,0,1-.059.938.75.75,0,0,1-1.23-.117.846.846,0,0,0-.44.586,1.087,1.087,0,0,1-.438.644c.274.43.233.743-.116.937a.808.808,0,0,1,.262.117,4.4,4.4,0,0,1,.44.293.851.851,0,0,0,.292.176c-.156.351-.372.526-.645.526q.352.938-.878,2.051a2.691,2.691,0,0,1-.733.469c-.334.156-.636.283-.91.38a1.911,1.911,0,0,0-.468.205,3.97,3.97,0,0,0-.879,1.084,1.266,1.266,0,0,0-.089,1.084,1.322,1.322,0,0,0,1.085.7l.057.468v1.054l.059.469q.06.41.089.733a5.815,5.815,0,0,1,0,.82c-.019.331-.107.518-.263.556a1.068,1.068,0,0,1-.644-.117q-.471-.234-1.115-2.578a3.912,3.912,0,0,0-.7-1.406,1.764,1.764,0,0,1-.5.38c-.136.059-.235.07-.292.03a3.86,3.86,0,0,1-.323-.263,3.913,3.913,0,0,0-.409-.322,3.11,3.11,0,0,0-1.026-.292,1.9,1.9,0,0,1-.908-.293q-1.408,1.057-1.7-.526a1.238,1.238,0,0,0,.03.791,4.6,4.6,0,0,1,.147.556q-.41.763-1.289.117-.352-.35-1.612-.087a3.368,3.368,0,0,1-1.67.087c.04,0,.117.058.235.176a1.6,1.6,0,0,1,.234.175.737.737,0,0,1-.176.351.249.249,0,0,1-.234.089.6.6,0,0,0-.264,0,.988.988,0,0,0-.264.087,3.619,3.619,0,0,0-.586.614,2.915,2.915,0,0,1-.527.556,3.865,3.865,0,0,1,.322,1.436q-.03.5-.176,1.465a10.827,10.827,0,0,0-.147,1.554,5.386,5.386,0,0,0,.557,2.167,3.717,3.717,0,0,0,1.318,1.7,3.465,3.465,0,0,0,1.407.292,3.424,3.424,0,0,0,1.406-.117,1.442,1.442,0,0,0,.527-.409,1.982,1.982,0,0,0,.293-.674q.117-.438.176-.614A1.617,1.617,0,0,1,45.408,55.9a1.717,1.717,0,0,1,1.027.146.516.516,0,0,1,.263.557,2.948,2.948,0,0,1-.233.732c-.118.254-.264.537-.44.85a3.239,3.239,0,0,0-.321.7,9.766,9.766,0,0,0-.205,1.319,7.249,7.249,0,0,1-.148,1.026,3.41,3.41,0,0,0,.879.058,1.392,1.392,0,0,1,.088-.381,1.666,1.666,0,0,0,.087-.322,1.157,1.157,0,0,0,.938.527.891.891,0,0,0,.938-.469q.118.176.7.88A2.532,2.532,0,0,1,49.63,62.7c.039.157.116.41.233.763a1.453,1.453,0,0,1,.118.733c-.039.135-.235.2-.586.2a.27.27,0,0,0-.292.175.8.8,0,0,0,0,.439,3.939,3.939,0,0,0,.146.5,3.814,3.814,0,0,0,.233.5,1.082,1.082,0,0,1,.148.321q1.053,1.932,2.871,1.055,0,1.7-.822,1.874C51.371,69.341,51.02,69.144,50.629,68.676ZM51.5,81.914a4.692,4.692,0,0,1-.112-.936,2.157,2.157,0,0,1,.409-1.26,2.71,2.71,0,0,0,.468-1.2q-.937-.234-.7-1.523a4.829,4.829,0,0,1,1.7-2.344,2.706,2.706,0,0,0,.7-2.813,16.2,16.2,0,0,1-.294-2.227,19.936,19.936,0,0,0-.235-2.051c0,.117.185.224.558.322s.6.225.674.379a3.549,3.549,0,0,0,.293-.643,2.98,2.98,0,0,1,.35-.7,2,2,0,0,1,.5-.44,5.755,5.755,0,0,1,.5-.322,4.487,4.487,0,0,0,.526-.38q.411-.322.675-.5a1.947,1.947,0,0,1,.7-.263.5.5,0,0,1,.614.263q.294.352-.116,1.084t0,1.027a4.368,4.368,0,0,0,.116-.763,1.418,1.418,0,0,1,.352-.88,1.333,1.333,0,0,1,.674-.409.835.835,0,0,1,.584.088,5.211,5.211,0,0,1,.615.409,1.648,1.648,0,0,0,.645.322,7.256,7.256,0,0,1,2.11,1.289c-.039-.04-.039-.088,0-.148a.617.617,0,0,1,.235-.175c.117-.057.223-.116.322-.175a1.641,1.641,0,0,1,.322-.145l.175-.059a2.013,2.013,0,0,0,.585-.059.673.673,0,0,1,.5.118,4,4,0,0,1,.438.263c.079.057.215.165.41.322a5.145,5.145,0,0,1,.409.351c.118.077.333.215.645.41s.558.351.733.468a1.538,1.538,0,0,1,.468.526,1.156,1.156,0,0,1,.148.763,9.251,9.251,0,0,1,1.406.468,2.1,2.1,0,0,0,.733.2,1.413,1.413,0,0,1,.732.263A36.218,36.218,0,0,1,51.5,81.914Z" transform="translate(0 0)" fill="#bf00ff"/>
</svg>
