<svg xmlns="http://www.w3.org/2000/svg" xmlns:xlink="http://www.w3.org/1999/xlink" width="726.206" height="509.257" viewBox="0 0 726.206 509.257">
  <defs>
    <linearGradient id="linear-gradient" x1="-4.58" y1="0.5" x2="-3.58" y2="0.5" gradientUnits="objectBoundingBox">
      <stop offset="0.424" stop-color="#ced3f4"/>
      <stop offset="0.465" stop-color="#d8dcf8"/>
      <stop offset="0.5" stop-color="#e5e9ff"/>
      <stop offset="0.536" stop-color="#d1d6f5"/>
      <stop offset="0.586" stop-color="#afb6e5"/>
    </linearGradient>
    <radialGradient id="radial-gradient" cx="0.5" cy="0.5" r="1.244" gradientTransform="translate(-2.871) scale(0.297 1)" gradientUnits="objectBoundingBox">
      <stop offset="0" stop-color="#fff"/>
      <stop offset="1"/>
    </radialGradient>
    <linearGradient id="linear-gradient-2" x1="0" y1="0.5" x2="1" y2="0.5" xlink:href="#linear-gradient"/>
    <radialGradient id="radial-gradient-2" cx="0.5" cy="0.5" r="1.244" gradientTransform="translate(0.352) scale(0.297 1)" xlink:href="#radial-gradient"/>
    <radialGradient id="radial-gradient-3" cx="0.4" cy="0.46" r="0.669" gradientTransform="translate(1.52) scale(0.501 1)" xlink:href="#radial-gradient"/>
    <radialGradient id="radial-gradient-4" cx="0.4" cy="0.46" r="0.669" gradientTransform="translate(1.52) scale(0.501 1)" xlink:href="#radial-gradient"/>
    <radialGradient id="radial-gradient-5" cx="0.4" cy="0.46" r="0.669" gradientTransform="translate(1.52) scale(0.501 1)" xlink:href="#radial-gradient"/>
    <radialGradient id="radial-gradient-6" cx="0.4" cy="0.46" r="0.669" gradientTransform="translate(1.52) scale(0.501 1)" xlink:href="#radial-gradient"/>
    <radialGradient id="radial-gradient-7" cx="0.4" cy="0.46" r="0.669" gradientTransform="translate(1.52) scale(0.501 1)" xlink:href="#radial-gradient"/>
    <radialGradient id="radial-gradient-8" cx="0.4" cy="0.46" r="0.669" gradientTransform="translate(1.52) scale(0.501 1)" xlink:href="#radial-gradient"/>
    <linearGradient id="linear-gradient-3" x1="-1.369" y1="0.5" x2="-0.369" y2="0.5" xlink:href="#linear-gradient"/>
    <radialGradient id="radial-gradient-9" cx="0.5" cy="0.5" r="1.244" gradientTransform="translate(-0.611) scale(0.297 1)" xlink:href="#radial-gradient"/>
    <radialGradient id="radial-gradient-10" cx="0.5" cy="0.5" r="1.244" xlink:href="#radial-gradient"/>
    <radialGradient id="radial-gradient-11" cx="0.6" cy="0.46" r="0.669" gradientTransform="matrix(-0.501, 0, 0, 1, 239.02, 0)" xlink:href="#radial-gradient"/>
    <radialGradient id="radial-gradient-12" cx="0.6" cy="0.46" r="0.669" gradientTransform="matrix(-0.501, 0, 0, 1, 238.28, 0)" xlink:href="#radial-gradient"/>
    <radialGradient id="radial-gradient-13" cx="0.6" cy="0.46" r="0.669" gradientTransform="matrix(-0.501, 0, 0, 1, 237.539, 0)" xlink:href="#radial-gradient"/>
    <radialGradient id="radial-gradient-14" cx="0.6" cy="0.46" r="0.669" gradientTransform="matrix(-0.501, 0, 0, 1, 232.048, 0)" xlink:href="#radial-gradient"/>
    <radialGradient id="radial-gradient-15" cx="0.6" cy="0.46" r="0.669" gradientTransform="matrix(-0.501, 0, 0, 1, 231.308, 0)" xlink:href="#radial-gradient"/>
    <radialGradient id="radial-gradient-16" cx="0.6" cy="0.46" r="0.669" gradientTransform="matrix(-0.501, 0, 0, 1, 230.566, 0)" xlink:href="#radial-gradient"/>
    <linearGradient id="linear-gradient-5" x1="0.674" y1="0.924" x2="0.302" y2="-0.058" gradientUnits="objectBoundingBox">
      <stop offset="0" stop-color="#404040"/>
      <stop offset="0.087" stop-color="#393939"/>
      <stop offset="0.227" stop-color="#404040"/>
      <stop offset="0.399"/>
      <stop offset="0.768"/>
      <stop offset="1" stop-color="#4e0070"/>
    </linearGradient>
    <linearGradient id="linear-gradient-7" x1="0.131" y1="0.002" x2="0.713" y2="1.005" gradientUnits="objectBoundingBox">
      <stop offset="0" stop-color="#6cf"/>
      <stop offset="0.005" stop-color="#f66"/>
      <stop offset="0.246" stop-color="#fd6262"/>
      <stop offset="0.713" stop-color="#f95858"/>
      <stop offset="1" stop-color="#f75252"/>
    </linearGradient>
    <linearGradient id="linear-gradient-9" x1="0.131" y1="0.002" x2="0.713" y2="1.005" gradientUnits="objectBoundingBox">
      <stop offset="0" stop-color="#c43232"/>
      <stop offset="0.254" stop-color="#ca4343"/>
      <stop offset="0.713" stop-color="#d53030"/>
      <stop offset="1" stop-color="#a80202"/>
    </linearGradient>
    <linearGradient id="linear-gradient-12" x1="0.375" y1="0.053" x2="1.417" y2="0.9" gradientUnits="objectBoundingBox">
      <stop offset="0" stop-color="#dbdbdb"/>
      <stop offset="0.141" stop-color="#b0b0b0"/>
      <stop offset="0.432" stop-color="#adadad"/>
      <stop offset="1" stop-color="#4f4f4f"/>
    </linearGradient>
    <linearGradient id="linear-gradient-13" x1="0.389" y1="0.053" x2="0.623" y2="0.976" gradientUnits="objectBoundingBox">
      <stop offset="0" stop-color="#565656"/>
      <stop offset="0.141" stop-color="#919191"/>
      <stop offset="0.432" stop-color="#8b8b8b"/>
      <stop offset="1" stop-color="#4f4f4f"/>
    </linearGradient>
    <linearGradient id="linear-gradient-14" x1="0.389" y1="0.053" x2="0.623" y2="0.976" xlink:href="#linear-gradient-12"/>
    <linearGradient id="linear-gradient-28" x1="247.058" y1="0.882" x2="246.216" y2="0.003" gradientUnits="objectBoundingBox">
      <stop offset="0.005" stop-color="#273b98"/>
      <stop offset="0.227" stop-color="#2e2ba2"/>
      <stop offset="0.399" stop-color="#361cac"/>
      <stop offset="0.768" stop-color="#440b88"/>
      <stop offset="1" stop-color="#4e0070"/>
    </linearGradient>
    <linearGradient id="linear-gradient-29" x1="224.34" y1="0.895" x2="223.579" y2="-0.041" xlink:href="#linear-gradient-28"/>
  </defs>
  <g id="Group_832" data-name="Group 832" transform="translate(-257.821 -116.608)">
    <g id="Group_808" data-name="Group 808" transform="translate(257.821 136.49)">
      <g id="Group_788" data-name="Group 788" transform="translate(225.965)">
        <path id="Path_1842" data-name="Path 1842" d="M642.041,201.1h-2.727a19.8,19.8,0,0,0-5.757-4.833l-106.2-61.312c-12.569-7.257-34.522-6.345-49.033,2.032l-98.208,56.7a29.125,29.125,0,0,0-8.779,7.412h-3.227v15.159h.086c.406,4.21,3.151,8.189,8.4,11.217l106.194,61.314c12.569,7.255,34.522,6.345,49.033-2.032l98.208-56.7c6.89-3.977,10.826-8.922,11.756-13.8h.25Z" transform="translate(-368.114 -122.389)" fill="url(#linear-gradient)"/>
        <path id="Path_1843" data-name="Path 1843" d="M482.794,279.566,376.6,218.252c-12.567-7.255-10.992-19.93,3.522-28.308l98.208-56.7c14.512-8.377,36.464-9.287,49.033-2.032l106.2,61.314c12.567,7.255,10.992,19.93-3.522,28.308l-98.208,56.7C517.316,285.911,495.363,286.821,482.794,279.566Z" transform="translate(-368.114 -126.312)" fill="#ebeeff"/>
        <path id="Path_1844" data-name="Path 1844" d="M630.026,178.694l-98.208,56.7c-14.512,8.38-36.464,9.289-49.033,2.032L376.59,176.115c-5.044-2.911-7.771-6.7-8.339-10.731-.774,5.222,1.938,10.324,8.339,14.018l106.194,61.314c12.569,7.255,34.522,6.345,49.033-2.032l98.208-56.7c8.689-5.015,12.7-11.567,11.858-17.578C641.136,169.436,637.149,174.582,630.026,178.694Z" transform="translate(-368.104 -86.365)" fill="url(#radial-gradient)" style="mix-blend-mode: color-dodge;isolation: isolate"/>
      </g>
      <g id="Group_789" data-name="Group 789" transform="translate(452.279 150.807)">
        <path id="Path_1845" data-name="Path 1845" d="M752.5,274.706h-2.729a19.689,19.689,0,0,0-5.757-4.833L637.824,208.561c-12.569-7.257-34.522-6.347-49.033,2.03l-98.208,56.7a29.124,29.124,0,0,0-8.779,7.412h-3.227v15.157h.086c.4,4.212,3.151,8.189,8.4,11.217l106.2,61.314c12.569,7.257,34.522,6.345,49.033-2.032l98.208-56.7c6.89-3.977,10.826-8.922,11.756-13.8h.25Z" transform="translate(-478.577 -195.997)" fill="url(#linear-gradient-2)"/>
        <path id="Path_1846" data-name="Path 1846" d="M593.257,353.174l-106.2-61.312c-12.567-7.257-10.992-19.93,3.522-28.31l98.208-56.7c14.511-8.379,36.464-9.289,49.033-2.032l106.194,61.312c12.569,7.257,10.994,19.93-3.52,28.31l-98.208,56.7C627.779,359.521,605.826,360.43,593.257,353.174Z" transform="translate(-478.577 -199.921)" fill="#ebeeff"/>
        <path id="Path_1847" data-name="Path 1847" d="M740.488,252.3,642.281,309c-14.512,8.379-36.464,9.289-49.033,2.034l-106.2-61.314c-5.042-2.911-7.769-6.7-8.336-10.729-.774,5.222,1.938,10.322,8.336,14.018l106.2,61.312c12.569,7.255,34.522,6.345,49.033-2.032l98.208-56.7c8.689-5.015,12.7-11.567,11.856-17.578C751.6,243.044,747.612,248.19,740.488,252.3Z" transform="translate(-478.567 -159.974)" fill="url(#radial-gradient-2)" style="mix-blend-mode: color-dodge;isolation: isolate"/>
      </g>
      <g id="Group_793" data-name="Group 793" transform="translate(402.106 251.511)">
        <g id="Group_790" data-name="Group 790" transform="translate(48.302)">
          <path id="Path_1848" data-name="Path 1848" d="M554.708,300.154v7.48l-77.045-44.128v-7.48Z" transform="translate(-477.663 -241.784)" fill="#ced3f4"/>
          <path id="Path_1849" data-name="Path 1849" d="M515.246,284.827v7.48L539.2,278.066v-7.427Z" transform="translate(-438.248 -226.458)" fill="#afb6e5"/>
          <path id="Path_1850" data-name="Path 1850" d="M578.613,293.255l-23.952,14.189-77-44.128,24.044-14.242Z" transform="translate(-477.663 -249.074)" fill="#ebeeff"/>
          <path id="Path_1851" data-name="Path 1851" d="M553.5,305.752l1.364-6.568,21.539-12.8-22.58,12.2L478.528,256.68l74.426,43.2Z" transform="translate(-476.757 -241.098)" fill="url(#radial-gradient-3)" style="mix-blend-mode: color-dodge;isolation: isolate"/>
        </g>
        <g id="Group_791" data-name="Group 791" transform="translate(24.151 21.191)">
          <path id="Path_1852" data-name="Path 1852" d="M542.92,310.5v7.48l-77.044-44.128v-7.48Z" transform="translate(-465.876 -252.127)" fill="#ced3f4"/>
          <path id="Path_1853" data-name="Path 1853" d="M503.458,295.171v7.48l23.952-14.241v-7.427Z" transform="translate(-426.46 -236.801)" fill="#afb6e5"/>
          <path id="Path_1854" data-name="Path 1854" d="M566.825,303.6l-23.952,14.189-77-44.128,24.043-14.241Z" transform="translate(-465.876 -259.418)" fill="#ebeeff"/>
          <path id="Path_1855" data-name="Path 1855" d="M541.711,316.1l1.364-6.568,21.539-12.8-22.58,12.2L466.74,267.023l74.426,43.2Z" transform="translate(-464.969 -251.441)" fill="url(#radial-gradient-4)" style="mix-blend-mode: color-dodge;isolation: isolate"/>
        </g>
        <g id="Group_792" data-name="Group 792" transform="translate(0 42.738)">
          <path id="Path_1856" data-name="Path 1856" d="M531.132,321.014v7.48l-77.044-44.128v-7.48Z" transform="translate(-454.088 -262.644)" fill="#ced3f4"/>
          <path id="Path_1857" data-name="Path 1857" d="M491.67,305.687v7.48l23.952-14.241V291.5Z" transform="translate(-414.672 -247.318)" fill="#afb6e5"/>
          <path id="Path_1858" data-name="Path 1858" d="M555.037,314.115,531.085,328.3l-77-44.128,24.044-14.241Z" transform="translate(-454.088 -269.934)" fill="#ebeeff"/>
          <path id="Path_1859" data-name="Path 1859" d="M529.923,326.612l1.364-6.568,21.539-12.8-22.581,12.2L454.952,277.54l74.426,43.2Z" transform="translate(-453.181 -261.958)" fill="url(#radial-gradient-5)" style="mix-blend-mode: color-dodge;isolation: isolate"/>
        </g>
      </g>
      <g id="Group_797" data-name="Group 797" transform="translate(174.85 100.108)">
        <g id="Group_794" data-name="Group 794" transform="translate(48.302)">
          <path id="Path_1860" data-name="Path 1860" d="M443.785,226.254v7.48l-77.044-44.128v-7.48Z" transform="translate(-366.741 -167.885)" fill="#ced3f4"/>
          <path id="Path_1861" data-name="Path 1861" d="M404.323,210.928v7.48l23.952-14.241v-7.427Z" transform="translate(-327.325 -152.558)" fill="#afb6e5"/>
          <path id="Path_1862" data-name="Path 1862" d="M467.69,219.356l-23.952,14.189-77-44.128,24.044-14.241Z" transform="translate(-366.741 -175.175)" fill="#ebeeff"/>
          <path id="Path_1863" data-name="Path 1863" d="M442.576,231.853l1.364-6.568,21.539-12.8-22.58,12.2L367.605,182.78l74.426,43.2Z" transform="translate(-365.834 -167.198)" fill="url(#radial-gradient-6)" style="mix-blend-mode: color-dodge;isolation: isolate"/>
        </g>
        <g id="Group_795" data-name="Group 795" transform="translate(24.151 21.191)">
          <path id="Path_1864" data-name="Path 1864" d="M432,236.6v7.48l-77.044-44.128v-7.48Z" transform="translate(-354.953 -178.228)" fill="#ced3f4"/>
          <path id="Path_1865" data-name="Path 1865" d="M392.535,221.271v7.48l23.952-14.242v-7.427Z" transform="translate(-315.538 -162.902)" fill="#afb6e5"/>
          <path id="Path_1866" data-name="Path 1866" d="M455.9,229.7,431.95,243.888l-77-44.128L379,185.518Z" transform="translate(-354.953 -185.518)" fill="#ebeeff"/>
          <path id="Path_1867" data-name="Path 1867" d="M430.788,242.2l1.364-6.568,21.539-12.8-22.58,12.2-75.294-41.912,74.426,43.2Z" transform="translate(-354.046 -177.542)" fill="url(#radial-gradient-7)" style="mix-blend-mode: color-dodge;isolation: isolate"/>
        </g>
        <g id="Group_796" data-name="Group 796" transform="translate(0 42.737)">
          <path id="Path_1868" data-name="Path 1868" d="M420.209,247.114v7.48l-77.045-44.128v-7.48Z" transform="translate(-343.165 -188.745)" fill="#ced3f4"/>
          <path id="Path_1869" data-name="Path 1869" d="M380.747,231.788v7.48L404.7,225.026V217.6Z" transform="translate(-303.75 -173.418)" fill="#afb6e5"/>
          <path id="Path_1870" data-name="Path 1870" d="M444.114,240.216,420.162,254.4l-77-44.128,24.044-14.241Z" transform="translate(-343.165 -196.035)" fill="#ebeeff"/>
          <path id="Path_1871" data-name="Path 1871" d="M419,252.713l1.364-6.568,21.539-12.8-22.58,12.2L344.029,203.64l74.426,43.2Z" transform="translate(-342.258 -188.058)" fill="url(#radial-gradient-8)" style="mix-blend-mode: color-dodge;isolation: isolate"/>
        </g>
      </g>
      <g id="Group_798" data-name="Group 798" transform="translate(0 150.807)">
        <path id="Path_1872" data-name="Path 1872" d="M531.748,274.706h-2.727a19.714,19.714,0,0,0-5.757-4.833l-106.2-61.312c-12.567-7.257-34.52-6.347-49.033,2.03l-98.208,56.7a29.115,29.115,0,0,0-8.777,7.412h-3.229v15.157h.088c.4,4.212,3.151,8.189,8.4,11.217l106.2,61.314c12.567,7.257,34.52,6.345,49.033-2.032l98.208-56.7c6.89-3.977,10.824-8.922,11.754-13.8h.25Z" transform="translate(-257.821 -195.997)" fill="url(#linear-gradient-3)"/>
        <path id="Path_1873" data-name="Path 1873" d="M372.5,353.174l-106.2-61.312c-12.569-7.257-10.992-19.93,3.52-28.31l98.208-56.7c14.513-8.379,36.466-9.289,49.033-2.032l106.2,61.312c12.567,7.257,10.992,19.93-3.52,28.31l-98.208,56.7C407.022,359.521,385.07,360.43,372.5,353.174Z" transform="translate(-257.821 -199.921)" fill="#ebeeff"/>
        <path id="Path_1874" data-name="Path 1874" d="M519.734,252.3,421.526,309c-14.513,8.379-36.466,9.289-49.033,2.034L266.3,249.723c-5.044-2.911-7.771-6.7-8.336-10.729-.777,5.222,1.936,10.322,8.336,14.018l106.2,61.312c12.567,7.255,34.52,6.345,49.033-2.032l98.208-56.7c8.687-5.015,12.7-11.567,11.856-17.578C530.842,243.044,526.855,248.19,519.734,252.3Z" transform="translate(-257.811 -159.974)" fill="url(#radial-gradient-9)" style="mix-blend-mode: color-dodge;isolation: isolate"/>
      </g>
      <g id="Group_799" data-name="Group 799" transform="translate(225.965 301.403)">
        <path id="Path_1875" data-name="Path 1875" d="M642.041,348.21h-2.727a19.8,19.8,0,0,0-5.757-4.833l-106.2-61.312c-12.569-7.257-34.522-6.345-49.033,2.032L380.12,340.8a29.126,29.126,0,0,0-8.779,7.412h-3.227v15.159h.086c.406,4.21,3.151,8.187,8.4,11.217L482.794,435.9c12.569,7.255,34.522,6.345,49.033-2.034l98.208-56.7c6.89-3.979,10.826-8.922,11.756-13.8h.25Z" transform="translate(-368.114 -269.503)" fill="url(#linear-gradient)"/>
        <path id="Path_1876" data-name="Path 1876" d="M482.794,426.68,376.6,365.366c-12.567-7.255-10.992-19.93,3.522-28.308l98.208-56.7c14.512-8.377,36.464-9.287,49.033-2.032l106.2,61.314c12.567,7.255,10.992,19.93-3.522,28.308l-98.208,56.7C517.316,433.025,495.363,433.935,482.794,426.68Z" transform="translate(-368.114 -273.426)" fill="#ebeeff"/>
        <path id="Path_1877" data-name="Path 1877" d="M630.026,325.808l-98.208,56.7c-14.512,8.379-36.464,9.289-49.033,2.032L376.59,323.229c-5.044-2.913-7.771-6.7-8.339-10.731-.774,5.222,1.938,10.324,8.339,14.018l106.194,61.314c12.569,7.255,34.522,6.345,49.033-2.035l98.208-56.7c8.689-5.015,12.7-11.567,11.858-17.579C641.136,316.55,637.149,321.7,630.026,325.808Z" transform="translate(-368.104 -233.479)" fill="url(#radial-gradient-10)" style="mix-blend-mode: color-dodge;isolation: isolate"/>
      </g>
      <g id="Group_803" data-name="Group 803" transform="translate(174.85 251.511)">
        <g id="Group_800" data-name="Group 800">
          <path id="Path_1878" data-name="Path 1878" d="M354.833,300.154v7.48l77.044-44.128v-7.48Z" transform="translate(-330.928 -241.784)" fill="#afb6e5"/>
          <path id="Path_1879" data-name="Path 1879" d="M367.117,284.827v7.48l-23.952-14.241v-7.427Z" transform="translate(-343.165 -226.458)" fill="#ced3f4"/>
          <path id="Path_1880" data-name="Path 1880" d="M343.165,293.255l23.952,14.189,77-44.128-24.044-14.242Z" transform="translate(-343.165 -249.074)" fill="#ebeeff"/>
          <path id="Path_1881" data-name="Path 1881" d="M366.7,305.752l-1.364-6.568-21.539-12.8,22.58,12.2,75.294-41.912-74.426,43.2Z" transform="translate(-342.498 -241.098)" fill="url(#radial-gradient-11)" style="mix-blend-mode: color-dodge;isolation: isolate"/>
        </g>
        <g id="Group_801" data-name="Group 801" transform="translate(24.151 21.191)">
          <path id="Path_1882" data-name="Path 1882" d="M366.621,310.5v7.48l77.044-44.128v-7.48Z" transform="translate(-342.716 -252.127)" fill="#afb6e5"/>
          <path id="Path_1883" data-name="Path 1883" d="M378.9,295.171v7.48l-23.952-14.241v-7.427Z" transform="translate(-354.953 -236.801)" fill="#ced3f4"/>
          <path id="Path_1884" data-name="Path 1884" d="M354.953,303.6,378.9,317.787l77-44.128-24.044-14.241Z" transform="translate(-354.953 -259.418)" fill="#ebeeff"/>
          <path id="Path_1885" data-name="Path 1885" d="M378.492,316.1l-1.364-6.568-21.539-12.8,22.58,12.2,75.294-41.912-74.426,43.2Z" transform="translate(-354.285 -251.441)" fill="url(#radial-gradient-12)" style="mix-blend-mode: color-dodge;isolation: isolate"/>
        </g>
        <g id="Group_802" data-name="Group 802" transform="translate(48.302 42.738)">
          <path id="Path_1886" data-name="Path 1886" d="M378.409,321.014v7.48l77.045-44.128v-7.48Z" transform="translate(-354.504 -262.644)" fill="#afb6e5"/>
          <path id="Path_1887" data-name="Path 1887" d="M390.692,305.687v7.48l-23.952-14.241V291.5Z" transform="translate(-366.741 -247.318)" fill="#ced3f4"/>
          <path id="Path_1888" data-name="Path 1888" d="M366.741,314.115,390.692,328.3l77-44.128-24.044-14.241Z" transform="translate(-366.741 -269.934)" fill="#ebeeff"/>
          <path id="Path_1889" data-name="Path 1889" d="M390.28,326.612l-1.364-6.568-21.539-12.8,22.58,12.2,75.294-41.912-74.426,43.2Z" transform="translate(-366.073 -261.958)" fill="url(#radial-gradient-13)" style="mix-blend-mode: color-dodge;isolation: isolate"/>
        </g>
      </g>
      <g id="Group_807" data-name="Group 807" transform="translate(402.106 100.108)">
        <g id="Group_804" data-name="Group 804">
          <path id="Path_1890" data-name="Path 1890" d="M465.756,226.254v7.48L542.8,189.606v-7.48Z" transform="translate(-441.851 -167.885)" fill="#afb6e5"/>
          <path id="Path_1891" data-name="Path 1891" d="M478.04,210.928v7.48l-23.952-14.241v-7.427Z" transform="translate(-454.088 -152.558)" fill="#ced3f4"/>
          <path id="Path_1892" data-name="Path 1892" d="M454.088,219.356l23.952,14.189,77-44.128-24.044-14.241Z" transform="translate(-454.088 -175.175)" fill="#ebeeff"/>
          <path id="Path_1893" data-name="Path 1893" d="M477.627,231.853l-1.364-6.568-21.539-12.8,22.58,12.2L552.6,182.78l-74.426,43.2Z" transform="translate(-453.42 -167.198)" fill="url(#radial-gradient-14)" style="mix-blend-mode: color-dodge;isolation: isolate"/>
        </g>
        <g id="Group_805" data-name="Group 805" transform="translate(24.151 21.191)">
          <path id="Path_1894" data-name="Path 1894" d="M477.543,236.6v7.48l77.045-44.128v-7.48Z" transform="translate(-453.639 -178.228)" fill="#afb6e5"/>
          <path id="Path_1895" data-name="Path 1895" d="M489.828,221.271v7.48L465.876,214.51v-7.427Z" transform="translate(-465.876 -162.902)" fill="#ced3f4"/>
          <path id="Path_1896" data-name="Path 1896" d="M465.876,229.7l23.952,14.189,77-44.128-24.044-14.241Z" transform="translate(-465.876 -185.518)" fill="#ebeeff"/>
          <path id="Path_1897" data-name="Path 1897" d="M489.415,242.2l-1.364-6.568-21.539-12.8,22.58,12.2,75.294-41.912-74.426,43.2Z" transform="translate(-465.208 -177.542)" fill="url(#radial-gradient-15)" style="mix-blend-mode: color-dodge;isolation: isolate"/>
        </g>
        <g id="Group_806" data-name="Group 806" transform="translate(48.302 42.737)">
          <path id="Path_1898" data-name="Path 1898" d="M489.331,247.114v7.48l77.044-44.128v-7.48Z" transform="translate(-465.426 -188.745)" fill="#afb6e5"/>
          <path id="Path_1899" data-name="Path 1899" d="M501.615,231.788v7.48l-23.952-14.241V217.6Z" transform="translate(-477.663 -173.418)" fill="#ced3f4"/>
          <path id="Path_1900" data-name="Path 1900" d="M477.663,240.216,501.615,254.4l77-44.128-24.044-14.241Z" transform="translate(-477.663 -196.035)" fill="#ebeeff"/>
          <path id="Path_1901" data-name="Path 1901" d="M501.2,252.713l-1.364-6.568-21.539-12.8,22.58,12.2,75.294-41.912-74.426,43.2Z" transform="translate(-476.996 -188.058)" fill="url(#radial-gradient-16)" style="mix-blend-mode: color-dodge;isolation: isolate"/>
        </g>
      </g>
    </g>
    <g id="Group_811" data-name="Group 811" transform="translate(792.26 176.307)">
      <path id="Path_1902" data-name="Path 1902" d="M559.218,273.427l-6.486-3.5c-3.967-2.291-3.469-6.292,1.112-8.937l22.8-13.085c4.581-2.645,11.51-2.932,15.476-.641l6.489,3.5c3.966,2.291,3.469,6.292-1.112,8.937l-22.8,13.085C570.115,275.429,563.187,275.716,559.218,273.427Z" transform="translate(-485.774 -40.9)" fill="#e5e9ff" style="mix-blend-mode: multiply;isolation: isolate"/>
      <path id="Path_1903" data-name="Path 1903" d="M527.843,251.8l-6.486-3.5c-3.967-2.291-3.469-6.292,1.112-8.937l22.8-13.086c4.581-2.645,11.51-2.932,15.476-.641l6.489,3.5c3.966,2.291,3.469,6.292-1.113,8.937l-22.8,13.086C538.74,253.8,531.811,254.091,527.843,251.8Z" transform="translate(-518.679 -63.58)" fill="#e5e9ff" style="mix-blend-mode: multiply;isolation: isolate"/>
      <path id="Path_1904" data-name="Path 1904" d="M536.614,240.315l-8.378-9.646a3.144,3.144,0,0,0-3.9-.684l-3.762,2.094,0,0-.1.059V238.2a3.143,3.143,0,0,0,1.3,2.547l7.058,5.093a4.752,4.752,0,0,0,5.083.3l1.85-1.024a3.142,3.142,0,0,0,1.621-2.747h0A3.146,3.146,0,0,0,536.614,240.315Z" transform="translate(-516.801 -57.816)" fill="#4e0070"/>
      <path id="Path_1905" data-name="Path 1905" d="M551.006,232.015,539.93,223.5a2.657,2.657,0,0,0-2.911-.213l-4.352,2.42h0l-.1.057v5.784a2.654,2.654,0,0,0,1.606,2.44l9.748,4.194a4.726,4.726,0,0,0,4.161-.207l2.594-1.438a2.657,2.657,0,0,0,1.371-2.323v-.094A2.657,2.657,0,0,0,551.006,232.015Z" transform="translate(-504.116 -64.775)" fill="#4e0070"/>
      <path id="Path_1906" data-name="Path 1906" d="M535.764,240.643l-1.85,1.024a4.752,4.752,0,0,1-5.083-.3l-7.058-6.339a3.147,3.147,0,0,1-1.3-2.549v2.7a3.143,3.143,0,0,0,1.3,2.547l7.058,5.093a4.752,4.752,0,0,0,5.083.3l1.85-1.024a3.142,3.142,0,0,0,1.621-2.747v0a3.252,3.252,0,0,0-.113-.621A3.145,3.145,0,0,1,535.764,240.643Z" transform="translate(-516.801 -54.787)" fill="#afb6e5" style="mix-blend-mode: multiply;isolation: isolate"/>
      <path id="Path_1907" data-name="Path 1907" d="M550.674,232.011l-2.594,1.436a4.73,4.73,0,0,1-4.163.209l-9.746-5.329a2.654,2.654,0,0,1-1.606-2.44v2.586a2.656,2.656,0,0,0,1.606,2.44l9.746,4.194a4.73,4.73,0,0,0,4.163-.207l2.594-1.438a2.655,2.655,0,0,0,1.369-2.323v-.094a2.622,2.622,0,0,0-.092-.67A2.658,2.658,0,0,1,550.674,232.011Z" transform="translate(-504.116 -61.698)" fill="#afb6e5" style="mix-blend-mode: multiply;isolation: isolate"/>
      <path id="Path_1908" data-name="Path 1908" d="M529.331,186a9.848,9.848,0,0,0-9.849,9.846l3.2,41.932a23.578,23.578,0,0,1,.027,3.208l-2.295,38.468c0,2.377,3.307,4.3,7.386,4.3s7.386-1.926,7.386-4.3l2.391-40.072,1.6-43.536A9.848,9.848,0,0,0,529.331,186Z" transform="translate(-517.837 -103.528)" fill="url(#linear-gradient-5)"/>
      <path id="Path_1909" data-name="Path 1909" d="M549.764,235.287l-2.174-43.823a9.848,9.848,0,0,0-9.842-9.846,9.274,9.274,0,0,0-6.566,3.008c-3.721,3.866-3.647,6.915-2.833,9.642L534.9,234.69a10.71,10.71,0,0,1,.125,1.2l1.684,34.546c0,2.377,3.307,4.3,7.386,4.3s7.386-1.924,7.386-4.3Z" transform="translate(-509.014 -108.127)" fill="url(#linear-gradient-5)"/>
      <path id="Path_1910" data-name="Path 1910" d="M556.768,166.389a9.788,9.788,0,0,0-9.789-9.787,29.686,29.686,0,0,0-5.19,1.061c-6.839,2-14.8,7.134-17.982,10.553-.065.07-.123.141-.184.211a9.77,9.77,0,0,0-4.063,7.927l.037,44.633c0,5.98,8.326,10.828,18.595,10.828s18.595-4.847,18.595-10.828C556.786,220.987,556.768,170.872,556.768,166.389Z" transform="translate(-517.755 -134.363)" fill="#fff"/>
      <g id="Group_809" data-name="Group 809" transform="translate(0.989 21.994)">
        <path id="Path_1911" data-name="Path 1911" d="M546.871,166.7a10.215,10.215,0,0,0-10.217-10.215,31.1,31.1,0,0,0-5.415,1.106c-.484.143-.975.3-1.467.471,3.221.693,5.521,2.491,5.521,4.606,0,0-1.1,17.369-1.1,27.71v39.709a3.137,3.137,0,0,0,4.339,2.883c5.048-2.036,8.359-5.429,8.359-9.279C546.891,223.688,546.871,171.377,546.871,166.7Z" transform="translate(-508.035 -156.482)" fill="url(#linear-gradient-7)"/>
        <path id="Path_1912" data-name="Path 1912" d="M542.919,192.036c0-6.769-7.57-27.14-11-29.65-1.529-1.119-1.85-1.469-2.186-2.385a56.19,56.19,0,0,0-6.265,4.833,10.829,10.829,0,0,0-4.309,8.576L519.2,220c0,6.243,8.689,11.3,19.41,11.3h.043a4.335,4.335,0,0,0,4.266-4.366Z" transform="translate(-519.162 -152.791)" fill="url(#linear-gradient-7)"/>
      </g>
      <g id="Group_810" data-name="Group 810" transform="translate(6.283)">
        <path id="Path_1913" data-name="Path 1913" d="M522.736,158.205c0,9.371,4.884,11.369,10.873,11.817,7.064.527,11.75-2.01,10.875-11.817-.852-9.553-4.87-11.817-10.875-11.817S522.736,148.615,522.736,158.205Z" transform="translate(-520.708 -145.075)" fill="#ffd4c0"/>
        <path id="Path_1914" data-name="Path 1914" d="M539.1,157.5c-.027-2.266-3.186-4.1-7.085-4.1s-7.058,1.834-7.083,4.1h0v8.492c0,2.28,3.171,4.126,7.084,4.126s7.087-1.846,7.087-4.126V157.5Z" transform="translate(-518.406 -137.724)" fill="#ffd4c0"/>
        <path id="Path_1915" data-name="Path 1915" d="M531.715,157.071c-6.278,4.8-2.467,12.557-4.405,11.285a12.311,12.311,0,0,1,6.745-22.608c8.986,0,14.3,8.168,10.893,10.279C540.578,158.734,537.753,152.455,531.715,157.071Z" transform="translate(-521.746 -145.747)"/>
      </g>
      <path id="Path_1916" data-name="Path 1916" d="M519.53,165.512l2.741,25.386a13.244,13.244,0,0,0,4.784,9.033l15.181,12.02.17-14.854-8.535-8.025-3.928-20.146Z" transform="translate(-517.787 -125.018)" fill="#e5e9ff" style="mix-blend-mode: multiply;isolation: isolate"/>
      <path id="Path_1917" data-name="Path 1917" d="M564.9,202.713a2.06,2.06,0,0,0-.594-.182c-3.083-1.074-20.453-8.871-23.02-11.086-2.891-2.5-7.509-16.74-7.509-16.74l-.035-.035c-.924-3.973-3.682-8.08-6.982-9.986-4.053-2.34-7.337-.467-7.337,4.184,0,.309.031,1.776.074,2.268.971,11.092,8.371,27.327,14.157,30.652l.068.037a6.348,6.348,0,0,0,1.19.645c6.984,3.639,24.628,10.8,24.628,10.8l.01-.02.008.006c1.7.858,4.266-.805,5.741-3.716S566.6,203.572,564.9,202.713Z" transform="translate(-517.896 -126.943)" fill="url(#linear-gradient-9)"/>
      <path id="Path_1918" data-name="Path 1918" d="M558.594,192.733l-6.755,2.44a2.812,2.812,0,0,1-.709.156l-5.734.486a2.778,2.778,0,0,1-2.049-.664h0a2.779,2.779,0,0,1,.2-4.368l5.843-4.153a2.786,2.786,0,0,1,1.383-.5l6.712-.547a2.78,2.78,0,0,1,3,2.87l-.065,1.772A2.778,2.778,0,0,1,558.594,192.733Z" transform="translate(-493.818 -103.982)" fill="#ffd4c0"/>
      <path id="Path_1919" data-name="Path 1919" d="M541.823,184.712a2.163,2.163,0,0,1,2.51-1.088l4.825,1.367,4.03.963a2.161,2.161,0,0,1,1.336,3.149,1.122,1.122,0,0,0-.072.934c.342.891,2.135,2.2,3.657,3.19a2.163,2.163,0,0,1,.4,3.311h0a2.167,2.167,0,0,1-1.778.66l-8.343-.824a2.172,2.172,0,0,1-1.051-.4l-6.749-4.847a2.163,2.163,0,0,1-.66-2.751Z" transform="translate(-496.652 -106.108)" fill="#ffd4c0"/>
      <path id="Path_1920" data-name="Path 1920" d="M550.529,188.342a1.1,1.1,0,0,1,.055-.881l-1.649-2.3s-5.761,2.006-5.505,3.628,2.944,1.623,4.823,1.58c1.569-.037,3.538-.072,4.149-.082A5.952,5.952,0,0,1,550.529,188.342Z" transform="translate(-492.729 -104.414)" fill="#f5e7e1" style="mix-blend-mode: multiply;isolation: isolate"/>
      <path id="Path_1921" data-name="Path 1921" d="M558.141,184.73l-7.14.123s-8.369,2.463-7.632,4.186,6.894-.986,8.248-.863,7.632,1.108,7.632,1.108Z" transform="translate(-492.833 -104.863)" fill="#ffd4c0"/>
      <path id="Path_1922" data-name="Path 1922" d="M592.594,181.893a4.833,4.833,0,0,0-4.1-.641l-17.148,3.171a6.52,6.52,0,0,0-1.291.129l-16.857,1.7c-1.9,0-3.442,2.647-3.442,5.909s1.541,5.911,3.442,5.911l18.148-.846,23.061.234c2.688.649,4.663-1.028,4.663-4.4A14.265,14.265,0,0,0,592.594,181.893Z" transform="translate(-486.091 -108.741)" fill="#989898"/>
      <path id="Path_1923" data-name="Path 1923" d="M551.675,218.21l-1.733,4.436a4.926,4.926,0,0,0-.152,3.137l1.594,5.62a2.549,2.549,0,0,0,1.237,1.545l2.1,1.137a2.546,2.546,0,0,0,2.827-.275h0a2.536,2.536,0,0,0,.9-1.625l1.631-12.172a2.547,2.547,0,0,0-2.135-2.852l-3.522-.541A2.543,2.543,0,0,0,551.675,218.21Z" transform="translate(-486.246 -71.448)" fill="#ffd4c0"/>
      <path id="Path_1924" data-name="Path 1924" d="M571.794,256.84l-.121-.072-.024.014-11.271-4.358a2.951,2.951,0,0,0-2.5.172L553,255.314a2.079,2.079,0,0,0-1.069,1.817h0a2.079,2.079,0,0,0,.865,1.686l9.635,6.954a4.267,4.267,0,0,0,4.567.27l3.727-2.069a2.079,2.079,0,0,0,1.072-1.817Z" transform="translate(-483.807 -34.075)" fill="#4e0070"/>
      <path id="Path_1925" data-name="Path 1925" d="M570.721,258.709l-3.727,2.069a4.263,4.263,0,0,1-4.565-.27l-9.64-5.446a2.075,2.075,0,0,1-.672-.844,2.052,2.052,0,0,0-.189.824,2.08,2.08,0,0,0,.861,1.686l9.64,6.954a4.267,4.267,0,0,0,4.565.27l3.727-2.069a2.079,2.079,0,0,0,1.072-1.817v-3.174A2.079,2.079,0,0,1,570.721,258.709Z" transform="translate(-483.806 -31.986)" fill="#afb6e5" style="mix-blend-mode: multiply;isolation: isolate"/>
      <path id="Path_1926" data-name="Path 1926" d="M584.925,249.586l-.121-.07-.057.033L570.432,246.5a3.8,3.8,0,0,0-2.645.4l-4.849,2.7a1.944,1.944,0,0,0-.992,1.588h0a1.937,1.937,0,0,0,1.1,1.848l12.873,6.187a3.947,3.947,0,0,0,3.622-.107l4.39-2.432a1.936,1.936,0,0,0,1-1.694Z" transform="translate(-473.304 -40.17)" fill="#4e0070"/>
      <path id="Path_1927" data-name="Path 1927" d="M583.928,251.128l-4.39,2.434a3.954,3.954,0,0,1-3.622.1L563.042,249.1a1.923,1.923,0,0,1-.836-.779,1.912,1.912,0,0,0,.836,2.7l12.873,6.187a3.947,3.947,0,0,0,3.622-.107l4.39-2.434a1.934,1.934,0,0,0,1-1.692v-3.544A1.939,1.939,0,0,1,583.928,251.128Z" transform="translate(-473.304 -38.166)" fill="#afb6e5" style="mix-blend-mode: multiply;isolation: isolate"/>
      <path id="Path_1928" data-name="Path 1928" d="M575.877,225.09a9.628,9.628,0,0,0,.3-6.406,9.841,9.841,0,0,0-19.287,2.772L554.8,255.474q-.163,2.624-.152,5.253L554.8,301.1h.025a2.569,2.569,0,0,0-.117.68c0,2.377,3.3,4.3,7.386,4.3s7.386-1.926,7.386-4.3l-.059-35.808a80.409,80.409,0,0,1,1.5-15.6Z" transform="translate(-480.957 -76.675)" fill="url(#linear-gradient-5)"/>
      <path id="Path_1929" data-name="Path 1929" d="M572.725,208.513a9.918,9.918,0,0,0-7.277,5.163,9.385,9.385,0,0,0-.99,6.652l3.505,32.348a69.909,69.909,0,0,1,.406,7.693l-.084,31.293c0,2.374,3.307,4.3,7.386,4.3s7.386-1.926,7.386-4.3l.873-73.393A9.851,9.851,0,0,0,572.725,208.513Z" transform="translate(-470.901 -80.014)" fill="url(#linear-gradient-5)"/>
      <path id="Path_1930" data-name="Path 1930" d="M594.139,190.721A10.218,10.218,0,0,0,583.922,180.5a31.168,31.168,0,0,0-5.417,1.106c-7.138,2.094-15.448,7.449-18.771,11.018-.076.082-4.432,3.813-4.432,8.494l.039,46.587c0,6.243,8.689,11.3,19.408,11.3s19.41-5.06,19.41-11.3C594.16,247.71,594.139,195.4,594.139,190.721Z" transform="translate(-480.269 -109.295)" fill="url(#linear-gradient-12)"/>
      <path id="Path_1931" data-name="Path 1931" d="M555.3,191.345l.039,46.587c0,4.45,4.423,8.285,10.838,10.131a7.721,7.721,0,0,0,2.028-5.009s-.02-41.383-.02-46.061C568.188,194.033,555.3,186.664,555.3,191.345Z" transform="translate(-480.269 -99.517)" fill="url(#linear-gradient-13)"/>
      <path id="Path_1932" data-name="Path 1932" d="M574.073,200.1a14.259,14.259,0,0,0-6.472-11.164c-3.341-1.93-6.058-.582-6.4,2.948l-.078-.049L557,224.144c-.09.381-7.011,22.534-7.011,22.944,0,1.9,2.645,3.44,5.909,3.44s5.909-1.541,5.909-3.44c0,0,4.427-10.379,6.661-17.331a9.352,9.352,0,0,0,1.147-4.134C570.674,220.989,574.073,200.872,574.073,200.1Z" transform="translate(-485.841 -101.379)" fill="url(#linear-gradient-14)"/>
      <path id="Path_1933" data-name="Path 1933" d="M580.729,181.866c0,9.371-4.886,11.371-10.875,11.817-7.062.529-11.748-2.008-10.873-11.817.852-9.551,4.868-11.817,10.873-11.817S580.729,172.276,580.729,181.866Z" transform="translate(-476.521 -120.26)" fill="#ffd4c0"/>
      <path id="Path_1934" data-name="Path 1934" d="M575.241,181.157c-.027-2.266-3.188-4.1-7.085-4.1s-7.058,1.832-7.085,4.1h0v8.494c0,2.278,3.171,4.126,7.085,4.126s7.087-1.848,7.087-4.126v-8.494Z" transform="translate(-474.219 -112.908)" fill="#ffd4c0"/>
      <path id="Path_1935" data-name="Path 1935" d="M585.045,182.2c0,6.935-4.8,12.188-10.832,12.188-4.974,0-3.069-4.54-5.089-8.74-2.051-4.268-12.25-3.991-12.25-11.1,4.929,1.793,6.978-4.907,15.616-4.907A12.556,12.556,0,0,1,585.045,182.2Z" transform="translate(-478.621 -120.679)" fill="#595959"/>
      <path id="Path_1936" data-name="Path 1936" d="M563.157,181.34c1.008,3.643.156,7.052,4.466,7.052,6.032,0,10.832-5.251,10.832-12.186,0-.283-.025-.559-.043-.838A22.462,22.462,0,0,1,563.157,181.34Z" transform="translate(-472.032 -114.681)" fill="#707070" style="mix-blend-mode: multiply;isolation: isolate"/>
      <path id="Path_1937" data-name="Path 1937" d="M542.372,189.13h0a11.99,11.99,0,0,0,5.808,2.19l5.19.512a12.015,12.015,0,0,0-5.937-2.991C544.409,188.3,542.931,188.826,542.372,189.13Z" transform="translate(-493.831 -100.797)" fill="#f5e7e1" style="mix-blend-mode: multiply;isolation: isolate"/>
      <path id="Path_1938" data-name="Path 1938" d="M540.7,191.583c1.276.647,3.212-.6,4.323-2.8s.977-4.5-.3-5.142-3.214.606-4.325,2.8S539.42,190.938,540.7,191.583Z" transform="translate(-496.691 -106.182)" fill="#ffd4c0"/>
      <path id="Path_1939" data-name="Path 1939" d="M528.384,155.637a17.284,17.284,0,0,1-6.628-3.983c0,.07-.01.137-.01.207a12.3,12.3,0,0,0,5.564,10.3C528.671,163.053,527.21,159.495,528.384,155.637Z" transform="translate(-515.463 -139.552)" fill="#afb6e5" style="mix-blend-mode: multiply;isolation: isolate"/>
      <path id="Path_2043" data-name="Path 2043" d="M574.073,200.1a14.259,14.259,0,0,0-6.472-11.164c-3.341-1.93-6.058-.582-6.4,2.948l-.078-.049L557,224.144c-.09.381-7.011,22.534-7.011,22.944,0,1.9,2.645,3.44,5.909,3.44s5.909-1.541,5.909-3.44c0,0,4.427-10.379,6.661-17.331a9.352,9.352,0,0,0,1.147-4.134C570.674,220.989,574.073,200.872,574.073,200.1Z" transform="translate(-485.841 -101.379)" fill="url(#linear-gradient-14)"/>
    </g>
    <g id="Group_812" data-name="Group 812" transform="translate(492.061 116.608)">
      <path id="Path_1940" data-name="Path 1940" d="M379.127,220.659,374.192,218c-3.02-1.743-2.641-4.786.844-6.8l38.759-22.653c3.485-2.012,8.758-2.231,11.776-.488l4.935,2.661c3.018,1.741,2.639,4.786-.846,6.8L390.9,220.171C387.417,222.183,382.145,222.4,379.127,220.659Z" transform="translate(-372.153 -42.909)" fill="#e5e9ff" style="mix-blend-mode: multiply;isolation: isolate"/>
      <path id="Path_1941" data-name="Path 1941" d="M400.259,136.67l-.092-.043a6.168,6.168,0,0,0,.836-3.059,6.462,6.462,0,0,0-12.44-2.315l-.088-.041s-9.922,13.647-11.91,20.627a6.393,6.393,0,0,0-.371,2.073c0,5.831,7.867,21.631,7.867,21.631,0,1.914,2.665,3.467,5.954,3.467s5.954-1.553,5.954-3.467a2.216,2.216,0,0,0-.371-1.17l-6.5-20.461Z" transform="translate(-367.915 -105.455)" fill="url(#linear-gradient-9)"/>
      <path id="Path_1942" data-name="Path 1942" d="M391.269,188.188l.123-.07.025.012,12.209-.873a2.978,2.978,0,0,1,2.52.174l4.917,2.737A2.094,2.094,0,0,1,412.138,192h0a2.1,2.1,0,0,1-.869,1.7l-3.2,1.653-7.359,1.276c-1.924.324-3.143.633-4.6-.176l-3.758-2.084a2.1,2.1,0,0,1-1.08-1.834Z" transform="translate(-352.104 -42.722)" fill="#4e0070"/>
      <path id="Path_1943" data-name="Path 1943" d="M373.3,200.483l.121-.07.06-.881,14.423-3.073a3.845,3.845,0,0,1,2.666.4l4.886,2.719a1.953,1.953,0,0,1,1,1.6h0a1.952,1.952,0,0,1-1.1,1.862l-12.973,6.234a3.976,3.976,0,0,1-3.651-.1l-4.425-2.454a1.948,1.948,0,0,1-1-1.7Z" transform="translate(-370.953 -32.95)" fill="#4e0070"/>
      <path id="Path_1944" data-name="Path 1944" d="M411.268,191.225l-3.2,1.653-7.359.256a7.413,7.413,0,0,1-4.6-1.2l-3.758-2.084a2.1,2.1,0,0,1-1.078-1.834v3.522a2.092,2.092,0,0,0,1.078,1.832l3.758,2.086c1.457.809,2.676.5,4.6.176l7.359-1.276,3.2-1.653a2.1,2.1,0,0,0,.869-1.7,2.064,2.064,0,0,0-.15-.733A2.079,2.079,0,0,1,411.268,191.225Z" transform="translate(-352.103 -41.721)" fill="#afb6e5" style="mix-blend-mode: multiply;isolation: isolate"/>
      <path id="Path_1945" data-name="Path 1945" d="M395.35,199.435l-12.975,3.835a3.978,3.978,0,0,1-3.649-.1l-4.425-2.452a1.954,1.954,0,0,1-1-1.707v3.872a1.954,1.954,0,0,0,1,1.707l4.425,2.452a3.972,3.972,0,0,0,3.649.1l12.975-6.234a1.953,1.953,0,0,0,1.1-1.86,1.884,1.884,0,0,0-.162-.641A1.922,1.922,0,0,1,395.35,199.435Z" transform="translate(-370.953 -30.819)" fill="#afb6e5" style="mix-blend-mode: multiply;isolation: isolate"/>
      <path id="Path_1946" data-name="Path 1946" d="M426.813,181.851c.371-8.56-24.065-23.321-24.065-23.321l-.014.022a9.894,9.894,0,1,0-10.119,16.988l-.006.01.123.053a9.855,9.855,0,0,0,1.477.639l16.974,7.345L395.01,218.95h.014a2.721,2.721,0,0,0-.33,1.209c0,2.4,3.333,4.335,7.443,4.335s7.443-1.94,7.443-4.335l-.006-.035C410.867,217.833,426.457,190.056,426.813,181.851Z" transform="translate(-356.112 -74.29)" fill="url(#linear-gradient-5)"/>
      <path id="Path_1947" data-name="Path 1947" d="M406.466,166.645a9.923,9.923,0,1,0-19.847,0l-5.954,39.943-6.613,31.4c-.125.313-.776,3.561-.776,3.9,0,2.393,3.331,4.333,7.441,4.333s7.443-1.94,7.443-4.333l7.4-33.944,9.656-36.571A9.841,9.841,0,0,0,406.466,166.645Z" transform="translate(-370.975 -74.538)" fill="url(#linear-gradient-5)"/>
      <path id="Path_1948" data-name="Path 1948" d="M418.868,142.089c-1.274-1.217-10.932-10.5-17.863-13.36a9.8,9.8,0,0,0-1.4-.455,10.3,10.3,0,0,0-15.235,7.917c-.5,4.686-6.1,57.1-6.1,57.1-.664,6.257,7.5,12.252,18.246,13.395s19.988-3,20.654-9.256l4.86-45.249C422.394,148.8,421.2,144.222,418.868,142.089Z" transform="translate(-365.774 -105.727)" fill="url(#linear-gradient-7)"/>
      <path id="Path_1949" data-name="Path 1949" d="M394.349,140.413c-.5,4.688-2.3,16.05-2.3,16.05-.262,2.465-1.494,35.11.6,37.214,5.964-1.354,10.227-4.573,10.67-8.74l4.348-43.243C408.026,138.315,394.592,138.137,394.349,140.413Z" transform="translate(-351.918 -93.231)" fill="#e5e9ff" style="mix-blend-mode: multiply;isolation: isolate"/>
      <path id="Path_1950" data-name="Path 1950" d="M387.055,127.816c-1,9.39,3.684,11.914,9.638,13,7.021,1.281,11.987-.762,12.155-10.684.164-9.662-3.62-12.36-9.637-13S388.077,118.2,387.055,127.816Z" transform="translate(-356.665 -116.182)" fill="#ffd4c0"/>
      <path id="Path_1951" data-name="Path 1951" d="M388.669,127.451c.268-2.268,3.633-3.766,7.537-3.352s6.876,2.59,6.661,4.862h0s-.9,8.492-.906,8.513c-.242,2.282-3.618,3.8-7.54,3.378s-6.9-2.606-6.661-4.89l.906-8.511Z" transform="translate(-355.796 -108.823)" fill="#ffd4c0"/>
      <path id="Path_1952" data-name="Path 1952" d="M385.95,127.924c-.74,6.947,3.512,12.723,9.556,13.364,4.985.531,3.559-4.22,6.029-8.214,2.512-4.059,10.025-2.76,9.287-6.829-.922-5.1-5.505-8.988-10.953-9.566A12.651,12.651,0,0,0,385.95,127.924Z" transform="translate(-357.771 -116.608)"/>
      <path id="Path_1953" data-name="Path 1953" d="M408.084,162.866l2.344,4.188a4.973,4.973,0,0,1,.584,3.112L410.2,176a2.558,2.558,0,0,1-1.02,1.711l-1.944,1.428a2.564,2.564,0,0,1-2.858.117h0a2.562,2.562,0,0,1-1.129-1.5l-.783-6.55a2.959,2.959,0,0,0-.3-.983l-2.227-4.391a2.561,2.561,0,0,1,1.735-3.141l3.44-1.028A2.566,2.566,0,0,1,408.084,162.866Z" transform="translate(-343.111 -69.469)" fill="#ffd4c0"/>
      <path id="Path_1954" data-name="Path 1954" d="M417.493,191.62c0-.014-.014-.029-.018-.043l0,0-6.431-20.981a6.282,6.282,0,0,0-.178-.908l-5.2-30.771c-.219-3.78-3.02-5.263-6.48-3.266a14.37,14.37,0,0,0-6.521,11.25,7.157,7.157,0,0,0,.1,1.059l-.047.039,5.761,25.268s7.6,21.047,7.621,21.137c.447,1.83,3.358,2.692,6.5,1.924S417.94,193.452,417.493,191.62Z" transform="translate(-350.633 -97.571)" fill="url(#linear-gradient-9)"/>
      <path id="Path_1955" data-name="Path 1955" d="M386.378,121.086a12.617,12.617,0,0,0-.428,2.141c-.74,6.947,3.512,12.723,9.556,13.364,4.347.463,3.819-3.092,5.253-6.656A19.19,19.19,0,0,1,386.378,121.086Z" transform="translate(-357.771 -111.911)" fill="#afb6e5" style="mix-blend-mode: multiply;isolation: isolate"/>
    </g>
    <g id="Group_821" data-name="Group 821" transform="translate(632.398 459.454)">
      <g id="Group_814" data-name="Group 814" transform="translate(24.482 24.134)">
        <g id="Group_813" data-name="Group 813">
          <path id="Path_1956" data-name="Path 1956" d="M486.674,338.783l.014-.02-.066-.033c-.3-.289-12.643-7.042-18.232-11.367l6.771-13.938a9.092,9.092,0,0,0,1.227-1.836,7.344,7.344,0,0,0,.486-1.8,15.511,15.511,0,0,0-5.347-12.979c-3.274-2.53-6.109-.129-7.3,2.084,0,0-11.41,27.6-11.572,28.793a6.606,6.606,0,0,0,1.444,5.073,11.13,11.13,0,0,0,1.811,1.561c5.628,3.973,18.679,11.567,22.643,13.858a2.15,2.15,0,0,0,1.07.615l.1.059.025-.037a3.817,3.817,0,0,0,2.186-.287,9.775,9.775,0,0,0,5.421-6.984A3.22,3.22,0,0,0,486.674,338.783Z" transform="translate(-452.601 -295.73)" fill="url(#linear-gradient-9)"/>
          <path id="Path_1957" data-name="Path 1957" d="M483.624,324.3l-6.511-4.692a3.174,3.174,0,0,0-.772-.41s-4.417-2-5.235-1.871a.726.726,0,0,0-.4.094,3.837,3.837,0,0,0-.449.137,7.44,7.44,0,0,0-4.128,5.319,2.355,2.355,0,0,0,1.328,2.561l4.9,2.819a3.146,3.146,0,0,0,1.031.375l7.812,1.391a3.187,3.187,0,0,0,2.405-.539h0A3.188,3.188,0,0,0,483.624,324.3Z" transform="translate(-438.44 -273.088)" fill="#ffd4c0"/>
        </g>
      </g>
      <ellipse id="Ellipse_34" data-name="Ellipse 34" cx="26.757" cy="16.315" rx="26.757" ry="16.315" transform="translate(6.799 76.691)" fill="#e5e9ff" style="mix-blend-mode: multiply;isolation: isolate"/>
      <path id="Path_1958" data-name="Path 1958" d="M475.993,367.617,467.3,357.611a3.257,3.257,0,0,0-4.044-.711l-3.9,2.172,0,0-.106.064v6.294a3.256,3.256,0,0,0,1.352,2.643l7.322,5.284a4.934,4.934,0,0,0,5.274.315l1.918-1.063a3.257,3.257,0,0,0,1.682-2.852h0A3.263,3.263,0,0,0,475.993,367.617Z" transform="translate(-421.151 -207.874)" fill="#4e0070"/>
      <path id="Path_1959" data-name="Path 1959" d="M489.925,361.7l-9.35-11.074a2.757,2.757,0,0,0-2.9-.86l-4.946,1.494,0,0-.113.039h0l-1.276,5.862a2.76,2.76,0,0,0,1.09,2.829l8.955,6.4a4.9,4.9,0,0,0,4.266.707l2.948-.885a2.753,2.753,0,0,0,1.9-2.053l.02-.094A2.757,2.757,0,0,0,489.925,361.7Z" transform="translate(-408.539 -215.05)" fill="#4e0070"/>
      <path id="Path_1960" data-name="Path 1960" d="M475.112,368.275l-1.92,1.063a4.926,4.926,0,0,1-5.274-.315l-7.322-7.107a3.256,3.256,0,0,1-1.352-2.643v3.233a3.256,3.256,0,0,0,1.352,2.643l7.322,5.284a4.934,4.934,0,0,0,5.274.316l1.92-1.063a3.263,3.263,0,0,0,1.68-2.852,3.182,3.182,0,0,0-.111-.6A3.247,3.247,0,0,1,475.112,368.275Z" transform="translate(-421.151 -204.953)" fill="#afb6e5" style="mix-blend-mode: multiply;isolation: isolate"/>
      <path id="Path_1961" data-name="Path 1961" d="M488.589,361.759l-2.946.885a4.911,4.911,0,0,1-4.266-.709l-8.955-8.529a2.705,2.705,0,0,1-.748-.861l-.342,1.567a2.76,2.76,0,0,0,1.09,2.829l8.955,6.4a4.9,4.9,0,0,0,4.266.707l2.946-.885a2.752,2.752,0,0,0,1.9-2.053l.02-.094a2.745,2.745,0,0,0-.031-1.285A2.755,2.755,0,0,1,488.589,361.759Z" transform="translate(-408.539 -212.008)" fill="#afb6e5" style="mix-blend-mode: multiply;isolation: isolate"/>
      <path id="Path_1962" data-name="Path 1962" d="M487.1,347.893l0,0-23.5-19.922-.006.008a10.194,10.194,0,0,0-10.973-2.856A9.995,9.995,0,0,0,445.817,335c.08,4.239,2.473,7.247,6.577,9.3l20.414,10.934a3.059,3.059,0,0,1,1.608,2.881l-2.221,36.169c0,2.465,3.432,4.462,7.662,4.462s7.664-2,7.664-4.462L490,353.851A7.617,7.617,0,0,0,487.1,347.893Z" transform="translate(-435.235 -241.355)" fill="url(#linear-gradient-5)"/>
      <path id="Path_1963" data-name="Path 1963" d="M503.156,348.919a7.624,7.624,0,0,0-3.087-6.114l.022-.016-27.835-19.451A10.2,10.2,0,1,0,460.8,339.652l-.047.072,25.323,10.762a2.92,2.92,0,0,1,1.78,2.67l.215,32.059c0,2.465,3.432,4.462,7.662,4.462s7.663-2,7.663-4.462Z" transform="translate(-426.083 -246.127)" fill="url(#linear-gradient-5)"/>
      <path id="Path_1964" data-name="Path 1964" d="M484.649,305.944a10.157,10.157,0,0,0-9.644-10.643,30.856,30.856,0,0,0-5.429.836,39.524,39.524,0,0,0-17.175,8.99c-.07.068-.133.139-.2.209a10.137,10.137,0,0,0-4.614,8.007l-2.239,44.733c-.305,6.2,8.074,11.645,18.716,12.17s17.515-3.047,17.82-9.242C481.883,361,484.419,310.586,484.649,305.944Z" transform="translate(-435.734 -272.05)" fill="#fff"/>
      <g id="Group_815" data-name="Group 815" transform="translate(8.629 22.513)">
        <path id="Path_1965" data-name="Path 1965" d="M472.483,306.06a10.6,10.6,0,0,0-10.066-11.111,13.107,13.107,0,0,0-3.4.334c-.508.123-1.024.262-1.545.414,3.3.881,5.6,2.862,5.486,5.052,0,0-2.026,17.941-2.555,28.656-.43,8.763-.9,26.722-1.371,36.325,7.757-1.272,10.309-2.514,10.557-7.556C469.594,358.175,472.243,310.906,472.483,306.06Z" transform="translate(-431.634 -294.938)" fill="url(#linear-gradient-7)"/>
        <path id="Path_1966" data-name="Path 1966" d="M471.03,328.623c.346-7.015-6.1-24.083-10.25-28.124a10.255,10.255,0,0,1-1.93-2.62,36.687,36.687,0,0,0-6.615,4.778c-.074.072-.139.147-.211.219a10.576,10.576,0,0,0-4.815,8.357l-2.338,48.277c-.16,3.235,1.946,6.273,5.482,8.572s18.449,5.739,19.3-11.438C470.247,344.517,470.768,333.966,471.03,328.623Z" transform="translate(-444.863 -291.855)" fill="url(#linear-gradient-7)"/>
        <path id="Path_1967" data-name="Path 1967" d="M447.209,304.4l-2.338,48.277c-.16,3.233,1.946,6.273,5.482,8.572a15.751,15.751,0,0,0,9.553,1.783c-2.475-2.094-3.331-4.106-3.2-6.771l4.034-43.856Z" transform="translate(-444.863 -285.018)" fill="#ced3f4" style="mix-blend-mode: multiply;isolation: isolate"/>
      </g>
      <g id="Group_816" data-name="Group 816" transform="translate(18.61)">
        <path id="Path_1968" data-name="Path 1968" d="M450.848,295.549c-1.2,9.648,3.573,12.329,9.681,13.557,7.206,1.448,12.354-.563,12.709-10.775.344-9.943-3.5-12.788-9.683-13.557S452.075,285.674,450.848,295.549Z" transform="translate(-448.761 -283.258)" fill="#ffd4c0"/>
        <path id="Path_1969" data-name="Path 1969" d="M467.678,296.469c.143-2.346-2.987-4.481-7.019-4.778s-7.443,1.36-7.642,3.7h0s-.641,8.769-.643,8.789c-.174,2.358,2.969,4.509,7.017,4.806s7.472-1.373,7.646-3.731c0-.02.643-8.789.643-8.789Z" transform="translate(-446.976 -275.866)" fill="#ffd4c0"/>
        <path id="Path_1970" data-name="Path 1970" d="M460.227,295.4c-7.076,4.139-4.214,12.9-6.046,11.344a13.268,13.268,0,0,1-4.345-11.608,12.807,12.807,0,0,1,14.249-11.1c9.9,1.149,8.619,5.972,14.509,9.174C475.009,300.3,467.035,291.418,460.227,295.4Z" transform="translate(-449.734 -283.95)"/>
      </g>
      <g id="Group_817" data-name="Group 817" transform="translate(22.42 75.024)">
        <path id="Path_1971" data-name="Path 1971" d="M475.964,353.924l32.09-18.527a1.477,1.477,0,0,0,.854-1.217v-1.59c-.01-.553-.42.41-1.209-.047l-18.212-10.514a5.5,5.5,0,0,0-4.944-.2l-32.09,18.527c-.422.244-.729-.793-.84-.463-.037.111-.012,1.563-.014,1.678a2.012,2.012,0,0,0,1.209,1.639l18.212,10.514A5.5,5.5,0,0,0,475.964,353.924Z" transform="translate(-451.594 -319.77)" fill="#2d3259"/>
        <path id="Path_1972" data-name="Path 1972" d="M475.962,353.163l32.09-18.527c1.266-.731,1.108-2.01-.354-2.854l-18.212-10.514a5.491,5.491,0,0,0-4.944-.2l-32.09,18.527c-1.268.731-1.108,2.008.354,2.854l18.211,10.514A5.5,5.5,0,0,0,475.962,353.163Z" transform="translate(-451.592 -320.569)" fill="#858fd6"/>
        <path id="Path_1973" data-name="Path 1973" d="M473.487,352.688a3.759,3.759,0,0,0,1.828-.408L507.4,333.753c.2-.115.535-.359.535-.684,0-.342-.332-.738-.889-1.059L488.836,321.5a5.074,5.074,0,0,0-2.475-.615,3.728,3.728,0,0,0-1.828.41l-32.09,18.525c-.2.117-.535.359-.535.686s.334.738.891,1.059l18.212,10.514A5.09,5.09,0,0,0,473.487,352.688Z" transform="translate(-451.264 -320.241)" fill="#afb6e5"/>
        <path id="Path_1974" data-name="Path 1974" d="M469.017,345.674l26.058-15.044c.52-.3.455-.828-.148-1.176l-9.783-5.649a2.259,2.259,0,0,0-2.034-.084l-26.058,15.044c-.522.3-.457.828.145,1.176l9.783,5.648A2.263,2.263,0,0,0,469.017,345.674Z" transform="translate(-446.239 -317.476)" fill="#858fd6"/>
        <path id="Path_1975" data-name="Path 1975" d="M483.821,324.026a.848.848,0,0,0-.766,0l-1.67.965c-.213.123-.215.322,0,.443a.847.847,0,0,0,.768,0l1.67-.963C484.03,324.345,484.032,324.147,483.821,324.026Zm-2.86,1.649a.848.848,0,0,0-.766,0l-.791.457a.233.233,0,0,0,0,.443.849.849,0,0,0,.766,0l.791-.455A.235.235,0,0,0,480.961,325.675Zm-1.979,1.145a.842.842,0,0,0-.766,0l-.791.457c-.213.123-.215.322,0,.443a.846.846,0,0,0,.768,0l.791-.457A.232.232,0,0,0,478.982,326.82ZM477,327.961a.849.849,0,0,0-.766,0l-.791.457a.233.233,0,0,0,0,.443.842.842,0,0,0,.766,0l.791-.455A.235.235,0,0,0,477,327.961Zm-1.979,1.145a.841.841,0,0,0-.766,0l-.791.457c-.213.123-.215.322,0,.443a.846.846,0,0,0,.768,0l.791-.457A.232.232,0,0,0,475.022,329.107Zm-1.981,1.141a.849.849,0,0,0-.766,0l-.791.457a.233.233,0,0,0,0,.443.842.842,0,0,0,.766,0l.791-.455A.235.235,0,0,0,473.041,330.248Zm-1.979,1.145a.842.842,0,0,0-.766,0l-.791.457c-.213.123-.215.322,0,.443a.853.853,0,0,0,.768,0l.791-.457C471.27,331.713,471.272,331.514,471.061,331.393Zm-1.981,1.141a.849.849,0,0,0-.766,0l-.791.457a.233.233,0,0,0,0,.443.848.848,0,0,0,.766,0l.791-.457A.235.235,0,0,0,469.08,332.534ZM467.1,333.68a.842.842,0,0,0-.766,0l-.791.457c-.213.123-.215.322,0,.443a.846.846,0,0,0,.768,0l.791-.455C467.31,334,467.312,333.8,467.1,333.68Zm-1.981,1.143a.842.842,0,0,0-.766,0l-.791.457a.233.233,0,0,0,0,.443.849.849,0,0,0,.766,0l.791-.457A.233.233,0,0,0,465.12,334.823Zm-1.979,1.143a.843.843,0,0,0-.766,0l-.791.457c-.213.123-.215.322,0,.443a.853.853,0,0,0,.768,0l.791-.457C463.35,336.286,463.352,336.087,463.141,335.966Zm-1.981,1.143a.842.842,0,0,0-.766,0l-.791.457a.233.233,0,0,0,0,.443.848.848,0,0,0,.766,0l.791-.457A.233.233,0,0,0,461.16,337.109Zm-2.02,1.166a.853.853,0,0,0-.768,0l-.791.457a.234.234,0,0,0,0,.443.848.848,0,0,0,.766,0l.791-.457C459.349,338.595,459.351,338.4,459.14,338.275ZM485.6,325.054l-.68-.393a.964.964,0,0,0-.873,0l-.684.4a.266.266,0,0,0,0,.5l.68.391a.963.963,0,0,0,.873,0l.684-.4C485.841,325.417,485.841,325.192,485.6,325.054Zm-2.668,2.043.684-.4c.242-.139.244-.367,0-.5l-.68-.393a.963.963,0,0,0-.873,0l-.684.4c-.242.139-.244.365,0,.5l.68.391A.964.964,0,0,0,482.934,327.1Zm-1.293.244-.68-.393a.964.964,0,0,0-.873,0l-.684.4a.266.266,0,0,0,0,.5l.68.391a.963.963,0,0,0,.873,0l.684-.4C481.881,327.7,481.881,327.48,481.641,327.341Zm-1.979,1.143-.68-.393a.963.963,0,0,0-.873,0l-.684.4a.266.266,0,0,0,0,.5l.68.391a.963.963,0,0,0,.873,0l.684-.4C479.9,328.849,479.9,328.621,479.662,328.484Zm-4.221,1.651.68.391a.964.964,0,0,0,.873,0l.684-.4a.266.266,0,0,0,0-.5l-.68-.393a.964.964,0,0,0-.873,0l-.684.4A.266.266,0,0,0,475.442,330.135Zm-1.981,1.143.68.391a.963.963,0,0,0,.873,0l.684-.4c.242-.139.244-.367,0-.5l-.68-.393a.964.964,0,0,0-.873,0l-.686.4A.266.266,0,0,0,473.461,331.278Zm-1.979,1.143.68.391a.964.964,0,0,0,.873,0l.684-.4a.266.266,0,0,0,0-.5l-.68-.393a.964.964,0,0,0-.873,0l-.684.4A.266.266,0,0,0,471.481,332.422Zm-1.981,1.143.68.391a.964.964,0,0,0,.873,0l.684-.4c.242-.139.244-.367,0-.5l-.68-.393a.964.964,0,0,0-.873,0l-.686.4A.267.267,0,0,0,469.5,333.565Zm-1.979,1.143.68.393a.97.97,0,0,0,.873,0l.684-.4a.266.266,0,0,0,0-.5l-.68-.393a.964.964,0,0,0-.873,0l-.684.4A.266.266,0,0,0,467.521,334.708Zm-1.981,1.143.68.391a.963.963,0,0,0,.873,0l.684-.4a.266.266,0,0,0,0-.5l-.68-.393a.963.963,0,0,0-.873,0l-.686.4A.266.266,0,0,0,465.54,335.851Zm.26.635-.68-.393a.963.963,0,0,0-.873,0l-.684.4a.266.266,0,0,0,0,.5l.68.393a.97.97,0,0,0,.873,0l.684-.4A.266.266,0,0,0,465.8,336.486Zm-4.22,1.651.68.391a.964.964,0,0,0,.873,0l.684-.4a.266.266,0,0,0,0-.5l-.68-.393a.97.97,0,0,0-.873,0l-.686.4A.266.266,0,0,0,461.58,338.138Zm-2.9,1.674.68.393a.97.97,0,0,0,.873,0l1.563-.9a.265.265,0,0,0,0-.5l-.68-.393a.963.963,0,0,0-.873,0l-1.563.9A.266.266,0,0,0,458.681,339.812Zm28.755-13.7-.68-.393a.957.957,0,0,0-.873,0l-1.563.9a.266.266,0,0,0,0,.5l.68.393a.963.963,0,0,0,.873,0l1.563-.9C487.675,326.476,487.677,326.251,487.435,326.113Zm-2.858,1.649-.68-.391a.964.964,0,0,0-.873,0l-.684.4a.266.266,0,0,0,0,.5l.682.393a.959.959,0,0,0,.871,0l.686-.4A.266.266,0,0,0,484.577,327.763Zm-1.983,1.647a.266.266,0,0,0,0-.5l-.68-.391a.963.963,0,0,0-.873,0l-.684.4a.266.266,0,0,0,0,.5l.68.393a.963.963,0,0,0,.873,0Zm-1.979,1.143a.266.266,0,0,0,0-.5l-.68-.391a.964.964,0,0,0-.873,0l-.684.4c-.242.139-.244.367,0,.5l.682.393a.959.959,0,0,0,.871,0Zm-3.532.248-.684.4a.266.266,0,0,0,0,.5l.68.393a.964.964,0,0,0,.873,0l.684-.4a.266.266,0,0,0,0-.5l-.68-.391A.963.963,0,0,0,477.083,330.8Zm-1.936,1.121-.77.443c-.217.127-.219.33,0,.455l.764.443a.87.87,0,0,0,.789,0l.768-.444a.24.24,0,0,0,0-.455l-.764-.44A.866.866,0,0,0,475.147,331.922Zm-1.981,1.141-.768.445c-.219.127-.219.33,0,.455l.764.443a.871.871,0,0,0,.789,0l.77-.445a.24.24,0,0,0,0-.455l-.764-.44A.877.877,0,0,0,473.165,333.063Zm-1.981,1.145-.768.443c-.217.127-.219.33,0,.455l.764.443a.871.871,0,0,0,.789,0l.768-.445a.24.24,0,0,0,0-.455l-.764-.441A.87.87,0,0,0,471.184,334.208Zm-1.979,1.141-.768.445c-.219.127-.221.33,0,.455l.764.443a.87.87,0,0,0,.789,0l.77-.445a.24.24,0,0,0,0-.455l-.764-.44A.877.877,0,0,0,469.205,335.349Zm-1.981,1.145-.768.443c-.217.127-.219.33,0,.455l.764.443a.87.87,0,0,0,.789,0l.768-.444a.24.24,0,0,0,0-.455l-.764-.441A.87.87,0,0,0,467.224,336.495Zm-1.2,2.481.77-.445a.24.24,0,0,0,0-.455l-.764-.44a.876.876,0,0,0-.789,0l-.768.445c-.219.127-.221.33,0,.455l.764.443A.87.87,0,0,0,466.026,338.976Zm-1.979,1.143.768-.445a.24.24,0,0,0,0-.455l-.764-.44a.87.87,0,0,0-.789,0l-.768.443a.242.242,0,0,0,0,.457l.764.44A.87.87,0,0,0,464.046,340.119Zm-3.575.727.764.441a.87.87,0,0,0,.789,0l.768-.445c.219-.125.221-.33,0-.455l-.764-.443a.876.876,0,0,0-.789,0l-.77.445A.24.24,0,0,0,460.471,340.846ZM489.312,327.2l-.764-.44a.87.87,0,0,0-.789,0l-2.483,1.432c-.217.127-.219.33,0,.455l.764.443a.87.87,0,0,0,.789,0l2.483-1.434A.24.24,0,0,0,489.312,327.2Zm-3.694,2.133-.764-.44a.87.87,0,0,0-.789,0l-.768.443c-.219.127-.219.33,0,.455l.764.443a.87.87,0,0,0,.789,0l.768-.445A.24.24,0,0,0,485.618,329.328Zm-1.979,1.143-.764-.44a.87.87,0,0,0-.789,0l-.77.443a.242.242,0,0,0,0,.457l.764.44a.871.871,0,0,0,.789,0l.768-.445C483.854,330.8,483.856,330.6,483.639,330.471Zm-1.981,1.143-.764-.441a.871.871,0,0,0-.789,0l-.768.443c-.219.127-.219.33,0,.455l.764.442a.87.87,0,0,0,.789,0l.768-.445A.24.24,0,0,0,481.658,331.614Zm-2.752,2.043.768-.445c.219-.125.221-.33,0-.455l-.764-.44a.87.87,0,0,0-.789,0l-.77.443a.242.242,0,0,0,0,.457l.764.441A.87.87,0,0,0,478.906,333.657Zm-1.979,1.143.768-.443a.242.242,0,0,0,0-.457l-.764-.44a.87.87,0,0,0-.789,0l-.768.443c-.219.127-.219.33,0,.455l.764.443A.871.871,0,0,0,476.927,334.8Zm-1.981,1.143.768-.445c.219-.125.221-.33,0-.455l-.764-.44a.871.871,0,0,0-.789,0l-.77.443a.242.242,0,0,0,0,.457l.764.44A.87.87,0,0,0,474.946,335.943Zm-1.979,1.143.768-.443a.242.242,0,0,0,0-.457l-.764-.44a.871.871,0,0,0-.789,0l-.768.443c-.219.127-.219.33,0,.455l.764.443A.871.871,0,0,0,472.967,337.087Zm-1.981,1.143.768-.445a.24.24,0,0,0,0-.455l-.764-.44a.87.87,0,0,0-.789,0l-.77.443a.242.242,0,0,0,0,.457l.764.44A.87.87,0,0,0,470.986,338.23ZM469,339.373l.77-.443a.242.242,0,0,0,0-.457l-.764-.44a.87.87,0,0,0-.789,0l-.768.443a.241.241,0,0,0,0,.457l.764.44A.866.866,0,0,0,469,339.373Zm-1.207.244-.764-.44a.87.87,0,0,0-.789,0l-.77.443a.242.242,0,0,0,0,.457l.764.44a.871.871,0,0,0,.789,0l.768-.445A.24.24,0,0,0,467.8,339.617Zm-5.493,2.288.764.44a.87.87,0,0,0,.789,0l1.957-1.129a.242.242,0,0,0,0-.457l-.764-.44a.87.87,0,0,0-.789,0l-1.955,1.129A.24.24,0,0,0,462.3,341.905Zm28.834-13.655-.664-.383a.985.985,0,0,0-.889,0l-3.524,2.034a.271.271,0,0,0,0,.514l.662.381a.983.983,0,0,0,.891,0l3.522-2.034C491.383,328.621,491.383,328.392,491.139,328.25Zm-4.837,2.792-.662-.383a.989.989,0,0,0-.891,0l-.666.385a.271.271,0,0,0,0,.514l.664.383a.985.985,0,0,0,.889,0l.668-.385C486.546,331.414,486.548,331.184,486.3,331.043Zm-1.979,1.143-.664-.383a.985.985,0,0,0-.889,0l-.668.385a.271.271,0,0,0,0,.514l.662.383a.99.99,0,0,0,.891,0l.666-.385C484.567,332.557,484.567,332.327,484.323,332.186Zm-1.981,1.143-.662-.383a.99.99,0,0,0-.891,0l-.666.385c-.248.143-.248.373,0,.514l.664.383a.985.985,0,0,0,.889,0l.668-.385C482.586,333.7,482.588,333.471,482.342,333.329Zm-1.979,1.143-.664-.383a.985.985,0,0,0-.889,0l-.668.385a.271.271,0,0,0,0,.514l.662.383a.99.99,0,0,0,.891,0l.666-.385A.271.271,0,0,0,480.363,334.473Zm-1.981,1.143-.662-.383a.99.99,0,0,0-.891,0l-.666.385c-.248.143-.248.373,0,.514l.664.383a.985.985,0,0,0,.889,0l.668-.385C478.626,335.987,478.628,335.757,478.382,335.616Zm-1.979,1.143-.664-.383a.985.985,0,0,0-.889,0l-.668.385a.271.271,0,0,0,0,.514l.662.383a.989.989,0,0,0,.891,0l.666-.385A.271.271,0,0,0,476.4,336.759Zm-1.981,1.143-.662-.383a.99.99,0,0,0-.891,0l-.666.385c-.248.143-.248.373,0,.514l.664.383a.985.985,0,0,0,.889,0l.668-.385C474.665,338.273,474.667,338.043,474.421,337.9Zm-1.979,1.143-.664-.383a.985.985,0,0,0-.889,0l-.668.385a.271.271,0,0,0,0,.514l.662.383a.989.989,0,0,0,.891,0l.666-.385A.272.272,0,0,0,472.442,339.045Zm-1.981,1.143-.662-.383a.99.99,0,0,0-.891,0l-.666.385c-.248.143-.248.373,0,.514l.664.383a.985.985,0,0,0,.889,0l.668-.385C470.7,340.559,470.707,340.33,470.461,340.189Zm-1.979,1.143-.664-.383a.989.989,0,0,0-.891,0l-.666.385c-.246.143-.248.373,0,.514l.662.383a.989.989,0,0,0,.891,0l.666-.385A.272.272,0,0,0,468.482,341.332Zm-4.247,1.686.662.383a.983.983,0,0,0,.891,0l.666-.385a.271.271,0,0,0,0-.514l-.664-.381a.979.979,0,0,0-.889,0l-.668.383C463.991,342.647,463.989,342.877,464.235,343.018Zm25.636-12.684.664.383a.979.979,0,0,0,.889,0l1.547-.891c.246-.143.248-.373,0-.514l-.662-.383a.983.983,0,0,0-.891,0l-1.545.893A.27.27,0,0,0,489.871,330.334Zm-1.979,1.145.662.381a.983.983,0,0,0,.891,0l.666-.383c.248-.143.248-.373,0-.514l-.662-.383a.982.982,0,0,0-.891,0l-.666.383A.273.273,0,0,0,487.892,331.479Zm-1.981,1.141.664.383a.979.979,0,0,0,.889,0l.668-.383c.246-.143.248-.373,0-.514l-.662-.383a.983.983,0,0,0-.891,0l-.666.385A.27.27,0,0,0,485.911,332.62Zm-13.86,8,.662.381a.983.983,0,0,0,.891,0l12.547-7.242c.248-.143.248-.373,0-.514l-.662-.383a.983.983,0,0,0-.891,0l-12.547,7.244A.271.271,0,0,0,472.051,340.625Zm-1.981,1.143.662.381a.99.99,0,0,0,.891,0l.668-.385c.246-.143.248-.373,0-.514l-.662-.383a.983.983,0,0,0-.891,0l-.666.385A.271.271,0,0,0,470.07,341.768Zm-1.979,1.143.662.381a.983.983,0,0,0,.891,0l.666-.383c.246-.143.248-.373,0-.514l-.662-.383a.983.983,0,0,0-.891,0l-.666.385A.271.271,0,0,0,468.091,342.911Zm-2.022,1.166.662.383a.983.983,0,0,0,.891,0l.666-.385a.271.271,0,0,0,0-.514l-.664-.381a.985.985,0,0,0-.889,0l-.668.385C465.825,343.706,465.823,343.936,466.069,344.077Z" transform="translate(-445.482 -317.039)" fill="#e5e9ff"/>
      </g>
      <g id="Group_819" data-name="Group 819" transform="translate(0 37.037)">
        <g id="Group_818" data-name="Group 818">
          <path id="Path_1976" data-name="Path 1976" d="M475.845,344.323l.012-.023-.07-.023c-.334-.246-13.473-5.282-19.592-8.818l7.974-16.732a9.1,9.1,0,0,0,.971-1.981,7.372,7.372,0,0,0,.24-1.848,15.51,15.51,0,0,0-7.042-12.143c-3.583-2.069-6.07.693-6.949,3.042,0,0-10.738,30.9-10.738,32.1a6.61,6.61,0,0,0,2.112,4.835,11.165,11.165,0,0,0,2,1.3c6.109,3.182,20.062,8.957,24.3,10.695a2.151,2.151,0,0,0,1.141.467l.109.043.018-.039a3.815,3.815,0,0,0,2.131-.578,9.77,9.77,0,0,0,4.434-7.648A3.228,3.228,0,0,0,475.845,344.323Z" transform="translate(-440.651 -302.028)" fill="url(#linear-gradient-9)"/>
          <path id="Path_1977" data-name="Path 1977" d="M474.44,329.5l-8.814-4.7a3.2,3.2,0,0,0-.822-.3s-4.645-1.383-5.437-1.149a.712.712,0,0,0-.379.143,3.772,3.772,0,0,0-.428.2,7.438,7.438,0,0,0-3.376,5.823,2.359,2.359,0,0,0,1.66,2.362l2.11.86a22.533,22.533,0,0,0,7.564,1.649l4.556.19a3.19,3.19,0,0,0,2.311-.858h0A2.241,2.241,0,0,0,474.44,329.5Z" transform="translate(-425.409 -279.692)" fill="#ffd4c0"/>
        </g>
      </g>
      <g id="Group_820" data-name="Group 820" transform="translate(45.106 59.234)">
        <path id="Path_1978" data-name="Path 1978" d="M465.134,361.177l30.918-17.861a5.193,5.193,0,0,0,2.168-4.141V314.92c0-1.6-.971-2.33-2.168-1.639l-30.918,17.861a5.19,5.19,0,0,0-2.168,4.141v24.255C462.967,361.134,463.938,361.868,465.134,361.177Z" transform="translate(-462.352 -312.695)" fill="#858fd6"/>
        <path id="Path_1979" data-name="Path 1979" d="M464.835,330.983l30.918-17.861a1.462,1.462,0,0,1,1.268-.186c.045.018.65.338.693.363h0a1.42,1.42,0,0,0-1.348.15l-30.918,17.861a5.19,5.19,0,0,0-2.168,4.141v24.255c0,1,.379,1.655.953,1.844a.365.365,0,0,1-.188-.066c-.029-.016-.684-.385-.709-.4a2,2,0,0,1-.67-1.7V335.124A5.19,5.19,0,0,1,464.835,330.983Z" transform="translate(-462.667 -312.862)" fill="#2d3259"/>
      </g>
      <path id="Path_1980" data-name="Path 1980" d="M450.074,288.762a13.3,13.3,0,0,0,4.108,12.934c1.276,1.086.281-2.85,1.957-6.732A17.651,17.651,0,0,1,450.074,288.762Z" transform="translate(-431.125 -278.903)" fill="#afb6e5" style="mix-blend-mode: multiply;isolation: isolate"/>
    </g>
    <path id="Path_1981" data-name="Path 1981" d="M534.378,256.613l.072-.1c-.055-.016-.115-.016-.168-.033C534.319,256.525,534.343,256.57,534.378,256.613Z" transform="translate(289.945 146.696)" fill="#3f92d1"/>
    <g id="Group_822" data-name="Group 822" transform="translate(402.932 227.631)">
      <path id="Path_1982" data-name="Path 1982" d="M346.381,224.968l-.039-7.16c0-.545-.768-.987-1.711-.987s-1.7.436-1.7.981l.039,7.163C344.109,224.923,345.242,224.921,346.381,224.968Z" transform="translate(-313.671 -122.531)" fill="#ced3f4"/>
      <path id="Path_1983" data-name="Path 1983" d="M354.235,226.614l8.681-5.011a.736.736,0,0,0-.008-1.393,2.658,2.658,0,0,0-2.413,0l-8.689,5.015c.432.219.883.428,1.28.66S353.86,226.366,354.235,226.614Z" transform="translate(-304.365 -119.283)" fill="#ced3f4"/>
      <path id="Path_1984" data-name="Path 1984" d="M330.6,221.551l8.75,5.052a23.72,23.72,0,0,1,2.4-1.389L333,220.162a2.667,2.667,0,0,0-2.411,0A.735.735,0,0,0,330.6,221.551Z" transform="translate(-327.138 -119.331)" fill="#ced3f4"/>
      <path id="Path_1985" data-name="Path 1985" d="M329.763,234.751c-1.492.858-1.483,2.258.016,3.124l1.979,1.141a5.979,5.979,0,0,0,5.413.01l2.012-1.162-7.408-4.276Z" transform="translate(-328.649 -104.944)" fill="#ced3f4"/>
      <path id="Path_1986" data-name="Path 1986" d="M363.008,237.486l-8.734-5.042c-.373.246-.735.494-1.139.729s-.842.443-1.27.658l8.738,5.044a2.665,2.665,0,0,0,2.414,0C363.68,238.5,363.678,237.873,363.008,237.486Z" transform="translate(-304.302 -106.145)" fill="#ced3f4"/>
      <path id="Path_1987" data-name="Path 1987" d="M368.306,227.36l-12.319-.021a8.439,8.439,0,0,1,.01,1.969l12.321.023c.94,0,1.7-.438,1.7-.981S369.251,227.362,368.306,227.36Z" transform="translate(-299.979 -111.498)" fill="#ced3f4"/>
      <path id="Path_1988" data-name="Path 1988" d="M370.156,224.663c-7-3.212-17.212-3.3-24.286-.195-5.671,2.487-8.263,6.253-7.816,9.93.246,2.014-.938,3.991-3.4,5.413l-3.079,1.778c-1.565.9-1.557,2.373.018,3.28l6.908,3.991a6.278,6.278,0,0,0,5.683.01l3.071-1.774a18.339,18.339,0,0,1,9.547-1.963c5.474.195,11.043-.9,15.212-3.309C380.307,237.035,379.676,229.033,370.156,224.663Z" transform="translate(-326.811 -116.893)" fill="#ced3f4"/>
      <path id="Path_1989" data-name="Path 1989" d="M329.761,237.139l2.012-1.162,5.327,3.075c.021-.01.049-.014.07-.027l1.344-.776-5.087-2.938a2.116,2.116,0,0,1-1.151-1.434l-.5-.289-2.012,1.162c-1.291.744-1.453,1.891-.5,2.749A3.036,3.036,0,0,1,329.761,237.139Z" transform="translate(-328.648 -104.944)" fill="#afb6e5"/>
      <path id="Path_1990" data-name="Path 1990" d="M330.6,221.551l1.237.715a2.473,2.473,0,0,1,1.166.287l6.681,3.858a23.711,23.711,0,0,1,2.069-1.2L333,220.162a2.667,2.667,0,0,0-2.411,0A.735.735,0,0,0,330.6,221.551Z" transform="translate(-327.138 -119.331)" fill="#afb6e5"/>
      <path id="Path_1991" data-name="Path 1991" d="M331.567,237.174l3.079-1.778c2.465-1.424,3.649-3.4,3.4-5.413a6.857,6.857,0,0,1-.023-1.3,6.182,6.182,0,0,1-3.38,4.319l-3.079,1.778c-1.328.766-1.51,1.934-.58,2.827A3.018,3.018,0,0,1,331.567,237.174Z" transform="translate(-326.807 -110.087)" fill="#afb6e5"/>
      <path id="Path_1992" data-name="Path 1992" d="M344.631,219.211c.943,0,1.709.443,1.711.988l.027,4.77h.008l-.035-7.16c0-.545-.768-.987-1.711-.987s-1.7.436-1.7.981l.012,2.354C342.976,219.629,343.712,219.209,344.631,219.211Z" transform="translate(-313.671 -122.531)" fill="#afb6e5"/>
      <path id="Path_1993" data-name="Path 1993" d="M353.9,226.4l6.593-3.807a2.448,2.448,0,0,1,1.2-.285l1.225-.707a.736.736,0,0,0-.008-1.393,2.658,2.658,0,0,0-2.413,0l-8.689,5.015c.432.219.883.428,1.28.66C353.376,226.046,353.637,226.225,353.9,226.4Z" transform="translate(-304.365 -119.283)" fill="#afb6e5"/>
      <path id="Path_1994" data-name="Path 1994" d="M334.162,234.4a4.285,4.285,0,0,1,.027.742c.391-3.124,2.964-6.167,7.789-8.283,7.074-3.1,17.288-3.016,24.286.2,4.489,2.061,6.976,4.929,7.509,7.888.676-3.749-1.811-7.664-7.509-10.279-7-3.212-17.212-3.3-24.286-.195C336.307,226.955,333.716,230.721,334.162,234.4Z" transform="translate(-322.919 -116.893)" fill="#afb6e5"/>
      <path id="Path_1995" data-name="Path 1995" d="M356,229.309l12.321.023c.94,0,1.7-.438,1.7-.981s-.768-.988-1.713-.99l-12.319-.021A8.439,8.439,0,0,1,356,229.309Z" transform="translate(-299.979 -111.498)" fill="#afb6e5"/>
      <path id="Path_1996" data-name="Path 1996" d="M363.008,237.486l-8.734-5.042c-.373.246-.735.494-1.139.729s-.842.443-1.27.658l2.09,1.207c.1-.07.215-.135.32-.2l7.494,4.327a2.477,2.477,0,0,0,1.248-.283C363.68,238.5,363.678,237.873,363.008,237.486Z" transform="translate(-304.302 -106.145)" fill="#afb6e5"/>
      <path id="Path_1997" data-name="Path 1997" d="M452.536,320.694a21.021,21.021,0,0,0,2.545-1.741l7.226,1.012a3.144,3.144,0,0,0,2.62-.666,16.6,16.6,0,0,0,2.164-3.045c.32-.584-.133-1.221-1.043-1.545l-6.335-2.25a8.725,8.725,0,0,0-.025-4.556l6.31-2.229c.905-.318,1.352-.955,1.026-1.541a17.149,17.149,0,0,0-2.2-3.053,3.183,3.183,0,0,0-2.629-.674l-7.214.986a21.757,21.757,0,0,0-2.565-1.752,27.735,27.735,0,0,0-3.032-1.479L451.1,294c.244-.6-.221-1.233-1.17-1.518a51.553,51.553,0,0,0-5.288-1.268,3.278,3.278,0,0,0-2.669.592l-3.858,3.645a44.729,44.729,0,0,0-7.892-.014l-3.9-3.657a3.3,3.3,0,0,0-2.676-.6,49.971,49.971,0,0,0-5.274,1.25c-.947.279-1.405.914-1.154,1.512l1.752,4.171a27.6,27.6,0,0,0-3.016,1.469,21.269,21.269,0,0,0-2.545,1.742l-7.226-1.012a3.15,3.15,0,0,0-2.62.666,16.637,16.637,0,0,0-2.164,3.047c-.32.584.135,1.221,1.043,1.543l6.335,2.252a8.726,8.726,0,0,0,.025,4.556l-6.31,2.227c-.906.32-1.352.955-1.026,1.541a17.071,17.071,0,0,0,2.2,3.053,3.177,3.177,0,0,0,2.629.676l7.216-.986a21.542,21.542,0,0,0,2.563,1.75,27.742,27.742,0,0,0,3.032,1.481l-1.709,4.165c-.244.6.221,1.233,1.17,1.516a51.551,51.551,0,0,0,5.288,1.268,3.27,3.27,0,0,0,2.67-.592l3.858-3.643a44.72,44.72,0,0,0,7.892.014l3.9,3.657a3.294,3.294,0,0,0,2.674.6,50.982,50.982,0,0,0,5.274-1.25c.947-.281,1.405-.914,1.153-1.512l-1.752-4.173A27.071,27.071,0,0,0,452.536,320.694Zm-25.589-6.345c-4.057-2.342-4.077-6.128-.045-8.455a16.186,16.186,0,0,1,14.645.027c4.056,2.342,4.077,6.128.045,8.455A16.18,16.18,0,0,1,426.947,314.349Z" transform="translate(-252.454 -44.613)" fill="#ced3f4"/>
      <path id="Path_1998" data-name="Path 1998" d="M401.683,301.389a16.779,16.779,0,0,1,1.881-2.6,3.15,3.15,0,0,1,2.62-.666l7.226,1.012a21.033,21.033,0,0,1,2.545-1.741,27.6,27.6,0,0,1,3.016-1.469l-.535-1.274a25.068,25.068,0,0,0-2.481,1.207,21.022,21.022,0,0,0-2.545,1.741l-7.226-1.012a3.15,3.15,0,0,0-2.62.666A16.536,16.536,0,0,0,401.4,300.3.866.866,0,0,0,401.683,301.389Z" transform="translate(-252.451 -40.9)" fill="#afb6e5"/>
      <path id="Path_1999" data-name="Path 1999" d="M410.372,306.868l-1.184,2.885a.885.885,0,0,0,.236.963l1.473-3.591C410.714,307.046,410.552,306.946,410.372,306.868Z" transform="translate(-244.246 -28.091)" fill="#afb6e5"/>
      <path id="Path_2000" data-name="Path 2000" d="M404.853,299.972a8.5,8.5,0,0,0,0,1.533,9.017,9.017,0,0,1,.24-1.446Z" transform="translate(-248.766 -35.324)" fill="#afb6e5"/>
      <path id="Path_2001" data-name="Path 2001" d="M415.534,292.71a3.3,3.3,0,0,1,2.676.6l3.9,3.657a44.528,44.528,0,0,1,7.892.014l3.858-3.643a3.264,3.264,0,0,1,2.669-.592,51.035,51.035,0,0,1,5.288,1.266,2.036,2.036,0,0,1,.934.555l.236-.574c.244-.6-.221-1.235-1.17-1.518a51.035,51.035,0,0,0-5.288-1.266,3.264,3.264,0,0,0-2.669.592L430,295.447a44.525,44.525,0,0,0-7.892-.014l-3.9-3.657a3.3,3.3,0,0,0-2.676-.6,49.968,49.968,0,0,0-5.273,1.25c-.947.279-1.405.914-1.154,1.512l.236.563a2.01,2.01,0,0,1,.918-.539A49.983,49.983,0,0,1,415.534,292.71Z" transform="translate(-244.339 -44.613)" fill="#afb6e5"/>
      <path id="Path_2002" data-name="Path 2002" d="M430.009,304.268a16.18,16.18,0,0,1-14.645-.027,5.607,5.607,0,0,1-2.93-3.489c-.4,1.782.549,3.651,2.93,5.026a16.18,16.18,0,0,0,14.645.027c2.344-1.352,3.276-3.2,2.883-4.966A5.532,5.532,0,0,1,430.009,304.268Z" transform="translate(-240.871 -34.506)" fill="#afb6e5"/>
      <path id="Path_2003" data-name="Path 2003" d="M430.37,297.654a21.763,21.763,0,0,0-2.565-1.752,26.547,26.547,0,0,0-2.506-1.223l-.527,1.28a27.729,27.729,0,0,1,3.032,1.479,21.763,21.763,0,0,1,2.565,1.752l7.214-.985a3.183,3.183,0,0,1,2.629.674,17.152,17.152,0,0,1,1.916,2.612.865.865,0,0,0,.281-1.1,17.148,17.148,0,0,0-2.2-3.053,3.183,3.183,0,0,0-2.629-.674Z" transform="translate(-227.838 -40.875)" fill="#afb6e5"/>
      <path id="Path_2004" data-name="Path 2004" d="M430.064,301.676a8.65,8.65,0,0,0-.008-1.661l-.256.09A8.832,8.832,0,0,1,430.064,301.676Z" transform="translate(-222.566 -35.279)" fill="#afb6e5"/>
      <path id="Path_2005" data-name="Path 2005" d="M408.774,302.978a8.93,8.93,0,0,1-.254-1.446l-6.056,2.137c-.906.32-1.352.955-1.026,1.541.084.15.193.293.281.443a2.147,2.147,0,0,1,.746-.447Z" transform="translate(-252.423 -33.688)" fill="#afb6e5"/>
      <path id="Path_2006" data-name="Path 2006" d="M436.147,303.74l-6.1-2.166a8.7,8.7,0,0,1-.24,1.452l6.335,2.25a2.134,2.134,0,0,1,.76.459c.09-.152.2-.3.283-.451C437.509,304.7,437.056,304.061,436.147,303.74Z" transform="translate(-222.553 -33.644)" fill="#afb6e5"/>
      <path id="Path_2007" data-name="Path 2007" d="M425.372,306.892c-.182.082-.348.182-.535.26l1.516,3.61a.881.881,0,0,0,.236-.973Z" transform="translate(-227.771 -28.066)" fill="#afb6e5"/>
      <path id="Path_2008" data-name="Path 2008" d="M438.816,181.2l7.263,4.192a2.565,2.565,0,0,0,2.317.006l14.026-8.1a.706.706,0,0,0-.008-1.338l-7.263-4.194a2.563,2.563,0,0,0-2.319,0l-14.024,8.1A.707.707,0,0,0,438.816,181.2Zm13.012,7.513,7.265,4.194a2.571,2.571,0,0,0,2.317,0l27.638-15.958c.637-.367.633-.967-.008-1.338l-7.263-4.194a2.569,2.569,0,0,0-2.319,0l-27.636,15.958A.706.706,0,0,0,451.828,188.715Zm54.256-17.642-41.25,23.817c-.637.367-.633.967.008,1.338l7.263,4.194a2.563,2.563,0,0,0,2.319,0l41.25-23.817c.637-.367.633-.967-.008-1.338l-7.263-4.194A2.569,2.569,0,0,0,506.083,171.073Z" transform="translate(-213.618 -170.798)" fill="#ced3f4"/>
      <path id="Path_2009" data-name="Path 2009" d="M482.378,175.439l-7.263-4.194a2.569,2.569,0,0,0-2.319,0L445.16,187.2a.706.706,0,0,0,.006,1.338l.168.1L472.8,172.778a2.569,2.569,0,0,1,2.319,0l7.095,4.1.176-.1C483.024,176.411,483.019,175.81,482.378,175.439Z" transform="translate(-206.957 -170.621)" fill="#afb6e5"/>
      <path id="Path_2010" data-name="Path 2010" d="M438.816,180.845l.168.1,13.848-8a2.569,2.569,0,0,1,2.319,0l7.095,4.1.176-.1a.706.706,0,0,0-.008-1.338l-7.263-4.194a2.569,2.569,0,0,0-2.319,0l-14.024,8.1A.706.706,0,0,0,438.816,180.845Z" transform="translate(-213.618 -170.444)" fill="#afb6e5"/>
      <path id="Path_2011" data-name="Path 2011" d="M502.342,175.27l-7.265-4.194a2.571,2.571,0,0,0-2.317,0l-41.25,23.817c-.637.367-.633.967.008,1.338l.168.1,41.074-23.715a2.571,2.571,0,0,1,2.317,0l7.1,4.1.174-.1A.706.706,0,0,0,502.342,175.27Z" transform="translate(-200.295 -170.798)" fill="#afb6e5"/>
      <path id="Path_2012" data-name="Path 2012" d="M570.8,263.085,556.788,255l7.1-4.1c2.924-1.69,2.909-4.436-.033-6.134a3.752,3.752,0,0,0-3.4-.006l-6,3.462a13.821,13.821,0,0,1-6.529,1.631l-13.76.252,1.823-1.053a1.14,1.14,0,0,0-.01-2.159l-9.213-5.321a4.136,4.136,0,0,0-3.741-.006L504.261,252.4a1.14,1.14,0,0,0,.012,2.159l9.213,5.319a4.133,4.133,0,0,0,3.676.033c-.555.912-.211,1.967,1.057,2.7l7.58,4.376,9.451,5.456,5.056,2.92a7.953,7.953,0,0,0,6.911.186,2.752,2.752,0,0,0,1.617-1.823,7.776,7.776,0,0,0,6.9-.043c1.315-.76,1.727-1.846,1.241-2.815l.053.033a7.948,7.948,0,0,0,7.021.135c1.651-.9,1.975-2.295.981-3.4a7.829,7.829,0,0,0,5.782-.506C572.748,266.018,572.737,264.207,570.8,263.085Zm-55.448-4.774-8.363-4.827L524.9,243.14l8.361,4.827Z" transform="translate(-145.278 -97.044)" fill="#ced3f4"/>
      <path id="Path_2013" data-name="Path 2013" d="M520.288,249.786l-1.823,1.055,13.76-.254a13.844,13.844,0,0,0,6.529-1.629l6-3.465a3.758,3.758,0,0,1,3.4.006,4.6,4.6,0,0,1,1.891,1.889c.729-1.469.121-3.116-1.891-4.278a3.752,3.752,0,0,0-3.4-.006l-6,3.462a13.821,13.821,0,0,1-6.529,1.631l-11.271.207A1.126,1.126,0,0,1,520.288,249.786Z" transform="translate(-129.576 -95.388)" fill="#afb6e5"/>
      <path id="Path_2014" data-name="Path 2014" d="M533.628,255.363c.025-.033.047-.066.072-.1-.055-.016-.115-.016-.168-.033C533.569,255.275,533.593,255.32,533.628,255.363Z" transform="translate(-113.774 -82.246)" fill="#afb6e5"/>
      <path id="Path_2015" data-name="Path 2015" d="M514.362,256.123l17.115-9.881-2.069-1.194-15.847,9.148-6.294-3.632-2.069,1.2,7.55,4.358A4.455,4.455,0,0,0,514.362,256.123Z" transform="translate(-143.49 -92.928)" fill="#afb6e5"/>
      <path id="Path_2016" data-name="Path 2016" d="M543.516,255.37l-11.94-6.892-2.069,1.194,14.01,8.089a3.476,3.476,0,0,1,.992.836C545.353,257.54,545.032,256.247,543.516,255.37Z" transform="translate(-117.997 -89.329)" fill="#afb6e5"/>
      <path id="Path_2017" data-name="Path 2017" d="M504.273,254.56l.195.111,18.558-10.713a3.328,3.328,0,0,1,1.082-.356l.8-.461.807.467a3.358,3.358,0,0,1,1.055.356l9.017,5.208.207-.119a1.14,1.14,0,0,0-.01-2.159l-9.213-5.321a4.136,4.136,0,0,0-3.741-.006L504.261,252.4A1.14,1.14,0,0,0,504.273,254.56Z" transform="translate(-145.278 -97.044)" fill="#afb6e5"/>
    </g>
    <g id="Group_831" data-name="Group 831" transform="translate(297.764 305.035)">
      <g id="Group_824" data-name="Group 824" transform="translate(11.044 24.074)">
        <g id="Group_823" data-name="Group 823">
          <path id="Path_2018" data-name="Path 2018" d="M289.155,263.382l-.014-.021.064-.033c.3-.287,12.643-7.042,18.232-11.367l-6.771-13.938a9.181,9.181,0,0,1-1.227-1.834,7.447,7.447,0,0,1-.486-1.8,15.521,15.521,0,0,1,5.347-12.979c3.274-2.53,6.109-.127,7.3,2.084,0,0,11.41,27.6,11.569,28.793a6.593,6.593,0,0,1-1.444,5.073,10.947,10.947,0,0,1-1.811,1.561c-5.626,3.973-18.679,11.567-22.643,13.858a2.147,2.147,0,0,1-1.067.617l-.1.057-.025-.035a3.826,3.826,0,0,1-2.188-.289,9.765,9.765,0,0,1-5.419-6.984A3.224,3.224,0,0,1,289.155,263.382Z" transform="translate(-276.719 -220.329)" fill="url(#linear-gradient-9)"/>
          <path id="Path_2019" data-name="Path 2019" d="M284.032,248.894l6.511-4.692a3.153,3.153,0,0,1,.774-.41s4.415-1.993,5.232-1.868a.72.72,0,0,1,.4.092,3.741,3.741,0,0,1,.451.137,7.442,7.442,0,0,1,4.126,5.319,2.355,2.355,0,0,1-1.326,2.563l-4.9,2.817a3.2,3.2,0,0,1-1.031.377l-7.81,1.391a3.186,3.186,0,0,1-2.405-.541h0A3.188,3.188,0,0,1,284.032,248.894Z" transform="translate(-282.708 -197.687)" fill="#ffd4c0"/>
        </g>
      </g>
      <ellipse id="Ellipse_35" data-name="Ellipse 35" cx="26.757" cy="16.315" rx="26.757" ry="16.315" transform="translate(21.722 76.63)" fill="#e5e9ff" style="mix-blend-mode: multiply;isolation: isolate"/>
      <path id="Path_2020" data-name="Path 2020" d="M291,292.215l8.691-10.006a3.262,3.262,0,0,1,4.046-.711l3.9,2.174,0,0,.107.064v6.294a3.261,3.261,0,0,1-1.352,2.643l-7.322,5.284a4.929,4.929,0,0,1-5.276.315l-1.918-1.063a3.258,3.258,0,0,1-1.68-2.85h0A3.257,3.257,0,0,1,291,292.215Z" transform="translate(-263.805 -132.533)" fill="#4e0070"/>
      <path id="Path_2021" data-name="Path 2021" d="M277.968,286.3l9.349-11.074a2.757,2.757,0,0,1,2.9-.86l4.946,1.5,0,0,.115.037h0l1.278,5.862a2.756,2.756,0,0,1-1.092,2.829l-8.955,6.4a4.91,4.91,0,0,1-4.266.709l-2.946-.885a2.762,2.762,0,0,1-1.9-2.053l-.02-.1A2.753,2.753,0,0,1,277.968,286.3Z" transform="translate(-277.317 -139.71)" fill="#4e0070"/>
      <path id="Path_2022" data-name="Path 2022" d="M291.881,292.876l1.918,1.061a4.933,4.933,0,0,0,5.276-.313l7.322-7.109a3.261,3.261,0,0,0,1.352-2.643V287.1a3.265,3.265,0,0,1-1.352,2.645l-7.322,5.282a4.929,4.929,0,0,1-5.276.315l-1.918-1.063a3.258,3.258,0,0,1-1.68-2.85,3.145,3.145,0,0,1,.109-.6A3.255,3.255,0,0,0,291.881,292.876Z" transform="translate(-263.805 -129.613)" fill="#afb6e5" style="mix-blend-mode: multiply;isolation: isolate"/>
      <path id="Path_2023" data-name="Path 2023" d="M279.3,286.357l2.948.885a4.9,4.9,0,0,0,4.264-.707L295.468,278a2.727,2.727,0,0,0,.75-.858l.34,1.565a2.752,2.752,0,0,1-1.09,2.829l-8.955,6.4a4.907,4.907,0,0,1-4.264.709l-2.948-.885a2.761,2.761,0,0,1-1.9-2.055l-.02-.094a2.747,2.747,0,0,1,.031-1.285A2.752,2.752,0,0,0,279.3,286.357Z" transform="translate(-277.316 -136.667)" fill="#afb6e5" style="mix-blend-mode: multiply;isolation: isolate"/>
      <path id="Path_2024" data-name="Path 2024" d="M293.526,272.494l0,0,23.5-19.922.006.006A10.193,10.193,0,0,1,328,249.72a10,10,0,0,1,6.814,9.881c-.08,4.241-2.473,7.249-6.577,9.3L307.82,279.833a3.06,3.06,0,0,0-1.606,2.883l2.219,36.167c0,2.465-3.432,4.462-7.662,4.462s-7.662-2-7.662-4.462l-2.481-40.43A7.613,7.613,0,0,1,293.526,272.494Z" transform="translate(-263.358 -166.015)" fill="url(#linear-gradient-28)"/>
      <path id="Path_2025" data-name="Path 2025" d="M279.864,273.517a7.624,7.624,0,0,1,3.088-6.114l-.023-.016,27.835-19.451a10.2,10.2,0,1,1,11.453,16.314l.047.072L296.94,275.084a2.923,2.923,0,0,0-1.778,2.672l-.215,32.057c0,2.465-3.432,4.462-7.664,4.462s-7.662-2-7.662-4.462Z" transform="translate(-274.902 -170.787)" fill="url(#linear-gradient-29)"/>
      <path id="Path_2026" data-name="Path 2026" d="M293.49,230.542a10.153,10.153,0,0,1,9.641-10.641,30.913,30.913,0,0,1,5.431.834,39.536,39.536,0,0,1,17.173,8.99c.07.07.135.141.2.209a10.132,10.132,0,0,1,4.612,8.007l2.241,44.733c.305,6.2-8.074,11.645-18.716,12.17s-17.515-3.046-17.82-9.242C296.256,285.6,293.718,235.186,293.49,230.542Z" transform="translate(-260.368 -196.709)" fill="#fff"/>
      <g id="Group_825" data-name="Group 825" transform="translate(32.546 22.454)">
        <path id="Path_2027" data-name="Path 2027" d="M293.216,230.658a10.6,10.6,0,0,1,10.066-11.108,13.118,13.118,0,0,1,3.395.332c.51.123,1.026.262,1.545.414-3.3.881-5.593,2.862-5.487,5.054,0,0,2.026,17.941,2.555,28.656.432,8.763.9,26.722,1.371,36.323-7.757-1.272-10.307-2.512-10.557-7.556C296.1,282.773,293.453,235.506,293.216,230.658Z" transform="translate(-293.203 -219.538)" fill="url(#linear-gradient-7)"/>
        <path id="Path_2028" data-name="Path 2028" d="M300.381,253.224c-.344-7.017,6.1-24.083,10.252-28.124a10.194,10.194,0,0,0,1.928-2.622,36.64,36.64,0,0,1,6.618,4.78c.072.07.139.145.209.217a10.574,10.574,0,0,1,4.815,8.357l2.34,48.277c.158,3.235-1.948,6.273-5.483,8.572s-18.451,5.739-19.3-11.438C301.165,269.116,300.645,258.565,300.381,253.224Z" transform="translate(-285.688 -216.456)" fill="url(#linear-gradient-7)"/>
        <path id="Path_2029" data-name="Path 2029" d="M318.928,229l2.34,48.277c.158,3.235-1.948,6.273-5.485,8.572a15.726,15.726,0,0,1-9.551,1.782c2.475-2.094,3.329-4.106,3.2-6.769L305.4,237Z" transform="translate(-280.415 -209.62)" fill="#ced3f4" style="mix-blend-mode: multiply;isolation: isolate"/>
      </g>
      <g id="Group_826" data-name="Group 826" transform="translate(2.3 74.963)">
        <path id="Path_2030" data-name="Path 2030" d="M311.384,278.524,279.3,260a1.48,1.48,0,0,1-.856-1.217v-1.59c.01-.555.42.408,1.211-.047l18.212-10.514a5.491,5.491,0,0,1,4.944-.2l32.09,18.525c.422.246.729-.791.838-.463.037.111.014,1.565.016,1.68a2.013,2.013,0,0,1-1.211,1.639l-18.211,10.514A5.5,5.5,0,0,1,311.384,278.524Z" transform="translate(-278.44 -244.369)" fill="#2d3259"/>
        <path id="Path_2031" data-name="Path 2031" d="M311.384,277.762,279.3,259.235c-1.268-.731-1.108-2.01.354-2.854l18.212-10.514a5.5,5.5,0,0,1,4.944-.2l32.09,18.527c1.266.731,1.106,2.01-.356,2.854l-18.211,10.514A5.5,5.5,0,0,1,311.384,277.762Z" transform="translate(-278.44 -245.168)" fill="#858fd6"/>
        <path id="Path_2032" data-name="Path 2032" d="M313.2,277.286a3.726,3.726,0,0,1-1.825-.408l-32.09-18.527c-.2-.115-.535-.356-.535-.684s.332-.738.889-1.059l18.211-10.514a5.1,5.1,0,0,1,2.477-.613,3.764,3.764,0,0,1,1.828.408l32.088,18.527c.2.115.535.356.535.684s-.332.738-.889,1.059L315.68,276.674A5.1,5.1,0,0,1,313.2,277.286Z" transform="translate(-278.112 -244.84)" fill="#afb6e5"/>
        <path id="Path_2033" data-name="Path 2033" d="M308.818,270.274,282.76,255.228c-.522-.3-.457-.828.145-1.174l9.783-5.648a2.257,2.257,0,0,1,2.037-.084l26.058,15.044c.52.3.457.826-.148,1.174l-9.783,5.649A2.266,2.266,0,0,1,308.818,270.274Z" transform="translate(-274.28 -242.075)" fill="#858fd6"/>
        <path id="Path_2034" data-name="Path 2034" d="M292.484,249.067l1.67.965a.842.842,0,0,0,.766,0,.233.233,0,0,0,0-.443l-1.67-.963a.848.848,0,0,0-.766,0A.233.233,0,0,0,292.484,249.067Zm2.858,1.651.791.457a.853.853,0,0,0,.768,0c.211-.123.209-.322,0-.445l-.791-.455a.842.842,0,0,0-.766,0C295.129,250.4,295.131,250.6,295.342,250.718Zm1.981,1.143.791.457a.842.842,0,0,0,.766,0,.233.233,0,0,0,0-.443l-.791-.457a.849.849,0,0,0-.766,0A.233.233,0,0,0,297.323,251.861ZM299.3,253l.791.457a.853.853,0,0,0,.768,0,.233.233,0,0,0,0-.443l-.791-.457a.842.842,0,0,0-.766,0C299.089,252.683,299.092,252.882,299.3,253Zm1.981,1.143.791.457a.842.842,0,0,0,.766,0,.233.233,0,0,0,0-.443l-.791-.455a.842.842,0,0,0-.766,0A.233.233,0,0,0,301.284,254.148Zm1.979,1.143.791.457a.853.853,0,0,0,.768,0,.233.233,0,0,0,0-.443l-.791-.457a.842.842,0,0,0-.766,0C303.05,254.969,303.052,255.168,303.263,255.291Zm1.981,1.143.791.457a.842.842,0,0,0,.766,0,.233.233,0,0,0,0-.443l-.791-.455a.842.842,0,0,0-.766,0A.233.233,0,0,0,305.244,256.434Zm1.979,1.143.791.457a.853.853,0,0,0,.768,0,.233.233,0,0,0,0-.443l-.791-.457a.849.849,0,0,0-.766,0C307.01,257.256,307.012,257.454,307.223,257.577Zm1.981,1.143.791.457a.849.849,0,0,0,.766,0,.233.233,0,0,0,0-.443l-.791-.457a.842.842,0,0,0-.766,0A.233.233,0,0,0,309.2,258.721Zm1.979,1.143.791.457a.853.853,0,0,0,.768,0,.233.233,0,0,0,0-.443l-.791-.457a.848.848,0,0,0-.766,0C310.97,259.542,310.972,259.741,311.183,259.864Zm1.981,1.143.791.457a.849.849,0,0,0,.766,0,.233.233,0,0,0,0-.443l-.791-.457a.842.842,0,0,0-.766,0A.233.233,0,0,0,313.164,261.007Zm1.979,1.143.791.457a.853.853,0,0,0,.768,0,.234.234,0,0,0,0-.443l-.793-.457a.848.848,0,0,0-.766,0C314.931,261.829,314.933,262.027,315.144,262.15Zm2.022,1.168.791.457a.849.849,0,0,0,.766,0,.233.233,0,0,0,0-.443l-.791-.457a.849.849,0,0,0-.766,0A.233.233,0,0,0,317.166,263.318ZM290.7,250.157l.684.4a.97.97,0,0,0,.873,0l.68-.393a.266.266,0,0,0,0-.5l-.684-.4a.97.97,0,0,0-.873,0l-.68.393A.266.266,0,0,0,290.7,250.157Zm3.536,1.541.68-.393a.266.266,0,0,0,0-.5l-.684-.4a.97.97,0,0,0-.873,0l-.68.393a.266.266,0,0,0,0,.5l.684.4A.964.964,0,0,0,294.24,251.7Zm.424.746.684.4a.97.97,0,0,0,.873,0l.68-.393a.266.266,0,0,0,0-.5l-.684-.4a.97.97,0,0,0-.873,0l-.68.393C294.42,252.079,294.422,252.3,294.664,252.443Zm1.979,1.143.684.4a.963.963,0,0,0,.873,0l.68-.393a.266.266,0,0,0,0-.5l-.684-.4a.97.97,0,0,0-.873,0l-.68.393A.266.266,0,0,0,296.643,253.586Zm4.216.643-.686-.4a.97.97,0,0,0-.873,0l-.68.393a.266.266,0,0,0,0,.5l.684.4a.97.97,0,0,0,.873,0l.68-.393A.267.267,0,0,0,300.86,254.23Zm1.979,1.143-.684-.4a.964.964,0,0,0-.873,0l-.68.391a.266.266,0,0,0,0,.5l.684.4a.964.964,0,0,0,.873,0l.68-.393A.266.266,0,0,0,302.839,255.373Zm1.981,1.143-.686-.4a.964.964,0,0,0-.873,0l-.68.391a.266.266,0,0,0,0,.5l.684.4a.97.97,0,0,0,.873,0l.68-.393A.266.266,0,0,0,304.82,256.516Zm1.979,1.143-.684-.4a.97.97,0,0,0-.873,0l-.68.393a.266.266,0,0,0,0,.5l.684.4a.963.963,0,0,0,.873,0l.68-.393A.266.266,0,0,0,306.8,257.659Zm1.981,1.143-.686-.4a.964.964,0,0,0-.873,0l-.68.391a.266.266,0,0,0,0,.5l.684.4a.964.964,0,0,0,.873,0l.68-.393A.266.266,0,0,0,308.78,258.8Zm1.979,1.143-.684-.4a.97.97,0,0,0-.873,0l-.68.393a.266.266,0,0,0,0,.5l.684.4a.963.963,0,0,0,.873,0l.68-.393A.266.266,0,0,0,310.759,259.946Zm-.254,1.643.684.4a.963.963,0,0,0,.873,0l.68-.393a.266.266,0,0,0,0-.5l-.686-.4a.964.964,0,0,0-.873,0l-.68.391A.266.266,0,0,0,310.505,261.589Zm4.214.643-.684-.4a.964.964,0,0,0-.873,0l-.68.391a.266.266,0,0,0,0,.5l.684.4a.964.964,0,0,0,.873,0l.68-.393A.266.266,0,0,0,314.72,262.232Zm2.9,1.676-1.565-.9a.966.966,0,0,0-.871,0l-.682.393a.266.266,0,0,0,0,.5l1.563.9a.964.964,0,0,0,.873,0l.68-.393A.265.265,0,0,0,317.621,263.908Zm-28.753-12.692,1.565.9a.953.953,0,0,0,.871,0l.682-.391a.266.266,0,0,0,0-.5l-1.563-.9a.97.97,0,0,0-.873,0l-.68.393A.266.266,0,0,0,288.868,251.216Zm2.86,1.649.684.4a.964.964,0,0,0,.873,0l.68-.393a.265.265,0,0,0,0-.5l-.684-.4a.964.964,0,0,0-.873,0l-.68.393C291.484,252.5,291.486,252.726,291.728,252.865Zm2.665,1.539a.953.953,0,0,0,.871,0l.682-.391a.266.266,0,0,0,0-.5l-.684-.4a.964.964,0,0,0-.873,0l-.68.393c-.24.137-.24.363,0,.5Zm1.979,1.145a.964.964,0,0,0,.873,0l.68-.393a.265.265,0,0,0,0-.5l-.684-.4a.964.964,0,0,0-.873,0l-.68.393c-.242.137-.24.365,0,.5Zm1.973-.15-.68.393c-.24.137-.24.363,0,.5l.686.4a.959.959,0,0,0,.871,0l.682-.391a.266.266,0,0,0,0-.5l-.684-.4A.963.963,0,0,0,298.346,255.4Zm2.022,1.119-.764.443c-.217.125-.215.328,0,.455l.77.443a.871.871,0,0,0,.789,0l.764-.44a.24.24,0,0,0,0-.455l-.768-.445A.87.87,0,0,0,300.368,256.518Zm1.981,1.143-.764.44a.241.241,0,0,0,0,.457l.768.445a.876.876,0,0,0,.789,0l.764-.44a.24.24,0,0,0,0-.455l-.77-.445A.866.866,0,0,0,302.349,257.661Zm1.979,1.143-.764.443c-.217.125-.215.328,0,.455l.77.443a.87.87,0,0,0,.789,0l.764-.441c.217-.125.215-.33,0-.455l-.768-.445A.87.87,0,0,0,304.328,258.8Zm1.981,1.143-.764.442c-.217.125-.217.328,0,.455l.768.445a.877.877,0,0,0,.789,0l.764-.44a.24.24,0,0,0,0-.455l-.768-.445A.87.87,0,0,0,306.309,259.948Zm1.979,1.143-.764.443c-.217.125-.215.328,0,.455l.77.443a.87.87,0,0,0,.789,0l.764-.44c.217-.125.215-.33,0-.455l-.768-.445A.871.871,0,0,0,308.288,261.091Zm2.776,2.485.764-.441a.24.24,0,0,0,0-.455l-.768-.445a.87.87,0,0,0-.789,0l-.764.443c-.217.125-.217.328,0,.455l.768.445A.877.877,0,0,0,311.065,263.576Zm1.981,1.143.764-.44c.217-.125.215-.33,0-.455l-.768-.445a.87.87,0,0,0-.789,0l-.764.443c-.217.125-.215.328,0,.455l.77.443A.87.87,0,0,0,313.046,264.719Zm2.782.271-.768-.443a.87.87,0,0,0-.789,0l-.764.44a.24.24,0,0,0,0,.455l.768.445a.871.871,0,0,0,.789,0l.764-.44A.241.241,0,0,0,315.828,264.99Zm-28.834-12.739,2.481,1.434a.877.877,0,0,0,.789,0l.764-.44a.24.24,0,0,0,0-.455l-2.483-1.434a.87.87,0,0,0-.789,0l-.764.443C286.772,251.921,286.774,252.124,286.993,252.251Zm3.694,2.133.768.443a.87.87,0,0,0,.789,0l.764-.44a.24.24,0,0,0,0-.455l-.77-.445a.87.87,0,0,0-.789,0l-.764.443C290.466,254.054,290.468,254.256,290.687,254.383Zm1.979,1.143.768.445a.876.876,0,0,0,.789,0l.764-.44a.24.24,0,0,0,0-.455l-.768-.445a.87.87,0,0,0-.789,0l-.764.443C292.447,255.2,292.449,255.4,292.667,255.527Zm1.981,1.143.768.442a.87.87,0,0,0,.789,0l.764-.44a.24.24,0,0,0,0-.455l-.77-.445a.87.87,0,0,0-.789,0l-.764.442C294.426,256.34,294.429,256.543,294.648,256.67Zm3.536,1.588.764-.44a.24.24,0,0,0,0-.455l-.768-.445a.87.87,0,0,0-.789,0l-.764.442c-.217.125-.215.328,0,.455l.768.445A.877.877,0,0,0,298.184,258.258Zm1.981,1.143.764-.441a.24.24,0,0,0,0-.455l-.77-.445a.87.87,0,0,0-.789,0l-.764.443c-.217.125-.215.328,0,.455l.768.445A.877.877,0,0,0,300.165,259.4Zm1.979,1.143.764-.44a.24.24,0,0,0,0-.455l-.768-.445a.876.876,0,0,0-.789,0l-.764.442c-.217.125-.215.328,0,.455l.768.445A.877.877,0,0,0,302.144,260.544Zm1.981,1.143.764-.44a.24.24,0,0,0,0-.455l-.77-.444a.871.871,0,0,0-.789,0l-.764.443c-.215.125-.215.328,0,.455l.768.445A.876.876,0,0,0,304.125,261.687Zm1.979,1.143.764-.44a.24.24,0,0,0,0-.455l-.768-.445a.876.876,0,0,0-.789,0l-.764.443c-.217.125-.215.328,0,.455l.77.445A.866.866,0,0,0,306.1,262.83Zm1.981,1.143.764-.441a.24.24,0,0,0,0-.455l-.77-.445a.87.87,0,0,0-.789,0l-.764.443c-.215.125-.215.328,0,.455l.768.445A.877.877,0,0,0,308.086,263.974Zm.422.7.77.445a.866.866,0,0,0,.787,0l.764-.44a.24.24,0,0,0,0-.455l-.768-.445a.877.877,0,0,0-.789,0l-.764.442C308.288,264.342,308.291,264.545,308.508,264.672Zm5.487,1.377-1.957-1.129a.87.87,0,0,0-.789,0l-.764.443c-.215.125-.215.328,0,.455l1.955,1.129a.87.87,0,0,0,.789,0L314,266.5C314.214,266.379,314.211,266.176,313.994,266.049Zm-28.828-12.686,3.524,2.034a.979.979,0,0,0,.889,0l.664-.383c.244-.141.244-.371,0-.514l-3.522-2.032a.983.983,0,0,0-.891,0l-.662.381A.271.271,0,0,0,285.166,253.363ZM290,256.156l.666.385a.983.983,0,0,0,.891,0l.662-.383c.246-.141.244-.371,0-.514l-.668-.385a.985.985,0,0,0-.889,0l-.664.381A.271.271,0,0,0,290,256.156Zm1.979,1.143.668.385a.979.979,0,0,0,.889,0l.664-.383c.244-.141.244-.371,0-.514l-.666-.383a.983.983,0,0,0-.891,0l-.662.381A.271.271,0,0,0,291.982,257.3Zm1.981,1.143.666.385a.983.983,0,0,0,.891,0l.662-.383c.246-.141.244-.371,0-.514l-.668-.385a.986.986,0,0,0-.889,0l-.664.381A.271.271,0,0,0,293.963,258.442Zm1.979,1.143.668.385a.979.979,0,0,0,.889,0l.664-.383c.244-.141.244-.371,0-.514l-.666-.383a.983.983,0,0,0-.891,0l-.662.381A.271.271,0,0,0,295.943,259.585Zm1.981,1.143.666.385a.983.983,0,0,0,.891,0l.662-.383c.246-.141.244-.371,0-.514l-.668-.383a.979.979,0,0,0-.889,0l-.664.381A.271.271,0,0,0,297.924,260.728Zm1.979,1.143.668.385a.979.979,0,0,0,.889,0l.664-.383c.244-.141.244-.371,0-.514l-.666-.383a.983.983,0,0,0-.891,0l-.662.381A.271.271,0,0,0,299.9,261.872Zm1.981,1.143.666.385a.983.983,0,0,0,.891,0l.662-.383c.246-.141.244-.371,0-.514l-.668-.383a.978.978,0,0,0-.889,0l-.664.381A.271.271,0,0,0,301.884,263.015Zm1.979,1.143.668.385a.979.979,0,0,0,.889,0l.664-.383c.244-.141.244-.371,0-.514l-.666-.383a.983.983,0,0,0-.891,0l-.662.381A.271.271,0,0,0,303.863,264.158Zm1.981,1.145.666.383a.983.983,0,0,0,.891,0l.662-.383c.246-.141.244-.371,0-.514l-.666-.383a.983.983,0,0,0-.891,0l-.664.383C305.6,264.93,305.6,265.16,305.844,265.3Zm1.979,1.141.668.385a.978.978,0,0,0,.889,0l.664-.383c.244-.141.244-.371,0-.514l-.666-.383a.983.983,0,0,0-.891,0l-.662.381A.271.271,0,0,0,307.823,266.444Zm4.241.66-.666-.385a.989.989,0,0,0-.891,0l-.662.383c-.246.141-.244.371,0,.514l.668.385a.978.978,0,0,0,.889,0l.664-.381A.272.272,0,0,0,312.064,267.1ZM286.428,254.42l-1.545-.893a.983.983,0,0,0-.891,0l-.662.381a.271.271,0,0,0,0,.514l1.545.893a.983.983,0,0,0,.891,0l.662-.381A.271.271,0,0,0,286.428,254.42Zm1.979,1.143-.666-.385a.989.989,0,0,0-.891,0l-.662.383c-.246.141-.244.371,0,.514l.668.385a.985.985,0,0,0,.889,0l.664-.383A.271.271,0,0,0,288.407,255.563Zm1.981,1.143-.666-.385a.99.99,0,0,0-.891,0l-.662.383c-.246.141-.246.371,0,.514l.666.385a.989.989,0,0,0,.891,0l.662-.383C290.636,257.08,290.634,256.85,290.388,256.707Zm13.86,8L291.7,257.465a.989.989,0,0,0-.891,0l-.662.383a.271.271,0,0,0,0,.514L302.7,265.6a.989.989,0,0,0,.891,0l.662-.383C304.5,265.082,304.5,264.853,304.248,264.709Zm1.981,1.143-.666-.385a.984.984,0,0,0-.891,0l-.662.381a.271.271,0,0,0,0,.514l.666.385a.989.989,0,0,0,.891,0l.662-.383C306.477,266.225,306.475,266,306.229,265.852ZM308.208,267l-.666-.385a.99.99,0,0,0-.891,0l-.662.383a.271.271,0,0,0,0,.514l.668.385a.989.989,0,0,0,.891,0l.662-.383C308.456,267.368,308.456,267.139,308.208,267Zm2.022,1.168-.666-.385a.983.983,0,0,0-.891,0l-.662.383c-.246.141-.244.371,0,.514l.666.383a.983.983,0,0,0,.891,0l.662-.381A.272.272,0,0,0,310.231,268.163Z" transform="translate(-273.504 -241.638)" fill="#e5e9ff"/>
      </g>
      <g id="Group_828" data-name="Group 828" transform="translate(31.815 36.976)">
        <g id="Group_827" data-name="Group 827">
          <path id="Path_2035" data-name="Path 2035" d="M300.721,268.924l-.012-.023.068-.025c.336-.246,13.475-5.282,19.592-8.818l-7.974-16.73a9.11,9.11,0,0,1-.969-1.983,7.37,7.37,0,0,1-.24-1.846,15.515,15.515,0,0,1,7.04-12.145c3.583-2.069,6.07.693,6.951,3.045,0,0,10.738,30.893,10.738,32.1a6.6,6.6,0,0,1-2.112,4.833,11.058,11.058,0,0,1-2.006,1.3c-6.107,3.182-20.06,8.957-24.3,10.695a2.142,2.142,0,0,1-1.141.467l-.111.045-.018-.039a3.844,3.844,0,0,1-2.129-.578,9.775,9.775,0,0,1-4.436-7.648A3.219,3.219,0,0,1,300.721,268.924Z" transform="translate(-285.693 -226.627)" fill="url(#linear-gradient-9)"/>
          <path id="Path_2036" data-name="Path 2036" d="M294.036,254.1l8.814-4.7a3.166,3.166,0,0,1,.822-.3s4.642-1.385,5.435-1.151a.734.734,0,0,1,.381.145,3.577,3.577,0,0,1,.426.2,7.437,7.437,0,0,1,3.376,5.825,2.355,2.355,0,0,1-1.657,2.36l-2.112.86a22.47,22.47,0,0,1-7.562,1.649l-4.559.191a3.194,3.194,0,0,1-2.311-.858h0A2.24,2.24,0,0,1,294.036,254.1Z" transform="translate(-292.846 -204.291)" fill="#ffd4c0"/>
        </g>
      </g>
      <g id="Group_829" data-name="Group 829" transform="translate(1.061 59.174)">
        <path id="Path_2037" data-name="Path 2037" d="M310.921,285.776,280,267.915a5.19,5.19,0,0,1-2.168-4.141V239.519c0-1.6.971-2.329,2.168-1.637l30.918,17.861a5.184,5.184,0,0,1,2.168,4.141v24.253C313.088,285.733,312.119,286.466,310.921,285.776Z" transform="translate(-277.835 -237.294)" fill="#858fd6"/>
        <path id="Path_2038" data-name="Path 2038" d="M311.116,255.582,280.2,237.721a1.47,1.47,0,0,0-1.268-.186c-.045.018-.649.34-.693.363l0,0a1.414,1.414,0,0,1,1.348.15L310.5,255.91a5.184,5.184,0,0,1,2.168,4.141V284.3c0,1-.377,1.657-.953,1.844a.346.346,0,0,0,.191-.064c.027-.016.682-.387.709-.406a2,2,0,0,0,.668-1.7V259.723A5.2,5.2,0,0,0,311.116,255.582Z" transform="translate(-277.415 -237.461)" fill="#2d3259"/>
      </g>
      <g id="Group_830" data-name="Group 830" transform="translate(37.949)">
        <path id="Path_2039" data-name="Path 2039" d="M318.757,220.181c1.2,9.65-3.573,12.332-9.68,13.559-7.206,1.449-12.354-.563-12.709-10.775-.344-9.943,3.5-12.788,9.683-13.559S317.53,210.308,318.757,220.181Z" transform="translate(-295.309 -207.882)" fill="#ffd4c0"/>
        <path id="Path_2040" data-name="Path 2040" d="M298.2,221.1c-.143-2.346,2.987-4.481,7.019-4.778s7.443,1.36,7.642,3.7h0s.643,8.769.645,8.789c.174,2.358-2.969,4.509-7.019,4.806s-7.47-1.373-7.644-3.731c0-.02-.645-8.789-.645-8.789Z" transform="translate(-293.369 -200.49)" fill="#ffd4c0"/>
        <path id="Path_2041" data-name="Path 2041" d="M310.88,220.036c7.079,4.138,4.149,12.61,5.98,11.055a12.771,12.771,0,0,0-9.836-22.414c-8.746,1.086-13.676,10.24-9.9,11.975C301.968,222.882,304.074,216.057,310.88,220.036Z" transform="translate(-295.84 -208.579)"/>
      </g>
      <path id="Path_2042" data-name="Path 2042" d="M311.239,213.262a12.61,12.61,0,0,1,.238,1.326,13.262,13.262,0,0,1-4.343,11.606c-1.278,1.086-.281-2.848-1.957-6.732A17.673,17.673,0,0,0,311.239,213.262Z" transform="translate(-248.098 -203.667)" fill="#afb6e5" style="mix-blend-mode: multiply;isolation: isolate"/>
    </g>
  </g>
</svg>
