<svg xmlns="http://www.w3.org/2000/svg" xmlns:xlink="http://www.w3.org/1999/xlink" width="447.071" height="73.333" viewBox="0 0 447.071 73.333">
  <defs>
    <linearGradient id="linear-gradient" x1="0.843" y1="-0.091" x2="0.213" y2="0.994" gradientUnits="objectBoundingBox">
      <stop offset="0.004" stop-color="#bf00ff"/>
      <stop offset="1" stop-color="#4c006a"/>
    </linearGradient>
  </defs>
  <g id="Group_1186" data-name="Group 1186" transform="translate(-241 -8351)">
    <g id="Group_1177" data-name="Group 1177" transform="translate(343.37 8352.918)">
      <path id="Path_2562" data-name="Path 2562" d="M136.132,43.528H119.969l-3.079,7.463H108.64l15.511-34.8H132.1l15.559,34.8h-8.451Zm-2.542-6.12-5.516-13.324-5.516,13.324Z" transform="translate(-108.64 -15.586)" fill="#404041"/>
      <path id="Path_2563" data-name="Path 2563" d="M183.287,28.813c0,7.76-5.813,12.576-15.118,12.576h-7.012v9.592H153.1V16.18h15.07C177.465,16.18,183.287,21,183.287,28.813Zm-8.153,0c0-3.827-2.484-6.062-7.405-6.062h-6.561V34.837h6.561C172.649,34.828,175.134,32.593,175.134,28.813Z" transform="translate(-110.452 -15.585)" fill="#404041"/>
      <path id="Path_2564" data-name="Path 2564" d="M220.707,28.813c0,7.76-5.813,12.576-15.118,12.576h-7.012v9.592H190.52V16.18h15.07C214.894,16.18,220.707,21,220.707,28.813Zm-8.154,0c0-3.827-2.484-6.062-7.405-6.062h-6.561V34.837h6.561C210.069,34.828,212.554,32.593,212.554,28.813Z" transform="translate(-111.978 -15.585)" fill="#404041"/>
      <path id="Path_2565" data-name="Path 2565" d="M225.62,47.531l2.734-6.062a20.464,20.464,0,0,0,11.482,3.626c4.777,0,6.715-1.592,6.715-3.731,0-6.513-20.24-2.034-20.24-14.964,0-5.918,4.777-10.839,14.667-10.839a23.414,23.414,0,0,1,12.086,3.079l-2.484,6.12a19.633,19.633,0,0,0-9.65-2.734c-4.777,0-6.609,1.794-6.609,3.981,0,6.417,20.24,1.986,20.24,14.763,0,5.813-4.825,10.791-14.772,10.791C234.272,51.56,228.7,49.92,225.62,47.531Z" transform="translate(-113.409 -15.56)" fill="#404041"/>
      <path id="Path_2566" data-name="Path 2566" d="M261.54,16.18H269.6v34.8H261.54Z" transform="translate(-114.873 -15.585)" fill="#bf00ff"/>
      <path id="Path_2567" data-name="Path 2567" d="M310.214,50.981,310.166,30.1,299.921,47.3H296.3L286.1,30.54V50.971H278.54V16.18h6.667l13.026,21.631L311.058,16.18h6.609l.1,34.8Z" transform="translate(-115.566 -15.585)" fill="#bf00ff"/>
      <path id="Path_2568" data-name="Path 2568" d="M358.217,28.813c0,7.76-5.813,12.576-15.118,12.576h-7.012v9.592H328.03V16.18H343.1C352.4,16.18,358.217,21,358.217,28.813Zm-8.154,0c0-3.827-2.484-6.062-7.405-6.062H336.1V34.837h6.561C347.579,34.828,350.064,32.593,350.064,28.813Z" transform="translate(-117.583 -15.585)" fill="#bf00ff"/>
      <path id="Path_2569" data-name="Path 2569" d="M386.372,43.528H370.219l-3.079,7.463H358.89L374.4,16.19h7.952l15.559,34.8h-8.451Zm-2.532-6.12-5.516-13.324-5.516,13.324Z" transform="translate(-118.841 -15.586)" fill="#bf00ff"/>
      <path id="Path_2570" data-name="Path 2570" d="M400.55,33.555c0-10.494,8.058-18,18.9-18,6.014,0,11.041,2.187,14.321,6.168L428.6,26.5a11.192,11.192,0,0,0-8.748-4.077,10.677,10.677,0,0,0-11.137,11.137A10.677,10.677,0,0,0,419.85,44.7a11.076,11.076,0,0,0,8.748-4.125l5.17,4.777c-3.281,4.029-8.307,6.216-14.369,6.216C408.608,51.56,400.55,44.049,400.55,33.555Z" transform="translate(-120.54 -15.56)" fill="#bf00ff"/>
      <path id="Path_2571" data-name="Path 2571" d="M447.507,22.741H436.37V16.18H466.7v6.561H455.564v28.24h-8.058V22.741Z" transform="translate(-122 -15.585)" fill="#bf00ff"/>
    </g>
    <g id="Group_1179" data-name="Group 1179" transform="translate(353.739 8404.228)">
      <g id="Group_1178" data-name="Group 1178" transform="translate(0 0)">
        <path id="Path_2572" data-name="Path 2572" d="M132.707,82.2h-8.393l-1.65,3.885H119.45L127,69.3h3.07l7.578,16.787h-3.261Zm-1.036-2.446-3.165-7.338-3.137,7.338Z" transform="translate(-119.45 -69.06)" fill="#2b2b2b"/>
        <path id="Path_2573" data-name="Path 2573" d="M171.65,77.683c0-5.007,3.837-8.633,8.988-8.633a8.514,8.514,0,0,1,6.638,2.8l-2.014,1.89a5.869,5.869,0,0,0-4.48-1.966,5.9,5.9,0,1,0,0,11.8,5.84,5.84,0,0,0,4.48-1.986l2.014,1.918a8.509,8.509,0,0,1-6.667,2.811C175.477,86.316,171.65,82.7,171.65,77.683Z" transform="translate(-121.578 -69.05)" fill="#2b2b2b"/>
        <path id="Path_2574" data-name="Path 2574" d="M233.977,82.2h-8.393l-1.65,3.885H220.72L228.269,69.3h3.07l7.578,16.787h-3.261Zm-1.026-2.446-3.165-7.338-3.137,7.338Z" transform="translate(-123.578 -69.06)" fill="#2b2b2b"/>
        <path id="Path_2575" data-name="Path 2575" d="M274.42,69.31h7.338c5.439,0,9.161,3.357,9.161,8.393s-3.712,8.393-9.161,8.393H274.42Zm7.194,14.139c3.741,0,6.158-2.283,6.158-5.755s-2.417-5.755-6.158-5.755h-4.077V83.449Z" transform="translate(-125.767 -69.061)" fill="#2b2b2b"/>
        <path id="Path_2576" data-name="Path 2576" d="M340.155,83.478v2.609H327.57V69.3h12.249v2.609h-9.132v4.365h8.106v2.561h-8.106v4.624h9.468Z" transform="translate(-127.934 -69.06)" fill="#2b2b2b"/>
        <path id="Path_2577" data-name="Path 2577" d="M392.235,86.087l-.029-11.127-5.516,9.209H385.3L379.784,75.1V86.087H376.81V69.3h2.561l6.667,11.127L392.58,69.3h2.561l.029,16.787Z" transform="translate(-129.941 -69.06)" fill="#2b2b2b"/>
        <path id="Path_2578" data-name="Path 2578" d="M440.327,80.169v5.918H437.21V80.216L430.62,69.31h3.328l4.911,8.173,4.959-8.173h3.07Z" transform="translate(-132.135 -69.061)" fill="#2b2b2b"/>
      </g>
    </g>
    <g id="Group_1184" data-name="Group 1184" transform="translate(241 8351)">
      <path id="Path_2579" data-name="Path 2579" d="M20.015,74.933H1.92L28.793,1.6H46.9Z" transform="translate(-1.92 -1.6)" fill="url(#linear-gradient)"/>
      <path id="Path_2580" data-name="Path 2580" d="M62.955,1.6H44.86L71.733,74.933h18.1Z" transform="translate(-10.218 -1.6)" fill="#bf00ff"/>
      <path id="Path_2581" data-name="Path 2581" d="M39.2,85.57l9.641-28.93,9.641,28.93Z" transform="translate(-9.124 -12.237)" fill="#bf00ff"/>
    </g>
  </g>
</svg>
