<svg xmlns="http://www.w3.org/2000/svg" width="90.006" height="90" viewBox="0 0 90.006 90">
  <path id="Projects" d="M-.452,84.45a1.888,1.888,0,0,1-.469-1.866C-.307,80.535,5.2,62.407,9.218,58.394a11.589,11.589,0,0,1,16.39,16.39C21.594,78.8,3.466,84.3,1.414,84.923A1.971,1.971,0,0,1,.874,85,1.882,1.882,0,0,1-.452,84.45Zm50.58-4.313a1.87,1.87,0,0,1-1.33-1.448L46.729,64.236l-2,1.785a1.884,1.884,0,0,1-2.579-.071L18.05,41.845a1.871,1.871,0,0,1-.074-2.575l1.785-2L5.309,35.2A1.876,1.876,0,0,1,4.26,32.01,47.578,47.578,0,0,1,36.87,18.125C49.554,3.875,69.589-5.309,87.16-4.992a1.879,1.879,0,0,1,1.833,1.829c.408,17.547-8.85,37.576-23.113,50.287A47.477,47.477,0,0,1,52.116,79.613a2.129,2.129,0,0,1-1.451.6A1.682,1.682,0,0,1,50.128,80.137Zm6.49-66.018a9.389,9.389,0,1,0,6.631-2.741A9.4,9.4,0,0,0,56.618,14.118Z" transform="translate(1 5)" fill="#bf00ff"/>
</svg>
