<svg xmlns="http://www.w3.org/2000/svg" width="90.147" height="90" viewBox="0 0 90.147 90">
  <path id="Resource_Strength" data-name="Resource Strength" d="M38.233,85a4.421,4.421,0,0,1-4.408-4.408V59.8h-1.69a4.421,4.421,0,0,1-4.408-4.408V32.322a4.374,4.374,0,0,1,4.408-4.408H56.159a4.422,4.422,0,0,1,4.408,4.408v23a4.421,4.421,0,0,1-4.408,4.408H54.47V80.591A4.422,4.422,0,0,1,50.061,85ZM8.7,65.971A4.421,4.421,0,0,1,4.29,61.563V43.93H3.409A4.374,4.374,0,0,1-1,39.523V20.494a4.421,4.421,0,0,1,4.408-4.408H23.245a4.421,4.421,0,0,1,4.408,4.408v1.763a10.994,10.994,0,0,0-6.613,10.065V55.392a11.146,11.146,0,0,0,1.323,5.143v1.028a4.421,4.421,0,0,1-4.408,4.408Zm61.495-.146a4.421,4.421,0,0,1-4.408-4.408V60.388a10.319,10.319,0,0,0,1.322-5.143v-23a11,11,0,0,0-6.613-10.066V20.421A4.422,4.422,0,0,1,64.9,16.012H84.738a4.421,4.421,0,0,1,4.408,4.408V39.375a4.42,4.42,0,0,1-4.408,4.408h-.881V61.417a4.421,4.421,0,0,1-4.408,4.408ZM33.9,14.028A10.212,10.212,0,1,1,44.11,24.241,10.212,10.212,0,0,1,33.9,14.028ZM66,3.89a8.89,8.89,0,1,1,8.89,8.89A8.89,8.89,0,0,1,66,3.89Zm-61.568,0a8.89,8.89,0,1,1,8.89,8.89A8.89,8.89,0,0,1,4.437,3.89Z" transform="translate(1 5)" fill="#bf00ff"/>
</svg>
