<svg xmlns="http://www.w3.org/2000/svg" width="90.003" height="90" viewBox="0 0 90.003 90">
  <path id="Timely_Execution" data-name="Timely Execution" d="M-1119.8-5102.824l-16.875-16.875a2.815,2.815,0,0,1,0-3.977l16.875-16.875a2.82,2.82,0,0,1,3.065-.613,2.813,2.813,0,0,1,1.738,2.6v8.437h36.563a14.06,14.06,0,0,0,14.063-14.062,2.814,2.814,0,0,1,2.813-2.812h11.25a2.814,2.814,0,0,1,2.813,2.813,30.935,30.935,0,0,1-30.938,30.938H-1115v8.438a2.819,2.819,0,0,1-1.738,2.6,2.8,2.8,0,0,1-1.079.216A2.808,2.808,0,0,1-1119.8-5102.824ZM-1134.684-5147a2.813,2.813,0,0,1-2.812-2.812,30.934,30.934,0,0,1,30.938-30.938H-1070v-8.437a2.809,2.809,0,0,1,1.738-2.593,2.8,2.8,0,0,1,3.066.607l16.875,16.875a2.814,2.814,0,0,1,0,3.977l-16.875,16.875a2.805,2.805,0,0,1-3.066.607,2.811,2.811,0,0,1-1.738-2.6v-8.437h-36.563a14.061,14.061,0,0,0-14.062,14.063,2.813,2.813,0,0,1-2.812,2.812Z" transform="translate(1137.498 5192)" fill="#bf00ff"/>
</svg>
